<svg width="73" height="72" viewBox="0 0 73 72" fill="none" xmlns="http://www.w3.org/2000/svg">
<path d="M36.5 6C19.97 6 6.5 19.47 6.5 36C6.5 52.53 19.97 66 36.5 66C53.03 66 66.5 52.53 66.5 36C66.5 19.47 53.03 6 36.5 6ZM46.58 42.9C47.45 43.77 47.45 45.21 46.58 46.08C46.13 46.53 45.56 46.74 44.99 46.74C44.42 46.74 43.85 46.53 43.4 46.08L36.5 39.18L29.6 46.08C29.15 46.53 28.58 46.74 28.01 46.74C27.44 46.74 26.87 46.53 26.42 46.08C25.55 45.21 25.55 43.77 26.42 42.9L33.32 36L26.42 29.1C25.55 28.23 25.55 26.79 26.42 25.92C27.29 25.05 28.73 25.05 29.6 25.92L36.5 32.82L43.4 25.92C44.27 25.05 45.71 25.05 46.58 25.92C47.45 26.79 47.45 28.23 46.58 29.1L39.68 36L46.58 42.9Z" fill="#D32F2F"/>
</svg>
