<svg width="24" height="24" viewBox="0 0 24 24" fill="none" xmlns="http://www.w3.org/2000/svg">
<path d="M12 20C10.8945 20 10 19.1055 10 18C10 16.8945 10.8945 16 12 16C13.1055 16 14 16.8945 14 18C14 19.1055 13.1055 20 12 20Z" fill="#292D32"/>
<path d="M12 6C10.8945 6 10 5.10545 10 4C10 2.89455 10.8945 2 12 2C13.1055 2 14 2.89455 14 4C14 5.10545 13.1055 6 12 6Z" fill="#292D32"/>
<path d="M12 13C10.8945 13 10 12.1055 10 11C10 9.89455 10.8945 9 12 9C13.1055 9 14 9.89455 14 11C14 12.1055 13.1055 13 12 13Z" fill="#292D32"/>
</svg>
