<svg width="49" height="60" viewBox="0 0 49 60" fill="none" xmlns="http://www.w3.org/2000/svg">
<path d="M39.8678 41.5445C43.5529 37.6438 45.8402 32.3128 45.8402 26.4617C45.8402 14.4996 36.3098 4.87781 24.7463 4.87781C13.0557 4.87781 3.65234 14.6296 3.65234 26.4617C3.65234 32.3128 5.93965 37.6438 9.62473 41.5445C10.2601 42.1946 24.7463 55.457 24.7463 55.457C24.7463 55.457 39.2324 42.1946 39.8678 41.5445Z" fill="url(#paint0_linear_3204_12531)"/>
<path d="M23.6022 56.7596C21.1878 54.5492 8.98896 43.3672 8.48067 42.7171C4.2873 38.2963 2 32.4452 2 26.3341C2 13.3317 12.2928 2.7998 25 2.7998C37.7072 2.7998 48 13.3317 48 26.3341C48 31.145 46.6022 35.6958 43.9337 39.5965L41.3923 42.8471C40.3757 43.8873 28.6851 54.5492 26.2707 56.7596L25.1271 57.7998L23.6022 56.7596Z" stroke="url(#paint1_linear_3204_12531)" stroke-width="1.33144" stroke-miterlimit="10"/>
<path d="M24.739 41.9364C33.2307 41.9364 40.1147 34.8925 40.1147 26.2035C40.1147 17.5145 33.2307 10.4706 24.739 10.4706C16.2472 10.4706 9.36328 17.5145 9.36328 26.2035C9.36328 34.8925 16.2472 41.9364 24.739 41.9364Z" fill="url(#paint2_linear_3204_12531)"/>
<path d="M40.1146 26.2035C40.1146 30.7543 38.2086 34.7851 35.2859 37.6456C37.9544 34.7851 39.4793 31.0144 39.4793 26.8536C39.4793 18.142 32.6174 11.1208 24.1036 11.1208C20.0373 11.1208 16.3522 12.8111 13.5566 15.4115C16.3522 12.421 20.2914 10.4706 24.7389 10.4706C33.2527 10.4706 40.1146 17.4919 40.1146 26.2035Z" fill="#FBFBFB"/>
<path d="M26.9064 24.9036C26.9064 26.2039 25.8898 27.114 24.7461 27.114C23.6025 27.114 22.5859 26.0739 22.5859 24.9036C22.5859 23.6034 23.6025 22.6932 24.7461 22.6932C25.8898 22.6932 26.9064 23.6034 26.9064 24.9036Z" fill="#EF9245"/>
<path d="M29.32 22.4321C29.193 21.912 29.0659 21.3919 28.8118 21.0018L27.541 17.3612C26.5245 14.7607 22.9665 14.7607 21.9499 17.3612L20.6792 20.7418C20.425 21.3919 20.298 21.912 20.0438 22.5621C19.4085 24.6425 19.1543 26.8529 19.1543 29.0633V32.3139C19.1543 32.5739 19.1543 32.704 19.2814 32.964C19.5355 33.6141 20.1709 34.1342 20.9333 34.1342H28.3035C29.0659 34.1342 29.7013 33.6141 29.9554 32.964C30.0825 32.834 30.0825 32.5739 30.0825 32.3139V28.8033C30.2095 26.7229 29.8283 24.5125 29.32 22.4321ZM22.3311 22.4321C23.6018 21.1319 25.762 21.1319 27.0328 22.4321C28.3035 23.7323 28.3035 25.9427 27.0328 27.243C25.762 28.5432 23.6018 28.5432 22.3311 27.243C21.0604 25.9427 21.0604 23.7323 22.3311 22.4321Z" fill="#EF9245"/>
<path d="M26.9064 24.9036C26.9064 26.2039 25.8898 27.114 24.7461 27.114C23.6025 27.114 22.5859 26.0739 22.5859 24.9036C22.5859 23.6034 23.6025 22.6932 24.7461 22.6932C25.8898 22.6932 26.9064 23.6034 26.9064 24.9036Z" fill="#EF9245"/>
<path d="M26.9064 24.9036C26.9064 26.2039 25.8898 27.114 24.7461 27.114C23.6025 27.114 22.5859 26.0739 22.5859 24.9036C22.5859 23.6034 23.6025 22.6932 24.7461 22.6932C25.8898 22.6932 26.9064 23.6034 26.9064 24.9036Z" fill="#EF9245"/>
<path d="M28.4261 21.7826C28.4261 21.7826 32.1112 23.7329 33.382 31.1443C33.509 32.0545 32.8736 32.9646 31.8571 32.9646H28.0449C28.0449 32.9646 29.1886 27.1136 28.4261 21.7826Z" fill="#EF9245"/>
<path d="M21.0598 21.7826C21.0598 21.7826 17.3747 23.7329 16.104 31.1443C15.9769 32.0545 16.6123 32.9646 17.6288 32.9646H21.441C21.441 32.9646 20.2974 27.1136 21.0598 21.7826Z" fill="#EF9245"/>
<path d="M21.4414 33.6141C21.4414 33.6141 21.4414 33.8742 21.5685 34.2643C21.9497 35.5645 22.8392 38.555 24.6182 40.8955C24.6182 40.8955 26.7784 38.295 27.795 34.2643C27.795 34.0042 27.9221 33.8742 27.9221 33.6141H21.4414ZM24.7453 38.295C23.9828 36.7347 23.4746 35.0444 23.2204 34.2643H26.3972C25.7619 36.7347 24.7453 38.295 24.7453 38.295Z" fill="#EF9245"/>
<path d="M26.5247 33.6141C26.5247 33.8742 26.3976 34.0042 26.3976 34.2643H23.2208C23.0938 33.8742 23.0938 33.6141 23.0938 33.6141H26.5247Z" fill="#EF9245"/>
<defs>
<linearGradient id="paint0_linear_3204_12531" x1="3.60558" y1="30.1431" x2="45.9072" y2="30.1431" gradientUnits="userSpaceOnUse">
<stop stop-color="#FAA646"/>
<stop offset="0.9901" stop-color="#FA753C"/>
</linearGradient>
<linearGradient id="paint1_linear_3204_12531" x1="1.18598" y1="30.501" x2="48.3691" y2="30.501" gradientUnits="userSpaceOnUse">
<stop stop-color="#FAA646"/>
<stop offset="0.9901" stop-color="#FA753C"/>
</linearGradient>
<linearGradient id="paint2_linear_3204_12531" x1="15.9406" y1="38.7479" x2="34.4959" y2="13.6325" gradientUnits="userSpaceOnUse">
<stop stop-color="white"/>
<stop offset="0.3106" stop-color="#FAFAFA"/>
<stop offset="0.6533" stop-color="#EDEDED"/>
<stop offset="1" stop-color="#D8D8D8"/>
</linearGradient>
</defs>
</svg>
