<svg width="48" height="58" viewBox="0 0 48 58" fill="none" xmlns="http://www.w3.org/2000/svg">
<path d="M39.3092 40.4336C42.9943 36.5329 45.2816 31.202 45.2816 25.3509C45.2816 13.3887 35.7512 3.76697 24.1877 3.76697C12.4971 3.76697 3.09375 13.5187 3.09375 25.3509C3.09375 31.202 5.38104 36.5329 9.06612 40.4336C9.70148 41.0838 24.1877 54.3462 24.1877 54.3462C24.1877 54.3462 38.6739 41.0838 39.3092 40.4336Z" fill="url(#paint0_linear_3204_12501)"/>
<path d="M22.9167 55.3843C20.5023 53.1739 8.30339 41.9919 7.79511 41.3418C3.60173 36.921 1.31445 31.0699 1.31445 24.9588C1.31445 11.9564 11.6073 1.4245 24.3144 1.4245C37.0216 1.4245 47.3145 11.9564 47.3145 24.9588C47.3145 29.7697 45.9167 34.3205 43.2482 38.2212L40.7067 41.4718C39.6901 42.512 27.9995 53.1739 25.5852 55.3843L24.4415 56.4245L22.9167 55.3843Z" stroke="url(#paint1_linear_3204_12501)" stroke-width="1.30024" stroke-miterlimit="10"/>
<path d="M24.1902 40.8224C32.6819 40.8224 39.5658 33.7786 39.5658 25.0896C39.5658 16.4005 32.6819 9.35669 24.1902 9.35669C15.6984 9.35669 8.81445 16.4005 8.81445 25.0896C8.81445 33.7786 15.6984 40.8224 24.1902 40.8224Z" fill="url(#paint2_linear_3204_12501)"/>
<path d="M39.5639 25.0896C39.5639 29.6404 37.6578 33.6711 34.7351 36.5316C37.4036 33.6711 38.9285 29.9004 38.9285 25.7397C38.9285 17.0281 32.0666 10.0068 23.5528 10.0068C19.4865 10.0068 15.8014 11.6971 13.0059 14.2976C15.8014 11.307 19.7407 9.35669 24.1882 9.35669C32.702 9.35669 39.5639 16.378 39.5639 25.0896Z" fill="#FBFBFB"/>
<path d="M31.2813 22.7486C31.1543 21.9685 30.7731 21.3184 30.3918 20.6683C29.7565 19.6281 28.867 18.7179 27.8504 18.0678C27.215 17.6777 26.4526 17.4177 25.8173 17.1576C25.1819 17.0276 24.6736 16.8976 24.0382 16.8976C23.4029 16.8976 22.7675 17.0276 22.2592 17.1576C21.4968 17.2876 20.8615 17.6777 20.2261 18.0678C19.2095 18.7179 18.32 19.6281 17.6847 20.6683C17.3034 21.3184 17.0493 22.0985 16.7952 22.7486C16.6681 23.3988 16.541 23.9189 16.541 24.569C16.541 25.2191 16.6681 25.8692 16.7952 26.3893C16.9222 27.1695 17.3034 27.8196 17.6847 28.4697C18.32 29.5099 19.2095 30.42 20.2261 31.0702C20.8615 31.4602 21.6239 31.7203 22.2592 31.9803C22.8946 32.1103 23.4029 32.2404 24.0382 32.2404C24.6736 32.2404 25.309 32.1103 25.8173 31.9803C26.5797 31.8503 27.215 31.4602 27.8504 31.0702C28.867 30.42 29.7565 29.5099 30.3918 28.4697C30.7731 27.8196 31.0272 27.0394 31.2813 26.3893C31.4084 25.7392 31.5355 25.2191 31.5355 24.569C31.5355 24.0489 31.4084 23.3988 31.2813 22.7486ZM23.9112 29.5099C21.2427 29.5099 19.2095 27.2995 19.2095 24.699C19.2095 21.9685 21.3697 19.8881 23.9112 19.8881C26.5797 19.8881 28.6128 22.0985 28.6128 24.699C28.6128 27.2995 26.4526 29.5099 23.9112 29.5099Z" fill="#AEDB61"/>
<path d="M22.0039 17.2885L22.258 15.4682C22.3851 14.9481 22.7663 14.558 23.2746 14.558H24.5453C25.0536 14.558 25.5619 14.9481 25.5619 15.4682L25.689 17.2885H22.0039Z" fill="#AEDB61"/>
<path d="M17.555 20.7991L16.5385 19.3688C16.2843 18.9788 16.2843 18.3286 16.6655 17.9386L17.555 17.0284C17.9362 16.6383 18.5716 16.6383 18.9528 17.0284L20.2235 18.1986L17.555 20.7991Z" fill="#AEDB61"/>
<path d="M16.6665 26.5203L14.8875 26.2603C14.3793 26.1302 13.998 25.7402 13.998 25.2201V23.9198C13.998 23.3998 14.3793 22.8797 14.8875 22.8797L16.6665 22.7496V26.5203Z" fill="#AEDB61"/>
<path d="M20.096 31.2012L18.6982 32.2414C18.317 32.5014 17.6816 32.5014 17.3004 32.1114L16.4109 31.2012C16.0297 30.8111 16.0297 30.161 16.4109 29.7709L17.5546 28.4707L20.096 31.2012Z" fill="#AEDB61"/>
<path d="M25.689 31.981L25.4348 33.8014C25.3078 34.3214 24.9266 34.7115 24.4183 34.7115H23.1475C22.6393 34.7115 22.131 34.3214 22.131 33.8014L22.0039 31.981H25.689Z" fill="#AEDB61"/>
<path d="M30.2642 28.4707L31.2808 29.901C31.5349 30.291 31.5349 30.9411 31.1537 31.3312L30.2642 32.2414C29.883 32.6315 29.2476 32.6315 28.8664 32.2414L27.5957 31.0712L30.2642 28.4707Z" fill="#AEDB61"/>
<path d="M31.0234 22.7498L32.8025 23.0098C33.3107 23.1398 33.692 23.5299 33.692 24.05V25.3502C33.692 25.8703 33.3107 26.3904 32.8025 26.3904L31.0234 26.5204V22.7498Z" fill="#AEDB61"/>
<path d="M27.7207 18.069L29.1185 17.0288C29.4997 16.7688 30.1351 16.7688 30.5163 17.1589L31.4058 18.069C31.787 18.4591 31.787 19.1092 31.4058 19.4993L30.2621 20.7995L27.7207 18.069Z" fill="#AEDB61"/>
<defs>
<linearGradient id="paint0_linear_3204_12501" x1="3.02399" y1="29.0323" x2="45.3256" y2="29.0323" gradientUnits="userSpaceOnUse">
<stop stop-color="#A1DB58"/>
<stop offset="1" stop-color="#D0DB58"/>
</linearGradient>
<linearGradient id="paint1_linear_3204_12501" x1="0.58163" y1="29.1412" x2="47.7648" y2="29.1412" gradientUnits="userSpaceOnUse">
<stop stop-color="#A1DB58"/>
<stop offset="1" stop-color="#D0DB58"/>
</linearGradient>
<linearGradient id="paint2_linear_3204_12501" x1="15.3465" y1="37.5899" x2="33.9016" y2="12.4745" gradientUnits="userSpaceOnUse">
<stop stop-color="white"/>
<stop offset="0.3106" stop-color="#FAFAFA"/>
<stop offset="0.6533" stop-color="#EDEDED"/>
<stop offset="1" stop-color="#D8D8D8"/>
</linearGradient>
</defs>
</svg>
