<svg width="49" height="60" viewBox="0 0 49 60" fill="none" xmlns="http://www.w3.org/2000/svg">
<path d="M39.6393 42.0116C43.3244 38.1109 45.6117 32.7799 45.6117 26.9288C45.6117 14.9667 36.0813 5.34491 24.5178 5.34491C12.8272 5.34491 3.42383 15.0967 3.42383 26.9288C3.42383 32.7799 5.71114 38.1109 9.39622 42.0116C10.0316 42.6617 24.5178 55.9241 24.5178 55.9241C24.5178 55.9241 39.004 42.6617 39.6393 42.0116Z" fill="url(#paint0_linear_3204_12432)"/>
<path d="M23.3815 57.0952C20.9672 54.8848 8.76824 43.7027 8.25995 43.0526C4.06658 38.6318 1.7793 32.7808 1.7793 26.6697C1.7793 13.6673 12.0721 3.13538 24.7793 3.13538C37.4865 3.13538 47.7793 13.6673 47.7793 26.6697C47.7793 31.4805 46.3815 36.0314 43.713 39.9321L41.1716 43.1827C40.155 44.2228 28.4644 54.8848 26.05 57.0952L24.9064 58.1354L23.3815 57.0952Z" stroke="#FDD43E" stroke-width="1.33144" stroke-miterlimit="10"/>
<path d="M24.3757 42.2655C32.8675 42.2655 39.7514 35.2217 39.7514 26.5327C39.7514 17.8437 32.8675 10.7998 24.3757 10.7998C15.8839 10.7998 9 17.8437 9 26.5327C9 35.2217 15.8839 42.2655 24.3757 42.2655Z" fill="url(#paint1_linear_3204_12432)"/>
<path d="M39.7514 26.5326C39.7514 31.0834 37.8453 35.1142 34.9227 37.9747C37.5912 35.1142 39.116 31.3435 39.116 27.1827C39.116 18.4711 32.2541 11.4499 23.7403 11.4499C19.674 11.4499 15.9889 13.1402 13.1934 15.7406C15.9889 12.7501 19.9282 10.7997 24.3757 10.7997C32.8895 10.7997 39.7514 17.821 39.7514 26.5326Z" fill="#FBFBFB"/>
<path d="M19.8287 24.1309H15V35.4429H19.8287V24.1309Z" fill="#FDD43E"/>
<path d="M26.5631 21.1393H21.7344V35.5719H26.5631V21.1393Z" fill="#FDD43E"/>
<path d="M33.2975 18.7998H28.4688V35.4428H33.2975V18.7998Z" fill="#FDD43E"/>
<defs>
<linearGradient id="paint0_linear_3204_12432" x1="3.41074" y1="30.6346" x2="45.7124" y2="30.6346" gradientUnits="userSpaceOnUse">
<stop offset="0.00990099" stop-color="#FFEC30"/>
<stop offset="1" stop-color="#FDB43E"/>
</linearGradient>
<linearGradient id="paint1_linear_3204_12432" x1="15.5934" y1="39.0459" x2="34.1485" y2="13.9305" gradientUnits="userSpaceOnUse">
<stop stop-color="white"/>
<stop offset="0.3106" stop-color="#FAFAFA"/>
<stop offset="0.6533" stop-color="#EDEDED"/>
<stop offset="1" stop-color="#D8D8D8"/>
</linearGradient>
</defs>
</svg>
