<svg width="49" height="60" viewBox="0 0 49 60" fill="none" xmlns="http://www.w3.org/2000/svg">
<path d="M39.6412 41.2616C43.3263 37.3609 45.6136 32.03 45.6136 26.1789C45.6136 14.2167 36.0832 4.59497 24.5197 4.59497C12.8291 4.59497 3.42578 14.3467 3.42578 26.1789C3.42578 32.03 5.71309 37.3609 9.39817 41.2616C10.0335 41.9117 24.5197 55.1742 24.5197 55.1742C24.5197 55.1742 39.0059 41.9117 39.6412 41.2616Z" fill="url(#paint0_linear_3204_12557)"/>
<path d="M23.3795 56.4747C20.9652 54.2643 8.7663 43.0823 8.25801 42.4321C4.06464 38.0113 1.77734 32.1603 1.77734 26.0492C1.77734 13.0468 12.0702 2.51489 24.7773 2.51489C37.4845 2.51489 47.7773 13.0468 47.7773 26.0492C47.7773 30.86 46.3795 35.4109 43.711 39.3116L41.1696 42.5622C40.153 43.6024 28.4624 54.2643 26.0481 56.4747L24.9044 57.5149L23.3795 56.4747Z" stroke="url(#paint1_linear_3204_12557)" stroke-width="1.33144" stroke-miterlimit="10"/>
<path d="M24.5241 41.6536C33.0159 41.6536 39.8998 34.6098 39.8998 25.9207C39.8998 17.2317 33.0159 10.1879 24.5241 10.1879C16.0324 10.1879 9.14844 17.2317 9.14844 25.9207C9.14844 34.6098 16.0324 41.6536 24.5241 41.6536Z" fill="url(#paint2_linear_3204_12557)"/>
<path d="M39.8998 25.9207C39.8998 30.4716 37.9937 34.5023 35.0711 37.3628C37.7396 34.5023 39.2644 30.7316 39.2644 26.5709C39.2644 17.8593 32.4025 10.838 23.8887 10.838C19.8224 10.838 16.1374 12.5283 13.3418 15.1288C16.1374 12.1382 20.0766 10.1879 24.5241 10.1879C33.0379 10.1879 39.8998 17.2092 39.8998 25.9207Z" fill="#FBFBFB"/>
<path d="M29.9417 26.0659C30.9628 26.0659 31.8089 26.9121 31.8089 27.9332V32.6014C31.8089 33.6226 30.9628 34.4687 29.9417 34.4687H20.6052C19.5549 34.4687 18.7379 33.6226 18.7379 32.6014V27.9332C18.7379 26.8829 19.5549 26.0659 20.6052 26.0659H21.072V23.7318C21.072 21.4269 22.9393 19.5304 25.2734 19.5304C27.5784 19.5304 29.4748 21.4269 29.4748 23.7318V26.0659H29.9417ZM22.9393 23.7318V26.0659H27.6075V23.7318C27.6075 22.4481 26.5572 21.3977 25.2734 21.3977C23.9605 21.3977 22.9393 22.4481 22.9393 23.7318Z" fill="#D6D6D6"/>
<defs>
<linearGradient id="paint0_linear_3204_12557" x1="3.37902" y1="29.8603" x2="45.6806" y2="29.8603" gradientUnits="userSpaceOnUse">
<stop stop-color="#CACACA"/>
<stop offset="0.9901" stop-color="#D4D6D7"/>
</linearGradient>
<linearGradient id="paint1_linear_3204_12557" x1="0.963322" y1="30.216" x2="48.1465" y2="30.216" gradientUnits="userSpaceOnUse">
<stop stop-color="#D4D6D7"/>
<stop offset="0.9901" stop-color="#7F8A8E"/>
</linearGradient>
<linearGradient id="paint2_linear_3204_12557" x1="15.7258" y1="38.4651" x2="34.281" y2="13.3498" gradientUnits="userSpaceOnUse">
<stop stop-color="white"/>
<stop offset="0.3106" stop-color="#FAFAFA"/>
<stop offset="0.6533" stop-color="#EDEDED"/>
<stop offset="1" stop-color="#D8D8D8"/>
</linearGradient>
</defs>
</svg>
