<svg width="49" height="59" viewBox="0 0 49 59" fill="none" xmlns="http://www.w3.org/2000/svg">
<path d="M39.8619 40.8773C43.547 36.9766 45.8343 31.6456 45.8343 25.7946C45.8343 13.8324 36.3039 4.21063 24.7404 4.21063C13.0498 4.21063 3.64648 13.9624 3.64648 25.7946C3.64648 31.6456 5.93378 36.9766 9.61887 40.8773C10.2542 41.5274 24.7404 54.7898 24.7404 54.7898C24.7404 54.7898 39.2266 41.5274 39.8619 40.8773Z" fill="url(#paint0_linear_3204_12477)"/>
<path d="M23.6042 55.9599C21.1898 53.7495 8.9909 42.5674 8.48261 41.9173C4.28924 37.4965 2.00195 31.6455 2.00195 25.5343C2.00195 12.532 12.2948 2.00006 25.002 2.00006C37.7091 2.00006 48.002 12.532 48.002 25.5343C48.002 30.3452 46.6042 34.896 43.9357 38.7968L41.3942 42.0473C40.3776 43.0875 28.687 53.7495 26.2727 55.9599L25.129 57.0001L23.6042 55.9599Z" stroke="url(#paint1_linear_3204_12477)" stroke-width="1.33144" stroke-miterlimit="10"/>
<path d="M24.7468 41.2674C33.2385 41.2674 40.1225 34.2236 40.1225 25.5346C40.1225 16.8455 33.2385 9.8017 24.7468 9.8017C16.255 9.8017 9.37109 16.8455 9.37109 25.5346C9.37109 34.2236 16.255 41.2674 24.7468 41.2674Z" fill="url(#paint2_linear_3204_12477)"/>
<path d="M40.1225 25.5346C40.1225 30.0854 38.2164 34.1161 35.2937 36.9766C37.9622 34.1161 39.4871 30.3454 39.4871 26.1847C39.4871 17.4731 32.6252 10.4518 24.1114 10.4518C20.0451 10.4518 16.36 12.1421 13.5645 14.7426C16.36 11.7521 20.2993 9.8017 24.7468 9.8017C33.2606 9.8017 40.1225 16.823 40.1225 25.5346Z" fill="#FBFBFB"/>
<path d="M27.4173 15.3951C23.2239 15.3951 19.793 18.9057 19.793 23.1965C19.793 24.7568 20.1742 26.187 20.9366 27.3573C21.572 28.3974 22.4615 29.1776 23.351 29.8277C24.4946 30.6078 25.8924 30.9979 27.2902 30.9979C31.4836 30.9979 34.9145 27.4873 34.9145 23.1965C35.0416 18.9057 31.6106 15.3951 27.4173 15.3951ZM27.4173 28.2674C26.6548 28.2674 25.8924 28.1374 25.2571 27.7473C24.3675 27.2272 23.6051 26.5771 23.0968 25.5369C22.7156 24.8868 22.5885 24.1067 22.5885 23.1965C22.5885 20.466 24.7488 18.2556 27.4173 18.2556C30.0858 18.2556 32.246 20.466 32.246 23.1965C32.246 25.927 30.2129 28.2674 27.4173 28.2674Z" fill="#AE8DFF"/>
<path d="M25.3812 27.7465L23.6022 29.9569L18.6464 35.8079C17.884 36.7181 16.3591 36.8481 15.4696 36.068C14.5801 35.2878 14.453 33.7275 15.2155 32.8174C15.3425 32.6874 15.3425 32.6873 15.4696 32.5573L21.1878 27.4864L23.3481 25.6661C23.6022 26.4462 24.3646 27.2264 25.3812 27.7465Z" fill="#AE8DFF"/>
<defs>
<linearGradient id="paint0_linear_3204_12477" x1="3.63047" y1="29.4759" x2="45.932" y2="29.4759" gradientUnits="userSpaceOnUse">
<stop stop-color="#7A7CFF"/>
<stop offset="1" stop-color="#A67AFF"/>
</linearGradient>
<linearGradient id="paint1_linear_3204_12477" x1="1.19644" y1="29.6829" x2="48.3796" y2="29.6829" gradientUnits="userSpaceOnUse">
<stop stop-color="#7A7CFF"/>
<stop offset="1" stop-color="#A67AFF"/>
</linearGradient>
<linearGradient id="paint2_linear_3204_12477" x1="15.9575" y1="38.079" x2="34.5126" y2="12.9636" gradientUnits="userSpaceOnUse">
<stop stop-color="white"/>
<stop offset="0.3106" stop-color="#FAFAFA"/>
<stop offset="0.6533" stop-color="#EDEDED"/>
<stop offset="1" stop-color="#D8D8D8"/>
</linearGradient>
</defs>
</svg>
