<svg width="49" height="59" viewBox="0 0 49 59" fill="none" xmlns="http://www.w3.org/2000/svg">
<path d="M22.9245 56.4696C20.4992 54.2476 8.24517 43.0065 7.73459 42.353C3.52225 37.9088 1.22461 32.0269 1.22461 25.8835C1.22461 12.8125 11.564 2.22498 24.3286 2.22498C37.0933 2.22498 47.4326 12.8125 47.4326 25.8835C47.4326 30.7198 46.0285 35.2946 43.348 39.2159L40.795 42.4837C39.7739 43.5293 28.0304 54.2476 25.6051 56.4696L24.4563 57.5153L22.9245 56.4696Z" stroke="url(#paint0_linear_3204_12382)" stroke-width="1.3071" stroke-miterlimit="10"/>
<path d="M39.3929 41.0453C43.0947 37.124 45.3923 31.7649 45.3923 25.8829C45.3923 13.8576 35.8188 4.18506 24.203 4.18506C12.4595 4.18506 3.01367 13.9883 3.01367 25.8829C3.01367 31.7649 5.3113 37.124 9.01305 41.0453C9.65129 41.6988 24.203 55.0313 24.203 55.0313C24.203 55.0313 38.7547 41.6988 39.3929 41.0453Z" fill="url(#paint1_linear_3204_12382)"/>
<path d="M24.2089 41.6964C32.739 41.6964 39.6541 34.6154 39.6541 25.8805C39.6541 17.1456 32.739 10.0646 24.2089 10.0646C15.6787 10.0646 8.76367 17.1456 8.76367 25.8805C8.76367 34.6154 15.6787 41.6964 24.2089 41.6964Z" fill="url(#paint2_linear_3204_12382)"/>
<path d="M39.6547 25.8808C39.6547 30.4556 37.74 34.5077 34.8041 37.3833C37.4847 34.5077 39.0165 30.7171 39.0165 26.5343C39.0165 17.7768 32.1235 10.7184 23.5712 10.7184C19.4865 10.7184 15.7848 12.4177 12.9766 15.0319C15.7848 12.0255 19.7418 10.0649 24.2095 10.0649C32.6341 10.0649 39.6547 17.1232 39.6547 25.8808Z" fill="#FBFBFB"/>
<path d="M27.0104 33.5953C27.0104 35.1638 25.734 36.6016 24.0745 36.6016C22.5428 36.6016 21.1387 35.2946 21.1387 33.5953C21.1387 32.0268 22.4151 30.589 24.0745 30.589C25.6063 30.589 27.0104 31.8961 27.0104 33.5953Z" fill="#FF6EE4"/>
<path d="M24.8423 24.1835V31.1112C24.587 31.1112 24.3317 31.1112 24.0764 31.1112C23.8211 31.1112 23.5658 31.1112 23.3105 31.1112V24.1835C23.3105 23.7914 23.6935 23.3993 24.0764 23.3993C24.4594 23.53 24.8423 23.7914 24.8423 24.1835Z" fill="#FF6EE4"/>
<path d="M31.2228 23.9217C31.2228 27.1895 29.0528 29.9344 26.2446 30.8494V24.1832C26.2446 23.0068 25.351 22.0918 24.2022 22.0918C23.0534 22.0918 22.1599 23.0068 22.1599 24.1832V30.8494C19.224 29.9344 17.1816 27.1895 17.1816 23.9217C17.1816 19.8697 20.3728 16.602 24.3299 16.602C28.0316 16.602 31.2228 19.8697 31.2228 23.9217Z" fill="#FF6EE4"/>
<path d="M22.0312 30.8495C22.4142 30.9802 22.9248 31.1109 23.4354 31.1109V31.503H22.0312V30.8495Z" fill="#FF6EE4"/>
<path d="M26.244 30.8495V31.5031H24.8398V31.111C25.3504 31.111 25.7334 30.9803 26.244 30.8495Z" fill="#FF6EE4"/>
<path d="M26.7559 32.8106H21.3948C21.0119 32.8106 20.6289 32.4185 20.6289 32.0264C20.6289 31.6342 21.0119 31.2421 21.3948 31.2421H26.8836C27.2665 31.2421 27.6495 31.6342 27.6495 32.0264C27.5218 32.4185 27.2665 32.8106 26.7559 32.8106Z" fill="#FF6EE4"/>
<path d="M26.7559 34.379H21.3948C21.0119 34.379 20.6289 33.9869 20.6289 33.5948C20.6289 33.2026 21.0119 32.8105 21.3948 32.8105H26.8836C27.2665 32.8105 27.6495 33.2026 27.6495 33.5948C27.5218 33.9869 27.2665 34.379 26.7559 34.379Z" fill="#FF6EE4"/>
<defs>
<linearGradient id="paint0_linear_3204_12382" x1="1.08535" y1="29.9231" x2="47.2054" y2="29.9231" gradientUnits="userSpaceOnUse">
<stop stop-color="#FF5EEA"/>
<stop offset="1" stop-color="#FF5E8A"/>
</linearGradient>
<linearGradient id="paint1_linear_3204_12382" x1="2.90096" y1="29.6049" x2="45.3938" y2="29.6049" gradientUnits="userSpaceOnUse">
<stop stop-color="#FF5EEA"/>
<stop offset="1" stop-color="#FF5E8A"/>
</linearGradient>
<linearGradient id="paint2_linear_3204_12382" x1="15.2839" y1="38.4565" x2="33.941" y2="13.222" gradientUnits="userSpaceOnUse">
<stop stop-color="white"/>
<stop offset="0.3106" stop-color="#FAFAFA"/>
<stop offset="0.6533" stop-color="#EDEDED"/>
<stop offset="1" stop-color="#D8D8D8"/>
</linearGradient>
</defs>
</svg>
