<svg width="49" height="60" viewBox="0 0 49 60" fill="none" xmlns="http://www.w3.org/2000/svg">
<path d="M39.8678 41.279C43.5529 37.3783 45.8402 32.0473 45.8402 26.1962C45.8402 14.2341 36.3098 4.6123 24.7463 4.6123C13.0557 4.6123 3.65234 14.3641 3.65234 26.1962C3.65234 32.0473 5.93963 37.3783 9.62471 41.279C10.2601 41.9291 24.7463 55.1915 24.7463 55.1915C24.7463 55.1915 39.2324 41.9291 39.8678 41.279Z" fill="url(#paint0_linear_3204_12408)"/>
<path d="M23.6022 56.3597C21.1878 54.1493 8.98896 42.9673 8.48067 42.3172C4.2873 37.8964 2 32.0453 2 25.9342C2 12.9318 12.2928 2.3999 25 2.3999C37.7072 2.3999 48 12.9318 48 25.9342C48 30.7451 46.6022 35.2959 43.9337 39.1966L41.3923 42.4472C40.3757 43.4874 28.6851 54.1493 26.2707 56.3597L25.1271 57.3999L23.6022 56.3597Z" stroke="url(#paint1_linear_3204_12408)" stroke-width="1.32624" stroke-miterlimit="10"/>
<path d="M24.489 41.9277C32.9807 41.9277 39.8646 34.8839 39.8646 26.1948C39.8646 17.5058 32.9807 10.462 24.489 10.462C15.9972 10.462 9.11328 17.5058 9.11328 26.1948C9.11328 34.8839 15.9972 41.9277 24.489 41.9277Z" fill="url(#paint2_linear_3204_12408)"/>
<path d="M39.8646 26.1948C39.8646 30.7457 37.9586 34.7764 35.0359 37.6369C37.7044 34.7764 39.2293 31.0057 39.2293 26.845C39.2293 18.1334 32.3674 11.1121 23.8536 11.1121C19.7873 11.1121 16.1022 12.8024 13.3066 15.4029C16.1022 12.4123 20.0414 10.462 24.489 10.462C33.0028 10.462 39.8646 17.4833 39.8646 26.1948Z" fill="#FBFBFB"/>
<path d="M29.2234 22.3987C29.6496 19.7049 27.8608 17.1676 25.2282 16.7315C22.5955 16.2955 20.1158 18.1258 19.6896 20.8196C19.2634 23.5135 21.0522 26.0508 23.6849 26.4868C26.3176 26.9229 28.7973 25.0926 29.2234 22.3987Z" fill="#5BDDD6"/>
<path d="M33.1256 35.559H15.7168C16.2251 30.6181 19.9102 26.7174 24.3577 26.7174C28.8052 26.7174 32.7444 30.4881 33.1256 35.559Z" fill="#5BDDD6"/>
<defs>
<linearGradient id="paint0_linear_3204_12408" x1="3.53277" y1="29.902" x2="45.8342" y2="29.902" gradientUnits="userSpaceOnUse">
<stop stop-color="#4FCAFF"/>
<stop offset="1" stop-color="#4FFFAA"/>
</linearGradient>
<linearGradient id="paint1_linear_3204_12408" x1="1.26921" y1="30.0112" x2="48.4525" y2="30.0112" gradientUnits="userSpaceOnUse">
<stop stop-color="#4FCAFF"/>
<stop offset="1" stop-color="#4FFFAA"/>
</linearGradient>
<linearGradient id="paint2_linear_3204_12408" x1="15.6218" y1="38.7073" x2="34.1769" y2="13.5919" gradientUnits="userSpaceOnUse">
<stop stop-color="white"/>
<stop offset="0.3106" stop-color="#FAFAFA"/>
<stop offset="0.6533" stop-color="#EDEDED"/>
<stop offset="1" stop-color="#D8D8D8"/>
</linearGradient>
</defs>
</svg>
