<svg width="265" height="254" viewBox="0 0 265 254" fill="none" xmlns="http://www.w3.org/2000/svg">
<path d="M231.843 251.398H9.48242V253.125H231.843V251.398Z" fill="#AD8AC5"/>
<path d="M2.82284 130.906C11.5791 73.682 61.2804 -31.887 134.167 10.6613C196.695 47.0431 153.653 91.3179 205.081 109.447C292.891 140.526 216.551 271.377 110.118 248.808C3.56281 226.116 -5.44014 184.061 2.82284 130.906Z" fill="#E6F2F2"/>
<path d="M179.305 29.4068C175.235 50.2492 182.388 89.0976 223.21 102.417C263.908 115.737 249.849 83.7945 223.21 57.7723C196.571 31.6267 185.595 -2.04192 179.305 29.4068Z" fill="#E6F2F2"/>
<path d="M199.901 188.008H179.059V176.538H199.901V188.008ZM180.292 186.774H198.791V177.648H180.292V186.774Z" fill="#C8D3FB"/>
<path d="M214.206 198.244H193.363V186.774H214.206V198.244ZM194.597 197.011H213.096V187.884H194.597V197.011Z" fill="#C8D3FB"/>
<path d="M148.471 89.5916H127.629V78.1221H148.471V89.5916ZM128.739 88.4816H147.238V79.3554H128.739V88.4816Z" fill="#C8D3FB"/>
<path d="M111.719 216.003H90.877V204.534H111.719V216.003ZM91.9869 214.77H110.486V205.644H91.9869V214.77Z" fill="#C8D3FB"/>
<path d="M131.452 216.003H110.609V204.534H131.452V216.003ZM111.719 214.77H130.219V205.644H111.719V214.77Z" fill="#C8D3FB"/>
<path d="M121.585 226.24H100.742V214.77H121.585V226.24ZM101.852 225.006H120.351V215.88H101.852V225.006Z" fill="#C8D3FB"/>
<path d="M81.5029 150.146H60.5371V138.676H81.3796V150.146H81.5029ZM61.7704 149.036H80.2696V139.91H61.7704V149.036Z" fill="#C8D3FB"/>
<path d="M67.1963 160.382H46.2305V148.913H67.0729V160.382H67.1963ZM47.4638 159.272H65.963V150.146H47.4638V159.272Z" fill="#C8D3FB"/>
<path d="M46.6025 103.034H25.6367V91.5649H46.4792V103.034H46.6025ZM26.87 101.925H45.3692V92.7982H26.87V101.925Z" fill="#C8D3FB"/>
<path d="M66.2116 103.034H45.3691V91.5649H66.2116V103.034ZM46.6024 101.925H65.1017V92.7982H46.6024V101.925Z" fill="#C8D3FB"/>
<path d="M56.3444 113.271H35.502V101.924H56.3444V113.271ZM36.7352 112.161H55.2345V103.034H36.7352V112.161Z" fill="#C8D3FB"/>
<path d="M24.2801 240.175L131.699 239.929L131.329 39.397L23.9102 39.5203L24.2801 240.175Z" fill="url(#paint0_linear_3378_59072)"/>
<path d="M27.6113 31.874L89.7687 32.244V40.6303L58.32 40.7537L35.8743 40.877C28.3513 40.877 22.1849 47.29 22.1849 55.1831L22.4315 218.593C22.4315 226.486 28.5979 232.899 36.1209 232.899L90.0154 233.022V250.782L27.858 251.398C20.3349 251.398 14.1685 244.985 14.1685 237.092L13.9219 46.3034C13.9219 38.4104 19.965 31.874 27.6113 31.874Z" fill="#200036"/>
<path d="M19.4707 46.1801V236.969C19.4707 244.615 25.1438 250.782 32.1735 251.275C32.5435 251.275 32.7901 251.275 33.1601 251.275H128.616C133.549 251.275 137.496 247.082 137.496 242.025V41.1236C137.496 35.9439 133.549 31.874 128.616 31.874H33.1601C32.7901 31.874 32.5435 31.874 32.1735 31.874C25.1438 32.3673 19.4707 38.5337 19.4707 46.1801ZM27.7337 50.1266C27.7337 44.9468 31.6802 40.877 36.6133 40.877H120.476C125.41 40.877 129.356 45.0701 129.356 50.1266V223.526C129.356 228.706 125.41 232.776 120.476 232.776H36.6133C31.6802 232.776 27.7337 228.583 27.7337 223.526V50.1266Z" fill="url(#paint1_linear_3378_59072)"/>
<path d="M67.324 246.341H90.1397C92.483 246.341 94.2096 244.368 94.2096 242.025C94.2096 239.682 92.3596 237.708 90.0164 237.708H67.2007C64.8575 237.708 63.1309 239.682 63.1309 242.025C63.2542 244.492 65.1041 246.465 67.324 246.341Z" fill="#200036"/>
<path d="M27.7324 53.3332H129.355V44.3302C129.355 42.2336 127.752 40.6304 125.778 40.6304H31.3089C29.3357 40.6304 27.7324 42.2336 27.7324 44.3302V53.3332Z" fill="#200036"/>
<path d="M108.02 49.0168C109.042 49.0168 109.87 48.1334 109.87 47.0436C109.87 45.9538 109.042 45.0703 108.02 45.0703C106.998 45.0703 106.17 45.9538 106.17 47.0436C106.17 48.1334 106.998 49.0168 108.02 49.0168Z" fill="white"/>
<path d="M115.297 49.0168C116.319 49.0168 117.147 48.1334 117.147 47.0436C117.147 45.9538 116.319 45.0703 115.297 45.0703C114.276 45.0703 113.447 45.9538 113.447 47.0436C113.447 48.1334 114.276 49.0168 115.297 49.0168Z" fill="#C8D3FB"/>
<path d="M122.448 49.0168C123.469 49.0168 124.298 48.1334 124.298 47.0436C124.298 45.9538 123.469 45.0703 122.448 45.0703C121.426 45.0703 120.598 45.9538 120.598 47.0436C120.598 48.1334 121.426 49.0168 122.448 49.0168Z" fill="#FFD700"/>
<path d="M36.6117 45.5638L35.7484 44.5771L34.3918 45.9338L33.0352 44.5771L32.1719 45.5638L33.4052 46.9204L32.1719 48.277L33.0352 49.2636L34.3918 47.907L35.7484 49.2636L36.6117 48.277L35.2551 46.9204L36.6117 45.5638Z" fill="white"/>
<path d="M90.7551 106.857H87.6719V146.569H90.7551V106.857Z" fill="black"/>
<path d="M73.7378 147.432H67.0781V232.899H73.7378V147.432Z" fill="#003535"/>
<path d="M105.309 123.63H98.526H98.4027H98.2794H51.7846H51.6613H51.538H44.7549C39.8218 123.63 35.752 128.07 35.752 133.62V141.39V161.739H60.6642H89.523H114.435V141.39V133.62C114.312 128.07 110.242 123.63 105.309 123.63Z" fill="url(#paint2_linear_3378_59072)"/>
<path d="M114.312 161.739H86.9336V133.62C86.9336 128.07 91.3734 123.63 96.9232 123.63H104.323C109.873 123.63 114.312 128.07 114.312 133.62V161.739Z" fill="url(#paint3_linear_3378_59072)"/>
<path d="M112.709 158.902H88.5371V134.113C88.5371 129.303 92.4836 125.356 97.2934 125.356H103.83C108.64 125.356 112.586 129.303 112.586 134.113V158.902H112.709Z" fill="url(#paint4_linear_3378_59072)"/>
<path d="M98.7717 106.857H87.5488V112.284H98.7717V106.857Z" fill="#017E7F"/>
<path d="M124.549 161.739H88.2902C87.5502 161.739 86.9336 161.122 86.9336 160.382C86.9336 159.642 87.5502 159.025 88.2902 159.025H124.549C125.289 159.025 125.905 159.642 125.905 160.382C126.029 161.122 125.412 161.739 124.549 161.739Z" fill="url(#paint5_linear_3378_59072)"/>
<g opacity="0.5">
<path d="M79.2863 129.92H47.221C46.6044 129.92 46.2344 129.427 46.2344 128.933C46.2344 128.317 46.7277 127.947 47.221 127.947H79.2863C79.903 127.947 80.273 128.44 80.273 128.933C80.273 129.427 79.7796 129.92 79.2863 129.92Z" fill="#E6F2F2"/>
</g>
<path d="M71.6396 149.406H73.8595C73.2428 150.762 72.1329 151.872 70.7763 152.612C69.173 153.475 67.1997 153.969 64.8565 153.969C62.6366 153.969 60.6633 153.599 59.0601 152.859C57.4568 152.119 56.2235 151.009 55.3602 149.529C54.4969 148.049 54.127 146.446 54.127 144.719C54.127 142.869 54.4969 141.019 55.4836 139.416C56.3469 137.813 57.5801 136.579 59.1834 135.716C60.7867 134.853 62.5133 134.483 64.4865 134.483C66.2131 134.483 67.6931 134.73 69.0497 135.47C70.4063 136.086 71.3929 137.073 72.1329 138.306C72.8728 139.539 73.2428 140.896 73.2428 142.253C73.2428 143.979 72.7495 145.582 71.6396 146.939C70.2829 148.666 68.5563 149.652 66.5831 149.652C65.9665 149.652 65.5965 149.529 65.3498 149.406C65.1032 149.159 64.8565 148.912 64.7332 148.542C63.9932 149.282 63.0066 149.776 62.02 149.776C60.91 149.776 59.9234 149.406 59.1834 148.666C58.4434 147.926 58.0735 146.816 58.0735 145.582C58.0735 143.979 58.4434 142.499 59.4301 141.266C60.54 139.663 61.8966 138.799 63.6232 138.799C64.8565 138.799 65.7198 139.293 66.3364 140.156L66.5831 139.046H69.2963L67.8164 146.322C67.6931 146.816 67.6931 147.062 67.6931 147.186C67.6931 147.309 67.6931 147.432 67.8164 147.556C67.9397 147.679 67.9397 147.679 68.063 147.679C68.433 147.679 68.803 147.432 69.2963 147.062C70.0363 146.569 70.5296 145.829 70.8996 144.966C71.2696 144.103 71.5162 143.239 71.5162 142.253C71.5162 140.526 70.8996 139.169 69.6663 138.059C68.433 136.949 66.7064 136.456 64.6098 136.456C62.7599 136.456 61.28 136.826 59.9234 137.566C58.6901 138.306 57.7035 139.416 57.0868 140.773C56.4702 142.129 56.1002 143.609 56.1002 144.966C56.1002 146.446 56.4702 147.679 57.2102 148.912C57.9501 150.022 58.9368 150.886 60.2934 151.502C61.65 151.996 63.1299 152.242 64.7332 152.242C66.3364 152.242 67.6931 151.996 68.9263 151.502C69.913 151.009 70.8996 150.269 71.6396 149.406ZM60.54 145.336C60.54 146.199 60.7867 146.816 61.0333 147.186C61.4033 147.556 61.7733 147.802 62.3899 147.802C62.7599 147.802 63.1299 147.679 63.4999 147.556C63.7465 147.432 63.9932 147.186 64.2399 146.939C64.6098 146.569 64.8565 145.952 65.1032 145.089C65.3498 144.349 65.4731 143.609 65.4731 142.869C65.4731 142.129 65.2265 141.513 64.9798 141.143C64.6098 140.773 64.1165 140.526 63.6232 140.526C63.0066 140.526 62.5133 140.773 62.02 141.266C61.5266 141.759 61.1567 142.376 60.91 143.239C60.6633 143.979 60.54 144.719 60.54 145.336Z" fill="#E6F2F2"/>
<g clip-path="url(#clip0_3378_59072)">
<path d="M172.154 232.145L139.959 216.24C139.53 215.973 139.376 215.558 139.643 215.129L150.165 194.042C150.431 193.613 150.847 193.459 151.276 193.725L183.331 209.635C183.76 209.901 183.913 210.317 183.647 210.746L173.125 231.833C172.994 232.117 172.579 232.271 172.154 232.145Z" fill="#6B5A00"/>
<path d="M158.841 215.06C159.298 216.166 160.436 216.689 161.827 216.363L183.092 210.903C183.787 210.74 183.895 209.755 183.326 209.493L151.271 193.584C150.702 193.322 150.025 194.045 150.323 194.596L158.841 215.06Z" fill="url(#paint6_linear_3378_59072)"/>
<path d="M154.914 210.702C155.33 210.549 155.596 210.12 155.442 209.704L149.976 196.849C149.678 196.298 148.978 196.321 148.576 196.895L140.427 213.419C140.166 213.988 140.609 214.674 141.304 214.511L154.914 210.702Z" fill="url(#paint7_linear_3378_59072)"/>
<path d="M172.271 231.438L166.474 217.052C166.32 216.637 165.751 216.375 165.336 216.529L161.863 217.483C161.028 217.651 160.183 217.538 159.474 217.281C158.76 216.884 158.182 216.342 157.874 215.511L156.644 212.188C156.491 211.773 155.922 211.511 155.506 211.665L140.78 215.65C140.64 215.655 140.64 215.655 140.5 215.659C140.36 215.664 140.225 215.809 140.229 215.949C140.234 216.089 140.239 216.229 140.379 216.224L172.149 232.003C172.289 231.998 172.429 231.994 172.569 231.989C172.704 231.845 172.7 231.705 172.555 231.569C172.415 231.574 172.411 231.434 172.271 231.438Z" fill="url(#paint8_linear_3378_59072)"/>
<path d="M181.457 212.358L168.113 215.738C167.698 215.892 167.431 216.321 167.585 216.737L172.776 229.741C173.074 230.292 173.779 230.409 174.176 229.695L182.329 213.311C182.595 212.882 182.157 212.336 181.457 212.358Z" fill="url(#paint9_linear_3378_59072)"/>
<path d="M172.016 135.943C173.671 128.181 178.379 122.964 179.906 121.691C182.451 119.528 189.577 119.783 192.376 125.636C195.303 131.489 196.321 135.179 195.557 145.741C194.794 156.43 185.886 192.695 185.886 200.712C185.886 208.729 169.344 207.838 170.108 196.386C171.126 185.061 170.108 144.978 172.016 135.943Z" fill="#4D0180"/>
<path d="M195.814 138.233C195.687 132.889 194.542 129.835 192.378 125.636C190.724 122.327 187.797 120.8 185.125 120.546C184.998 120.546 184.744 120.546 184.616 120.546C184.489 120.546 184.362 120.546 184.107 120.546C183.726 120.546 183.217 120.546 182.835 120.673C182.326 120.8 181.817 120.928 181.308 121.055C181.053 121.182 180.799 121.182 180.672 121.309C180.544 121.309 180.417 121.437 180.417 121.437C180.163 121.564 180.035 121.691 179.908 121.818C179.781 121.946 179.654 121.946 179.526 122.073C179.399 122.073 179.399 122.2 179.272 122.327C179.272 122.327 179.272 122.327 179.145 122.455L179.017 122.582C179.017 122.582 179.017 122.582 178.89 122.709L178.763 122.836C178.763 122.836 178.763 122.836 178.636 122.964C178.508 123.218 178.254 123.345 178.127 123.6C178.127 123.6 178.127 123.727 177.999 123.727C177.872 123.854 177.872 123.854 177.745 123.982L177.618 124.109C177.49 124.236 177.49 124.236 177.363 124.363C177.363 124.363 177.363 124.491 177.236 124.491C176.981 124.745 176.854 125 176.6 125.381C176.6 125.381 176.6 125.509 176.472 125.509C176.345 125.636 176.345 125.763 176.218 125.89L176.091 126.018C175.963 126.145 175.963 126.272 175.836 126.399C175.836 126.399 175.836 126.527 175.709 126.527C175.454 126.908 175.2 127.29 175.073 127.672C175.073 127.672 175.073 127.799 174.945 127.799C174.818 127.926 174.818 128.054 174.691 128.181C174.691 128.308 174.564 128.308 174.564 128.435C174.436 128.563 174.436 128.69 174.309 128.817L174.182 128.944C174.055 129.199 173.927 129.326 173.8 129.58C173.673 129.835 173.546 129.962 173.546 130.217C173.546 130.344 173.546 130.344 173.418 130.471C173.291 130.598 173.291 130.853 173.164 130.98C173.164 131.107 173.037 131.107 173.037 131.235C173.546 131.235 173.546 131.362 173.418 131.616C173.418 131.744 173.418 131.744 173.291 131.871C173.164 132.125 173.164 132.38 173.037 132.634C172.909 132.889 172.909 133.143 172.782 133.398C172.782 133.525 172.782 133.525 172.655 133.652C172.655 133.78 172.528 134.034 172.528 134.161C172.528 134.289 172.528 134.289 172.4 134.416C172.4 134.543 172.273 134.798 172.273 134.925C172.273 135.052 172.273 135.052 172.146 135.179C172.019 135.434 172.019 135.688 171.892 135.943C171.892 136.07 171.764 136.197 171.764 136.452V136.579C171.764 136.706 171.764 136.834 171.764 136.961C171.764 137.088 171.764 137.088 171.764 137.215C171.764 137.343 171.764 137.47 171.764 137.597C171.764 137.724 171.764 137.724 171.764 137.852C171.764 137.979 171.764 138.106 171.764 138.233C171.764 138.361 171.764 138.361 171.764 138.488C171.764 138.615 171.764 138.87 171.764 138.997V139.124C171.764 139.633 171.637 140.142 171.637 140.651V140.778C171.637 141.033 171.637 141.287 171.637 141.415C171.637 141.542 171.637 141.542 171.637 141.669C171.637 141.924 171.637 142.178 171.637 142.305C171.637 142.433 171.637 142.433 171.637 142.56C171.637 142.814 171.637 143.069 171.637 143.323V143.45C171.637 143.705 171.637 144.087 171.637 144.341C171.637 145.359 171.51 146.504 171.51 147.65C171.51 147.65 171.51 147.65 171.51 147.777C171.51 148.159 171.51 148.54 171.51 148.795C171.51 148.795 171.51 148.795 171.51 148.922C171.51 149.304 171.51 149.686 171.51 150.067C178.508 155.157 190.724 155.03 190.342 158.593C190.215 160.247 184.998 194.731 184.362 196.131C184.235 196.258 185.253 201.221 186.398 201.221C186.398 200.966 186.398 200.839 186.398 200.585C186.398 192.695 194.923 157.448 195.941 146.123C195.941 145.995 195.941 145.741 195.941 145.614C196.069 143.959 196.196 142.433 196.196 141.16C195.814 140.142 195.814 139.251 195.814 138.233Z" fill="#200036"/>
<path d="M210.32 136.198C207.266 128.308 201.794 123.091 200.013 121.691C197.086 119.528 189.96 119.528 188.179 125.381C186.397 131.235 185.888 134.798 188.561 145.487C191.233 156.175 201.285 192.696 202.685 200.712C204.085 208.729 219.1 202.366 217.319 190.66C215.41 177.808 213.883 145.232 210.32 136.198Z" fill="#4D0180"/>
<path d="M193.904 151.976C197.594 151.34 203.447 150.449 204.72 150.831C207.519 151.722 209.682 154.139 209.682 157.193C209.682 160.629 215.154 194.222 215.154 194.35C215.663 193.841 216.554 193.205 217.317 192.314C217.317 191.805 217.317 191.296 217.19 190.787C215.281 177.808 213.754 145.232 210.191 136.198C207.392 129.072 202.684 124.109 200.393 122.2C200.139 121.946 200.011 121.819 199.757 121.691C196.83 119.528 189.704 119.528 187.923 125.381C186.141 131.235 185.632 134.798 188.305 145.487C188.432 145.996 189.068 147.777 189.577 149.431C190.341 151.213 192.122 152.231 193.904 151.976Z" fill="#200036"/>
<path d="M196.831 53.868C196.067 59.2124 202.684 61.3757 202.684 61.3757C203.193 57.431 207.647 55.1405 209.174 50.3051C210.701 45.3424 207.647 39.998 200.648 40.1253C196.322 40.2525 197.467 48.5236 196.831 53.868Z" fill="#200036"/>
<path d="M185.379 69.5197C181.689 70.7921 170.237 79.3177 161.457 88.3523L159.421 90.8973C158.275 92.297 157.385 93.5695 157.003 94.4602C154.712 99.9319 162.856 102.477 163.365 102.222C171.891 99.0411 190.978 81.9899 192.759 79.445C197.086 73.2098 191.36 67.3564 185.379 69.5197Z" fill="#713499"/>
<path d="M202.557 69.0108C206.375 69.5198 213.119 71.174 215.282 74.7369C217.318 78.2999 215.791 112.53 213.246 134.925C213.246 134.925 182.07 148.032 171.127 133.907C171.127 133.907 178.889 76.2639 183.215 70.9195C186.778 66.5931 198.74 68.5018 202.557 69.0108Z" fill="url(#paint10_linear_3378_59072)"/>
<path d="M203.321 69.1377C203.321 69.1377 190.214 87.4614 188.688 88.8611C188.688 88.8611 189.196 73.2096 189.451 68.5015L203.321 69.1377Z" fill="#F4F6FA"/>
<path d="M200.904 61.3759C201.031 60.7396 201.158 60.2306 201.158 60.2306C201.158 60.2306 193.65 54.25 192.76 60.3579L200.904 61.3759Z" fill="url(#paint11_linear_3378_59072)"/>
<path d="M192.886 72.9551L190.596 68.6287C190.596 68.6287 192.886 67.1017 192.632 62.9026C191.868 52.85 201.157 60.2304 201.157 60.2304C201.157 60.2304 199.503 68.6287 202.557 69.0105L192.886 72.9551Z" fill="#FFD2A7"/>
<path d="M192.886 70.9193C198.103 71.5555 197.849 65.0659 198.103 63.7934C198.358 62.6482 201.157 60.2305 201.157 60.2305C201.157 60.2305 199.503 68.6288 202.557 69.0106L192.886 72.9552L191.486 70.4103C191.868 70.6648 192.377 70.9193 192.886 70.9193Z" fill="#FFBC8E"/>
<path d="M216.173 79.6992H211.083L211.973 100.186C211.973 100.186 211.846 139.76 177.871 138.869C191.487 144.214 213.246 134.925 213.246 134.925C214.391 124.236 216.554 107.185 216.173 79.6992Z" fill="#4D0180"/>
<path d="M190.086 45.8516L187.541 57.4311C187.032 60.8668 190.723 64.3025 194.413 64.6842C198.103 65.1932 201.411 62.7755 201.92 59.2126V58.9581C201.92 58.9581 205.738 59.2126 206.247 55.3951C206.756 51.5777 204.084 52.7229 204.084 52.7229V51.196C204.338 49.2873 202.938 47.5058 201.157 47.2513L190.086 45.8516Z" fill="#FFD2A7"/>
<path d="M203.958 52.8502L204.212 51.0687C204.467 49.2872 203.194 47.633 201.413 47.3785L199.504 47.124V47.2513L197.723 60.485C197.468 62.7755 194.923 64.3025 192.633 63.9207C191.997 63.7935 190.597 63.1572 190.088 62.7755C191.615 64.048 193.015 64.557 194.414 64.6842C198.105 65.1932 201.413 62.7755 201.922 59.2126V58.9581C201.922 58.9581 205.739 59.2126 206.248 55.3951C206.63 51.5777 203.958 52.8502 203.958 52.8502Z" fill="#FFBC8E"/>
<path d="M191.74 67.3564C191.486 70.0286 192.886 72.9553 192.886 72.9553C192.886 72.9553 191.359 72.0646 189.704 73.7188C189.068 74.4823 188.305 74.4823 188.305 74.4823C188.305 74.4823 188.305 72.3191 189.323 68.2472L191.74 67.3564Z" fill="#C8B0D8"/>
<path d="M200.901 67.1021C199.247 69.7743 192.885 72.9554 192.885 72.9554C192.885 72.9554 194.793 72.5737 196.702 75.1187C197.466 76.1366 198.738 76.5184 198.738 76.5184C198.738 76.5184 202.81 73.4644 203.319 69.138L200.901 67.1021Z" fill="#C8B0D8"/>
<path d="M199.757 45.9788C199.757 45.9788 196.83 48.9055 192.122 47.7602C187.414 46.615 186.65 49.16 186.65 49.16C186.65 49.16 185.505 40.1254 191.995 37.8349C198.484 35.5444 201.793 40.2526 201.793 40.2526L199.757 45.9788Z" fill="#200036"/>
<path d="M165.911 94.4599C160.185 88.2247 134.227 72.1915 132.318 67.6106C130.409 63.0297 121.502 69.9011 126.719 72.955C131.936 76.1362 147.333 94.5871 154.204 99.8043C164.512 107.694 167.438 96.1141 165.911 94.4599Z" fill="#FFD2A7"/>
<path d="M159.422 88.7339C159.422 88.7339 159.167 96.1143 152.678 99.9317C152.678 99.9317 157.513 104.258 161.712 103.113C165.912 101.968 167.311 97.1322 167.057 95.0963C166.675 93.0603 161.076 89.3701 159.422 88.7339Z" fill="#713499"/>
<path d="M183.469 100.059C185.632 97.1326 187.923 95.2239 194.921 88.8615C195.176 88.607 195.43 88.2253 195.685 87.9708C200.775 82.6264 204.719 75.1188 205.737 74.228C209.555 70.7924 220.116 72.3193 216.553 82.7536C213.245 92.17 199.375 106.549 192.376 108.076C189.704 108.585 186.523 107.567 184.869 105.277C184.36 104.004 182.96 100.823 183.469 100.059Z" fill="#713499"/>
<path d="M224.062 245.885C220.245 244.485 219.227 238.632 218.845 235.196L213.246 237.232C213.246 237.232 215.409 243.213 214.646 247.285C213.755 251.357 215.028 250.975 215.028 250.975H232.333C232.206 250.848 228.007 247.158 224.062 245.885Z" fill="#FFD2A7"/>
<path d="M232.586 251.357H215.026C215.026 251.357 214.39 251.611 214.135 250.212C214.008 249.575 213.881 249.575 214.135 247.794C214.135 247.412 214.262 247.158 214.262 246.776C215.917 246.903 218.462 245.631 218.462 245.631C219.225 243.722 221.77 242.831 222.406 243.849C223.424 245.631 225.588 246.012 227.114 246.521C230.423 247.667 231.186 248.939 232.077 250.212C232.459 250.848 232.586 251.357 232.586 251.357Z" fill="#200036"/>
<path d="M232.588 251.357H215.027C215.027 251.357 214.391 251.611 214.137 250.211H231.951C232.46 250.848 232.588 251.357 232.588 251.357Z" fill="#1C0A76"/>
<path d="M216.301 189.132C221.391 193.331 219.101 223.107 221.646 242.831C221.646 242.831 215.792 244.103 212.229 242.576C212.229 242.576 202.559 207.71 202.559 199.567C202.559 185.442 210.957 184.679 216.301 189.132Z" fill="#4D0180"/>
<path d="M167.946 246.267C171.763 244.994 170.109 238.759 170.49 235.323L176.089 237.359C176.089 237.359 176.598 243.594 177.362 247.666C178.253 251.738 176.98 251.356 176.98 251.356L159.42 251.229C159.42 251.229 164.001 247.539 167.946 246.267Z" fill="#FFD2A7"/>
<path d="M167.945 246.267C169.09 245.885 169.345 245.121 170.108 243.976C170.617 243.213 171.89 244.612 172.653 246.139C172.653 246.139 175.707 247.412 177.362 246.903C177.362 247.157 177.489 247.412 177.489 247.666C178.38 251.738 177.107 251.357 177.107 251.357L159.547 251.229C160.31 247.794 164.128 247.412 167.945 246.267Z" fill="#200036"/>
<path d="M177.616 250.338C177.489 251.611 176.98 251.356 176.98 251.356L159.42 251.229C159.42 251.229 159.547 250.847 159.802 250.211L177.616 250.338Z" fill="#1C0A76"/>
<path d="M171.255 195.367C167.947 198.93 169.983 223.744 169.092 241.558C169.092 241.558 174.945 243.34 178.381 241.813C178.381 241.813 187.67 207.456 185.761 200.33C183.089 190.659 175.709 190.532 171.255 195.367Z" fill="#4D0180"/>
<path d="M185.761 200.203C185.379 198.676 184.743 197.531 184.234 196.386C184.234 196.895 177.744 227.18 176.98 242.068C177.362 242.068 177.617 241.94 177.871 241.813C177.998 241.813 178.253 241.686 178.38 241.559C178.38 241.559 181.307 230.361 183.725 218.909C185.506 211.019 186.651 203.257 185.761 200.203Z" fill="#1C0A76"/>
<path d="M216.3 189.132C215.663 188.623 214.9 188.114 214.264 187.732C214.9 190.405 217.572 201.73 217.445 209.874C217.19 218.908 218.972 240.286 219.735 243.212C220.881 243.085 221.644 242.831 221.644 242.831C219.099 223.107 221.39 193.331 216.3 189.132Z" fill="#1C0A76"/>
<path d="M169.752 68.1894L143.831 116.605C143.402 117.248 142.76 117.462 142.117 117.033L110.411 99.8952C109.768 99.4667 109.554 98.824 109.983 98.1813L135.904 49.98C136.333 49.3373 136.975 49.1231 137.618 49.5515L169.324 66.6898C169.752 66.904 169.967 67.5467 169.752 68.1894Z" fill="#6B5A00"/>
<path d="M142.973 87.6841C144.687 87.0414 145.544 85.3276 145.115 83.1853L137.831 50.4084C137.617 49.3372 136.118 49.123 135.689 49.9799L109.767 98.1813C109.339 99.0382 110.41 100.109 111.267 99.6809L142.973 87.6841Z" fill="url(#paint12_linear_3378_59072)"/>
<path d="M136.116 93.4683C135.902 92.8256 135.259 92.3972 134.617 92.6114L114.693 100.324C113.837 100.752 113.837 101.823 114.693 102.466L139.544 115.748C140.401 116.177 141.472 115.534 141.258 114.463L136.116 93.4683Z" fill="url(#paint13_linear_3378_59072)"/>
<path d="M168.679 67.9754L146.4 76.116C145.757 76.3303 145.329 77.1872 145.543 77.8299L146.828 83.1856C147.042 84.4709 146.828 85.7563 146.4 86.8274C145.757 87.8986 144.9 88.7555 143.615 89.184L138.473 90.8978C137.831 91.112 137.402 91.9689 137.616 92.6116L142.972 115.32C142.972 115.534 142.972 115.534 142.972 115.748C142.972 115.962 143.186 116.177 143.4 116.177C143.615 116.177 143.829 116.177 143.829 115.962L169.536 68.1896C169.536 67.9754 169.536 67.7611 169.536 67.5469C169.322 67.3327 169.108 67.3327 168.894 67.5469C168.894 67.7611 168.679 67.7611 168.679 67.9754Z" fill="url(#paint14_linear_3378_59072)"/>
<path d="M139.975 52.9792L144.473 73.5451C144.688 74.1877 145.33 74.6162 145.973 74.402L166.11 67.1182C166.967 66.6898 167.182 65.6186 166.11 64.9759L141.474 51.6938C140.832 51.2653 139.975 51.908 139.975 52.9792Z" fill="url(#paint15_linear_3378_59072)"/>
<path d="M152.511 86.8459C154.547 86.3369 156.456 85.8279 154.929 86.0824C153.02 86.3369 151.748 84.3009 153.657 84.0464C156.074 83.6647 158.746 83.0284 161.164 83.4102C163.836 83.7919 167.527 88.8818 169.817 89.8998C170.708 90.2816 168.417 94.608 167.527 94.608C164.727 94.7352 162.309 92.3175 161.928 92.3175C160.655 92.572 160.019 92.9538 159.001 93.3355C157.601 93.8445 155.693 92.1903 157.092 91.554C157.983 91.1723 157.728 90.7906 156.456 91.2995C154.802 91.8085 152.893 89.8998 154.547 89.3908C155.311 89.1363 155.438 88.8818 154.42 89.1363C152.511 89.6453 150.603 87.3549 152.511 86.8459Z" fill="#FFD2A7"/>
<path d="M197.433 97.2807C190.943 93.845 169.311 90.2821 166.257 86.9736C164.094 84.6832 162.821 93.5905 164.985 93.9723C170.074 94.7358 186.362 105.043 193.234 107.842C198.96 110.26 201.759 99.6984 197.433 97.2807Z" fill="#FFD2A7"/>
</g>
<path d="M247.606 163.016C247.571 162.839 247.357 162.696 247.18 162.696C243.055 162.767 237.864 162.767 234.38 165.327C231.109 167.71 230.646 171.905 230.717 175.639C230.717 176.03 231.18 176.136 231.429 175.994C231.429 175.994 231.464 175.994 231.464 176.03C240.14 179.265 248.851 172.119 247.606 163.016Z" fill="#349899"/>
<path d="M227.587 179.905C227.623 177.025 226.947 174.109 224.743 172.118C222.218 169.843 218.556 168.527 215.534 166.963C215.214 166.821 214.751 167.069 214.894 167.461C216.245 170.909 216.067 175.105 218.449 178.127C220.476 180.687 223.925 181.541 226.983 180.581C227.125 180.545 227.231 180.438 227.267 180.296C227.445 180.261 227.587 180.118 227.587 179.905Z" fill="#349899"/>
<path d="M254.324 189.291C252.298 187.727 249.667 187.869 247.213 187.976C244.476 188.083 241.738 188.509 239.249 189.683C234.911 191.745 231.889 196.296 233.453 201.096C233.418 201.309 233.489 201.523 233.738 201.594C237.862 202.909 239.853 200.136 242.342 197.398C245.507 193.878 249.596 191.389 254.111 190.003C254.396 189.931 254.573 189.505 254.324 189.291Z" fill="#349899"/>
<path d="M264.174 199.567C264.138 199.567 264.067 199.532 264.031 199.496C262.289 198.75 260.725 197.327 259.125 195.941C259.125 195.941 259.125 195.941 259.089 195.905C257.347 194.412 255.569 192.954 253.507 192.599C253.471 192.599 253.471 192.599 253.471 192.599C252.511 192.421 251.516 192.492 250.378 192.847C245.969 194.305 243.231 198.927 242.805 203.336C242.805 203.443 242.84 203.514 242.876 203.585C242.876 203.621 242.84 203.621 242.84 203.656C242.769 203.905 242.911 204.225 243.231 204.261C247 204.723 250.734 204.261 254.431 203.479C257.702 202.803 261.436 202.234 264.28 200.314C264.636 200.136 264.529 199.71 264.174 199.567Z" fill="#349899"/>
<path d="M257.597 208.029C252.761 207.069 242.77 204.616 242.094 212.296C242.059 212.545 242.237 212.687 242.414 212.687C246.788 217.843 255.321 213.754 257.846 208.634C257.988 208.421 257.917 208.101 257.597 208.029Z" fill="#349899"/>
<path d="M227.019 192.527C225.739 189.683 222.753 186.767 219.837 185.7C219.553 185.594 219.268 185.843 219.268 186.127C219.304 191.709 217.953 200.527 224.033 203.585C224.068 203.62 224.104 203.62 224.175 203.62C224.353 203.869 224.744 203.94 224.922 203.62C226.771 200.278 228.726 196.367 227.019 192.527Z" fill="#349899"/>
<path d="M211.161 196.083C208.175 193.665 203.517 193.131 200.032 194.874C195.232 197.291 196.086 203.087 195.375 207.531C195.303 207.958 195.766 208.278 196.121 207.958C200.85 203.798 207.463 202.163 211.055 196.723C211.303 196.616 211.446 196.296 211.161 196.083Z" fill="#349899"/>
<path d="M211.196 200.492C211.053 200.278 210.84 200.243 210.662 200.35C210.556 200.207 210.342 200.101 210.129 200.243C207.747 201.558 204.973 203.372 204.511 206.216C203.942 209.63 205.862 212.972 206.111 216.35C206.147 216.812 206.858 216.99 206.964 216.456C207.569 213.221 210.911 211.727 212.156 208.812C213.151 206.43 212.618 202.661 211.196 200.492Z" fill="#349899"/>
<path d="M225.846 220.367C223.073 216.456 220.193 213.114 215.357 211.869C215.002 211.798 214.646 212.189 214.859 212.509C215.962 214.145 215.926 215.994 216.85 217.665C217.384 218.66 218.273 219.372 219.197 219.976C221.259 221.292 223.926 222.465 226.237 221.149C226.699 220.865 226.308 220.189 225.846 220.367Z" fill="#349899"/>
<path d="M232.138 215.746C232.138 215.71 232.102 215.674 232.102 215.603C230.182 212.546 230.111 208.67 227.444 206.039C227.231 205.826 226.911 205.897 226.769 206.146C225.489 208.208 224.849 210.732 225.88 213.043C226.982 215.568 229.329 216.243 231.889 216.528C232.316 216.563 232.387 215.994 232.138 215.746Z" fill="#349899"/>
<path d="M237.507 181.577C236.974 181.115 236.227 181.577 235.694 181.79C234.663 182.217 233.703 182.715 232.814 183.39C231.143 184.635 230.005 186.377 229.898 188.439C229.898 188.475 229.898 188.546 229.898 188.581C229.898 188.652 229.898 188.688 229.898 188.759C229.898 189.257 230.574 189.328 230.752 188.937C232.885 188.475 234.556 187.123 235.943 185.452C236.547 184.706 238.787 182.643 237.507 181.577Z" fill="#349899"/>
<path d="M238.468 216.101C238.397 216.029 238.362 215.958 238.291 215.887C238.824 212.154 239.073 207.816 235.375 205.612C235.126 205.469 234.806 205.612 234.735 205.861C233.739 209.807 234.877 213.861 237.864 216.669C238.255 217.096 238.859 216.492 238.468 216.101Z" fill="#349899"/>
<path d="M263.818 199.105C262.182 198.394 260.689 197.15 259.125 195.905C259.125 195.905 259.125 195.905 259.089 195.87C257.311 194.447 255.498 193.061 253.507 192.563C253.471 192.563 253.471 192.563 253.471 192.563C252.511 192.385 251.516 192.456 250.378 192.812C245.969 194.27 243.231 198.892 242.805 203.301C242.805 203.407 242.84 203.478 242.876 203.55C242.876 203.585 242.84 203.585 242.84 203.621C242.982 203.621 243.125 203.55 243.231 203.407C243.338 203.372 243.409 203.372 243.48 203.301C244.902 201.772 246.467 200.35 247.96 198.892C248.671 198.181 249.382 197.292 250.236 196.723C251.978 195.478 253.507 195.692 255.32 196.225C257.525 196.865 259.516 198.003 261.507 199.105C262.254 199.532 262.965 200.243 263.818 199.852C263.96 199.781 264.031 199.638 264.031 199.461C264.031 199.318 263.96 199.176 263.818 199.105Z" fill="#01595A"/>
<path d="M225.028 213.861C224.602 212.155 224.139 210.448 223.57 208.777C223.57 208.777 223.57 208.741 223.606 208.741C224.388 206.039 224.708 203.301 224.53 200.599C224.673 200.563 224.815 200.492 224.886 200.315C225.384 198.715 225.597 197.079 225.526 195.372C225.49 194.803 224.637 194.803 224.637 195.372C224.708 196.546 224.602 197.683 224.353 198.786C224.175 197.506 223.89 196.19 223.499 194.91C223.322 194.377 222.504 194.59 222.646 195.159C223.89 199.177 223.997 203.301 223.037 207.355C222.219 205.257 221.188 203.266 219.802 201.488C216.566 197.328 210.664 194.803 205.97 196.759C205.97 196.617 205.864 196.439 205.65 196.403C203.837 195.977 202.024 196.226 200.424 197.186C199.926 197.47 200.388 198.252 200.85 197.932C202.166 197.15 203.588 196.901 205.082 197.15C204.015 197.755 203.019 198.643 202.13 199.817C201.81 200.279 202.557 200.706 202.877 200.243C205.117 197.15 209.17 196.155 212.762 197.328C213.793 197.648 214.753 198.146 215.642 198.75C211.908 198.679 209.064 201.168 206.539 203.657C206.148 204.048 206.753 204.652 207.144 204.261C207.642 203.764 208.175 203.266 208.708 202.803C208.566 203.692 208.53 204.581 208.637 205.47C208.708 206.039 209.562 206.039 209.526 205.47C209.419 204.332 209.49 203.195 209.775 202.092C209.775 202.021 209.775 201.986 209.775 201.915C211.588 200.492 213.579 199.461 216.068 199.639C216.317 199.639 216.424 199.532 216.459 199.355C218.45 200.919 220.015 203.052 221.153 205.292C223.393 209.772 224.673 214.892 225.419 220.012C223.606 219.55 222.042 218.59 220.762 217.203C220.37 216.777 219.766 217.417 220.157 217.808C220.797 218.519 221.508 219.088 222.29 219.586C221.793 219.586 221.295 219.55 220.762 219.479C220.228 219.408 219.979 220.226 220.513 220.332C221.366 220.475 222.184 220.51 223.037 220.475C223.215 220.475 223.322 220.368 223.393 220.226C224.033 220.51 224.708 220.759 225.419 220.937C225.455 220.937 225.49 220.937 225.49 220.937C225.81 223.426 225.988 225.879 226.13 228.297C226.166 228.866 227.019 228.866 227.019 228.297C226.842 223.461 226.202 218.626 225.028 213.861Z" fill="#200036"/>
<path d="M239.569 195.87C238.786 196.439 238.04 197.043 237.293 197.683C237.72 196.119 238.36 194.696 239.32 193.345C239.64 192.883 238.893 192.456 238.573 192.919C237.435 194.554 236.653 196.332 236.262 198.288C236.226 198.43 236.262 198.536 236.333 198.608C234.377 200.528 232.706 202.696 231.355 205.079C231.106 202.056 230.929 199.034 230.786 196.012C230.68 193.879 230.502 191.461 230.466 188.972C231.462 187.621 232.564 186.27 234.129 185.523C234.626 185.274 234.2 184.528 233.702 184.776C232.351 185.416 231.355 186.448 230.466 187.585C230.466 186.412 230.466 185.239 230.537 184.101C230.609 183.994 230.609 183.852 230.573 183.71C231 177.523 232.884 171.692 238.786 168.954C239.284 168.705 238.857 167.959 238.36 168.208C236.866 168.883 235.622 169.772 234.591 170.803C234.555 169.95 234.662 169.132 234.982 168.314C235.195 167.781 234.342 167.568 234.129 168.065C233.666 169.203 233.595 170.376 233.773 171.585C233.773 171.621 233.773 171.621 233.809 171.621C231.284 174.643 230.253 178.625 229.862 182.821C228.582 181.363 227.337 179.87 226.057 178.412C226.164 178.341 226.271 178.234 226.271 178.056C226.2 176.812 225.809 175.674 225.097 174.679C224.777 174.216 224.031 174.643 224.351 175.105C224.884 175.852 225.204 176.67 225.346 177.559C224.884 177.025 224.386 176.456 223.924 175.923C223.569 175.496 222.929 176.101 223.32 176.528C225.489 179.052 227.657 181.541 229.826 184.065C229.72 185.594 229.72 187.123 229.755 188.652C229.72 188.688 229.72 188.688 229.684 188.723C229.542 188.936 229.613 189.114 229.755 189.221C229.791 190.679 229.826 192.136 229.897 193.488C230.182 200.456 230.715 207.425 231.462 214.394C229.897 213.505 229.009 211.87 228.226 210.305C227.977 209.808 227.231 210.234 227.48 210.732C228.369 212.545 229.4 214.43 231.32 215.319C231.391 215.354 231.497 215.354 231.569 215.354C232.066 219.799 232.671 224.279 233.382 228.688C233.453 229.256 234.306 229.008 234.235 228.439C233.097 221.15 232.209 213.825 231.604 206.501C231.675 206.465 231.746 206.43 231.817 206.323C233.809 202.448 236.617 199.176 240.173 196.616C240.457 196.296 240.031 195.514 239.569 195.87Z" fill="#200036"/>
<path d="M254.042 196.545C252.193 196.509 250.522 196.936 248.993 197.718C249.633 197.043 250.344 196.367 251.091 195.798C251.517 195.478 251.091 194.696 250.664 195.052C249.206 196.189 247.926 197.469 246.824 198.963C246.789 199.034 246.753 199.069 246.753 199.141C243.802 201.452 241.597 205.007 240.246 208.421C239.429 210.483 238.789 212.616 238.326 214.785C237.829 213.967 237.58 213.043 237.26 212.154C237.011 211.443 236.797 210.767 236.122 210.341C235.66 210.056 235.197 210.803 235.695 211.087C236.406 211.549 236.584 212.829 236.833 213.541C237.082 214.252 237.366 214.927 237.793 215.567C237.9 215.709 238.006 215.745 238.149 215.745C237.082 221.043 236.797 226.554 236.3 231.852C236.229 232.421 237.117 232.421 237.189 231.852C237.651 226.909 237.971 221.861 238.86 216.954C238.931 216.918 239.002 216.918 239.037 216.847C240.709 215.034 242.415 213.185 244.477 211.905C245.117 212.474 245.829 212.936 246.646 213.221C247.18 213.398 247.429 212.545 246.895 212.367C246.291 212.154 245.757 211.869 245.295 211.478C245.864 211.194 246.469 210.909 247.109 210.732C247.642 210.554 247.429 209.736 246.86 209.878C246.006 210.127 245.224 210.483 244.477 210.909C244.335 210.909 244.229 211.016 244.157 211.123C242.273 212.261 240.673 213.789 239.144 215.461C239.429 214.074 239.749 212.723 240.175 211.372C241.029 208.634 242.344 205.612 244.229 203.087H244.264C245.26 202.767 246.291 202.518 247.322 202.376C247.891 202.305 247.642 201.452 247.073 201.523C246.433 201.629 245.793 201.736 245.153 201.914C247.429 199.283 250.38 197.434 254.077 197.505C254.611 197.434 254.611 196.545 254.042 196.545Z" fill="#200036"/>
<path d="M246.752 223.853L246.041 228.19L244.797 235.941L242.059 252.901H222.148L219.446 235.941L218.166 228.19L217.49 223.853H246.752Z" fill="#FFE454"/>
<path opacity="0.08" d="M225.81 228.19L225.099 223.853H217.49L218.166 228.19L219.446 235.941L222.148 252.901H229.757L227.055 235.941L225.81 228.19Z" fill="black"/>
<path opacity="0.64" d="M239.749 251.515C239.713 251.515 239.713 251.515 239.678 251.515C239.18 251.479 238.789 251.195 238.825 250.875L242.238 225.097C242.273 224.777 242.736 224.528 243.233 224.563C243.731 224.599 244.122 224.883 244.087 225.203L240.673 250.981C240.638 251.266 240.211 251.515 239.749 251.515Z" fill="white"/>
<path d="M179.536 36.5241L145.153 46.8814C144.658 46.9798 144.262 46.7812 144.163 46.2858L137.456 23.6941C137.358 23.1987 137.556 22.8028 138.052 22.7043L172.336 12.446C172.831 12.3475 173.227 12.5461 173.326 13.0415L180.033 35.6333C180.132 35.9305 179.933 36.3265 179.536 36.5241Z" fill="#6B5A00"/>
<path d="M158.146 33.1288C159.235 33.6255 160.424 33.2307 161.218 32.0431L173.028 13.5355C173.425 12.9417 172.832 12.1486 172.237 12.346L137.953 22.6043C137.358 22.8017 137.357 23.7922 137.951 23.991L158.146 33.1288Z" fill="url(#paint16_linear_3378_59072)"/>
<path d="M152.302 32.6261C152.501 32.2301 152.402 31.7347 152.006 31.5361L139.236 25.8743C138.642 25.6755 138.146 26.1701 138.244 26.8636L143.571 44.5011C143.768 45.0957 144.56 45.2948 144.957 44.701L152.302 32.6261Z" fill="url(#paint17_linear_3378_59072)"/>
<path d="M179.14 35.9285L165.083 29.3736C164.687 29.175 164.093 29.3724 163.894 29.7684L162.008 32.8365C161.512 33.5293 160.818 34.0237 160.125 34.3199C159.332 34.517 158.54 34.5161 157.748 34.1189L154.58 32.5301C154.184 32.3315 153.59 32.5289 153.391 32.9248L145.352 45.8903C145.253 45.9893 145.253 45.9893 145.153 46.0882C145.054 46.1871 145.054 46.3852 145.153 46.4844C145.252 46.5836 145.351 46.6827 145.45 46.5838L179.437 36.4241C179.536 36.3252 179.635 36.2263 179.734 36.1273C179.735 35.9292 179.636 35.8301 179.438 35.8298C179.338 35.9287 179.239 35.8296 179.14 35.9285Z" fill="url(#paint18_linear_3378_59072)"/>
<path d="M172.827 15.7151L165.384 27.2947C165.185 27.6906 165.284 28.186 165.68 28.3846L178.351 34.3434C178.945 34.5422 179.54 34.1468 179.342 33.3541L174.115 15.8158C174.016 15.3204 173.323 15.2205 172.827 15.7151Z" fill="url(#paint19_linear_3378_59072)"/>
<g clip-path="url(#clip1_3378_59072)">
<path d="M68.922 117.094L37.2899 98.942C35.7062 97.997 35.1217 95.952 36.0667 94.3683L49.8494 70.3614L87.2969 91.8027L73.4957 115.871C72.5508 117.454 70.5242 117.978 68.922 117.094Z" fill="#8C7600"/>
<path d="M87.2968 91.8022L49.8493 70.3609L75.8803 65.2658C77.0067 65.0717 78.0952 65.667 78.4913 66.7876L87.2968 91.8022Z" fill="url(#paint20_linear_3378_59072)"/>
<path d="M64.4794 57.3932L45.6797 90.2173L72.2938 105.46L91.0935 72.6363L64.4794 57.3932Z" fill="white"/>
<path d="M54.4483 80.5585L76.4618 93.2059L76.7871 92.5699L54.7552 79.9837L54.4483 80.5585Z" fill="#AD8AC5"/>
<path d="M53.0978 82.8209L75.1909 95.4256L75.4978 94.8507L53.4843 82.2033L53.0978 82.8209Z" fill="#AD8AC5"/>
<path d="M51.8087 85.1016L73.9018 97.7063L74.2087 97.1315L52.1952 84.4841L51.8087 85.1016Z" fill="#AD8AC5"/>
<path d="M50.5381 87.3217L72.5516 99.9691L72.9381 99.3516L50.845 86.7469L50.5381 87.3217Z" fill="#AD8AC5"/>
<path d="M49.2501 89.6021L71.2821 102.188L71.6501 101.632L49.5755 88.9661L49.2501 89.6021Z" fill="url(#paint21_linear_3378_59072)"/>
<path d="M71.8197 118.77L34.3722 97.3284L87.2961 91.8032L71.8197 118.77Z" fill="url(#paint22_linear_3378_59072)"/>
<path d="M75.9477 92.918L72.7034 93.2742L71.5343 93.3887L68.29 93.7448L67.1209 93.8593L63.8766 94.2155L62.7075 94.3299L60.8528 94.5046L60.7916 94.4861L60.8343 94.5658L60.7731 94.5473L60.8159 94.6269L60.877 94.6454L60.9382 94.6639L62.8725 94.4465L64.0417 94.332L67.2859 93.9759L68.4551 93.8614L71.6993 93.5052L72.8685 93.3907L76.1127 93.0346L75.9477 92.918ZM85.6026 94.7628L87.3332 91.6808L87.2535 91.7235L87.1924 91.7051L79.6571 92.5687L76.6944 92.8763L76.0088 92.9365L72.7646 93.2926L71.5954 93.4071L68.3512 93.7633L67.182 93.8778L63.9378 94.2339L62.7686 94.3484L60.9139 94.5231L60.8528 94.5046L60.7916 94.4861L59.4816 94.6249L58.3125 94.7394L54.3827 95.1557L42.1893 96.4162L35.7804 97.0857L34.4704 97.2245L34.4092 97.2061L34.3481 97.1876L34.1888 97.273L39.8206 100.507L65.6559 115.308L71.7402 118.812L71.8014 118.831L71.8198 118.77L85.6026 94.7628ZM71.7771 118.69L69.4963 117.401L65.7356 115.266L39.9187 100.403L36.8367 98.6725L34.617 97.4022L35.8658 97.245L42.1339 96.5997L54.6089 95.2907L58.5387 94.8744L59.7079 94.7599L60.877 94.6454L60.9382 94.6639L60.9994 94.6823L62.9337 94.4649L64.1028 94.3504L67.3471 93.9943L68.5162 93.8798L71.7605 93.5237L72.9296 93.4092L76.1739 93.053L76.5963 92.9802L79.559 92.6726L87.137 91.8886L85.4802 94.7258L73.0843 116.348L71.7771 118.69ZM75.9477 92.918L72.7034 93.2742L71.5343 93.3887L68.29 93.7448L67.1209 93.8593L63.8766 94.2155L62.7075 94.3299L60.8528 94.5046L60.7916 94.4861L60.8343 94.5658L60.7731 94.5473L60.8159 94.6269L60.877 94.6454L60.9382 94.6639L62.8725 94.4465L64.0417 94.332L67.2859 93.9759L68.4551 93.8614L71.6993 93.5052L72.8685 93.3907L76.1127 93.0346L75.9477 92.918Z" fill="#8C7600"/>
<path d="M71.8194 118.768L34.3719 97.3271L49.8483 70.3605L71.8194 118.768Z" fill="url(#paint23_linear_3378_59072)"/>
<path d="M60.8531 94.503L60.0968 92.8065L59.6211 91.7286L58.2609 88.7154L58.0958 88.5989L59.456 91.6121L59.9317 92.69L60.7308 94.4661L60.7735 94.5457L60.8347 94.5641L60.8531 94.503ZM71.8998 118.725L71.8756 118.585L71.2775 117.47L68.2765 110.825L63.592 100.468L61.9327 96.8976L61.457 95.8197L60.9386 94.6622L60.8958 94.5826L60.8531 94.503L60.0968 92.8065L59.6211 91.7286L58.2609 88.7154L57.7667 87.6987L56.388 84.7466L55.9123 83.6687L54.5521 80.6555L54.4851 80.4351L53.0394 77.2626L49.9103 70.3787L49.8676 70.299L49.8249 70.2194L47.5543 74.2063L34.33 97.2471L34.3115 97.3083L39.821 100.505L65.6563 115.307L71.9241 118.866L71.8998 118.725ZM39.919 100.401L36.8371 98.6709L34.5135 97.3025L35.8207 94.9604L47.6582 74.3044L49.8122 70.4826L52.9841 77.4461L55.7472 83.5522L56.2229 84.6301L57.5832 87.6433L58.0589 88.7212L59.4191 91.7344L59.8948 92.8123L60.6939 94.5884L60.7366 94.668L60.7793 94.7477L61.255 95.8255L61.7308 96.9034L63.3288 100.456L68.1415 111.051L71.0998 117.616L71.6182 118.774L69.5151 117.339L65.7544 115.203L39.919 100.401ZM60.8531 94.503L60.0968 92.8065L59.6211 91.7286L58.2609 88.7154L58.0958 88.5989L59.456 91.6121L59.9317 92.69L60.7308 94.4661L60.7735 94.5457L60.8347 94.5641L60.8531 94.503Z" fill="#8C7600"/>
<path d="M75.206 81.881C74.5078 82.2043 73.663 82.3499 72.6104 82.2993C71.6189 82.2672 70.5363 81.8739 69.3439 81.1805C68.2554 80.5851 67.3631 79.782 66.6912 78.9119C66.0193 78.0418 65.6474 77.062 65.6368 75.991C65.6262 74.9199 65.94 73.88 66.5537 72.7303C67.1306 71.703 67.9153 70.8718 68.9262 70.1757C69.9186 69.5407 71.0208 69.2057 72.153 69.2136C73.2852 69.2214 74.3864 69.5536 75.4137 70.1305C76.3186 70.6705 77.0459 71.357 77.6139 72.129C78.1634 72.9622 78.4498 73.7828 78.4546 74.6519C78.4594 75.5209 78.2807 76.3347 77.8573 77.0746C77.4708 77.6921 76.9619 78.2728 76.3676 78.6941C75.7121 79.0971 75.0324 79.3592 74.3468 79.4194C73.802 79.4553 73.4165 79.4057 73.1903 79.2707C73.0864 79.1726 72.9825 79.0745 72.9582 78.9337C72.934 78.7929 72.9097 78.6521 73.0078 78.5482C73.0263 78.4871 73.3205 78.1754 73.8109 77.6559L77.3361 73.7138L76.1437 73.0204L75.3406 73.9127C75.3047 73.3679 75.1892 72.8659 74.9756 72.4677C74.762 72.0696 74.4503 71.7754 74.059 71.5238C73.5453 71.2354 72.9151 71.112 72.1684 71.1537C71.4217 71.1954 70.6623 71.5003 69.9087 72.0071C69.1552 72.5139 68.5667 73.1373 68.1617 73.816C67.8548 74.3909 67.6703 75.0026 67.6265 75.5901C67.5828 76.1775 67.6798 76.7408 67.9362 77.2185C68.1925 77.6963 68.5042 77.9905 68.8955 78.2421C69.2441 78.414 69.6723 78.5431 70.1374 78.55C70.6025 78.5568 71.1046 78.4413 71.5454 78.3073C71.392 78.5947 71.3366 78.7783 71.3424 78.9802C71.3483 79.1822 71.4152 79.4026 71.5434 79.6415C71.69 79.8192 71.8978 80.0154 72.2279 80.2485C73.1941 80.8069 74.3079 80.8759 75.6489 80.4128C77.1307 79.9255 78.2582 79.0642 78.9885 77.7495C79.5284 76.8445 79.7441 75.9085 79.7947 74.8559C79.821 73.6625 79.4676 72.6215 78.8938 71.6475C78.2588 70.6551 77.4092 69.9316 76.278 69.2566C74.8593 68.4282 73.4339 68.0649 72.0812 68.1241C70.7286 68.1832 69.3875 68.6463 68.1805 69.5503C67.1511 70.3076 66.348 71.1999 65.7527 72.2884C65.1942 73.2545 64.8805 74.2945 64.7688 75.3287C64.7124 76.1793 64.7968 77.0056 65.0832 77.8262C65.2599 78.3467 65.5162 78.8244 65.8337 79.3207C66.0046 79.6392 66.2551 79.915 66.5056 80.1908C67.2144 80.9385 68.0213 81.5824 69.0486 82.1592C70.1371 82.7546 71.1402 83.1906 72.0335 83.3267C72.3578 83.3578 72.6025 83.4316 72.8841 83.383C73.4716 83.4268 74.0775 83.4093 74.6592 83.2511C75.504 83.1055 76.1226 82.8249 76.6188 82.5074L75.206 81.881ZM72.772 76.6751C72.3369 77.011 71.9203 77.2858 71.5406 77.4382C71.0998 77.5722 70.7385 77.6635 70.3346 77.6751C70.0103 77.644 69.6859 77.6129 69.3985 77.4594C69.0072 77.2079 68.7752 76.871 68.7208 76.3874C68.6053 75.8853 68.7714 75.3348 69.0967 74.6988C69.3483 74.3075 69.5998 73.9161 70.0348 73.5802C70.4272 73.1646 70.8438 72.8898 71.2846 72.7559C71.6828 72.5423 72.1052 72.4695 72.4295 72.5006C72.7723 72.4705 73.0781 72.5628 73.3656 72.7162C73.818 72.9862 74.0501 73.3232 74.1656 73.8252C74.2811 74.3272 74.1762 74.8963 73.7897 75.5138C73.5382 75.9051 73.207 76.3391 72.772 76.6751Z" fill="#460174"/>
</g>
<defs>
<linearGradient id="paint0_linear_3378_59072" x1="131.662" y1="139.737" x2="23.8724" y2="139.737" gradientUnits="userSpaceOnUse">
<stop stop-color="white"/>
<stop offset="1" stop-color="#D3DBEB"/>
</linearGradient>
<linearGradient id="paint1_linear_3378_59072" x1="91.3556" y1="151.37" x2="-70.2338" y2="10.75" gradientUnits="userSpaceOnUse">
<stop stop-color="#B0D7D7"/>
<stop offset="1" stop-color="#AD8AC5"/>
</linearGradient>
<linearGradient id="paint2_linear_3378_59072" x1="35.7203" y1="142.699" x2="114.334" y2="142.699" gradientUnits="userSpaceOnUse">
<stop stop-color="#017374"/>
<stop offset="1" stop-color="#B0D7D7"/>
</linearGradient>
<linearGradient id="paint3_linear_3378_59072" x1="86.9109" y1="142.699" x2="114.334" y2="142.699" gradientUnits="userSpaceOnUse">
<stop stop-color="#349899"/>
<stop offset="1" stop-color="#349899"/>
</linearGradient>
<linearGradient id="paint4_linear_3378_59072" x1="100.775" y1="139.495" x2="100.623" y2="158.902" gradientUnits="userSpaceOnUse">
<stop stop-color="#003535"/>
<stop offset="1" stop-color="#009B9B"/>
</linearGradient>
<linearGradient id="paint5_linear_3378_59072" x1="86.9109" y1="160.354" x2="126" y2="160.354" gradientUnits="userSpaceOnUse">
<stop stop-color="#01595A"/>
<stop offset="1" stop-color="#8AC4C4"/>
</linearGradient>
<linearGradient id="paint6_linear_3378_59072" x1="147.641" y1="202.508" x2="182.754" y2="213.272" gradientUnits="userSpaceOnUse">
<stop stop-color="#E8C400"/>
<stop offset="1" stop-color="#FFE454"/>
</linearGradient>
<linearGradient id="paint7_linear_3378_59072" x1="143.086" y1="204.75" x2="155.932" y2="208.688" gradientUnits="userSpaceOnUse">
<stop stop-color="#FFE454"/>
<stop offset="1" stop-color="#E8C400"/>
</linearGradient>
<linearGradient id="paint8_linear_3378_59072" x1="140.498" y1="214.672" x2="174.546" y2="225.109" gradientUnits="userSpaceOnUse">
<stop stop-color="#E8C400"/>
<stop offset="1" stop-color="#FFE454"/>
</linearGradient>
<linearGradient id="paint9_linear_3378_59072" x1="167.03" y1="218.119" x2="179.704" y2="222.004" gradientUnits="userSpaceOnUse">
<stop stop-color="#FFE454"/>
<stop offset="1" stop-color="#B59900"/>
</linearGradient>
<linearGradient id="paint10_linear_3378_59072" x1="170.965" y1="104.386" x2="216.126" y2="104.386" gradientUnits="userSpaceOnUse">
<stop stop-color="#8855AA"/>
<stop offset="1" stop-color="#8855AA"/>
</linearGradient>
<linearGradient id="paint11_linear_3378_59072" x1="176.762" y1="56.761" x2="222.699" y2="62.6896" gradientUnits="userSpaceOnUse">
<stop offset="1.09e-06" stop-color="#FFD000"/>
<stop offset="1" stop-color="#FF7400"/>
</linearGradient>
<linearGradient id="paint12_linear_3378_59072" x1="123.227" y1="104.176" x2="141.436" y2="51.0425" gradientUnits="userSpaceOnUse">
<stop stop-color="#E8C400"/>
<stop offset="1" stop-color="#FFE454"/>
</linearGradient>
<linearGradient id="paint13_linear_3378_59072" x1="126.426" y1="111.25" x2="133.087" y2="91.8127" gradientUnits="userSpaceOnUse">
<stop stop-color="#FFE454"/>
<stop offset="1" stop-color="#E8C400"/>
</linearGradient>
<linearGradient id="paint14_linear_3378_59072" x1="141.462" y1="115.702" x2="159.119" y2="64.1807" gradientUnits="userSpaceOnUse">
<stop stop-color="#E8C400"/>
<stop offset="1" stop-color="#FFE454"/>
</linearGradient>
<linearGradient id="paint15_linear_3378_59072" x1="148.058" y1="75.3189" x2="154.63" y2="56.1412" gradientUnits="userSpaceOnUse">
<stop stop-color="#FFE454"/>
<stop offset="1" stop-color="#B59900"/>
</linearGradient>
<linearGradient id="paint16_linear_3378_59072" x1="141.393" y1="31.6032" x2="174.399" y2="15.497" gradientUnits="userSpaceOnUse">
<stop stop-color="#E8C400"/>
<stop offset="1" stop-color="#FFE454"/>
</linearGradient>
<linearGradient id="paint17_linear_3378_59072" x1="139.596" y1="36.3513" x2="151.67" y2="30.4593" gradientUnits="userSpaceOnUse">
<stop stop-color="#FFE454"/>
<stop offset="1" stop-color="#E8C400"/>
</linearGradient>
<linearGradient id="paint18_linear_3378_59072" x1="144.478" y1="45.3677" x2="176.482" y2="29.7501" gradientUnits="userSpaceOnUse">
<stop stop-color="#E8C400"/>
<stop offset="1" stop-color="#FFE454"/>
</linearGradient>
<linearGradient id="paint19_linear_3378_59072" x1="166.218" y1="29.7731" x2="178.131" y2="23.9598" gradientUnits="userSpaceOnUse">
<stop stop-color="#FFE454"/>
<stop offset="1" stop-color="#B59900"/>
</linearGradient>
<linearGradient id="paint20_linear_3378_59072" x1="50.2472" y1="68.9452" x2="90.4979" y2="81.0875" gradientUnits="userSpaceOnUse">
<stop stop-color="#E8C400"/>
<stop offset="1" stop-color="#FFE454"/>
</linearGradient>
<linearGradient id="paint21_linear_3378_59072" x1="48.5139" y1="92.0094" x2="72.362" y2="99.2035" gradientUnits="userSpaceOnUse">
<stop stop-color="#6A6AE8"/>
<stop offset="1" stop-color="#312890"/>
</linearGradient>
<linearGradient id="paint22_linear_3378_59072" x1="35.9477" y1="92.1239" x2="82.8958" y2="106.287" gradientUnits="userSpaceOnUse">
<stop stop-color="#E8C400"/>
<stop offset="1" stop-color="#FFE454"/>
</linearGradient>
<linearGradient id="paint23_linear_3378_59072" x1="37.3507" y1="87.4706" x2="77.6013" y2="99.6128" gradientUnits="userSpaceOnUse">
<stop stop-color="#E8C400"/>
<stop offset="1" stop-color="#FFE454"/>
</linearGradient>
<clipPath id="clip0_3378_59072">
<rect width="136.664" height="214.158" fill="white" transform="translate(105.627 37.1987)"/>
</clipPath>
<clipPath id="clip1_3378_59072">
<rect width="49.3285" height="56.7405" fill="white" transform="translate(47.752 52.3096) rotate(16.7868)"/>
</clipPath>
</defs>
</svg>
