<svg width="274" height="229" viewBox="0 0 274 229" fill="none" xmlns="http://www.w3.org/2000/svg">
<path d="M195.658 223.817H15.5586V225.184H195.658V223.817Z" fill="#AD8AC5"/>
<path d="M9.82323 113.585C3.20757 148.355 27.853 177.999 80.6931 177.799C133.533 177.571 100.001 220.912 144.124 223.618C188.247 226.323 209.741 199.242 204.29 139.1C198.781 78.9865 197.816 8.4507 106.9 30.7761C49.574 44.8434 16.0414 81.0083 9.82323 113.585Z" fill="url(#paint0_linear_3204_17301)"/>
<path d="M46.537 186.997C62.9199 183.011 95.118 179.65 105.425 194.971C115.732 210.319 105.482 215.929 86.9124 208.525C68.3715 201.121 23.9358 192.493 46.537 186.997Z" fill="url(#paint1_linear_3204_17301)"/>
<mask id="mask0_3204_17301" style="mask-type:luminance" maskUnits="userSpaceOnUse" x="8" y="26" width="198" height="198">
<path d="M9.82323 113.585C3.20757 148.355 27.853 177.999 80.6931 177.799C133.533 177.571 100.001 220.912 144.124 223.618C188.247 226.323 209.741 199.242 204.29 139.1C198.781 78.9865 197.816 8.4507 106.9 30.7761C49.574 44.8434 16.0414 81.0083 9.82323 113.585Z" fill="white"/>
</mask>
<g mask="url(#mask0_3204_17301)">
<path d="M61.5592 80.6951V73.3197H73.7683V38.0376H77.1187V73.3197H90.2649V80.6951H97.3064V228.544H46.5391V80.6951H61.5592Z" fill="#8AC4C4"/>
<path d="M46.5483 213.677H53.5898L53.5898 80.6925H46.5483L46.5483 213.677Z" fill="#B0D7D7"/>
<path d="M71.9397 228.523H122.707L122.707 115.9H71.9397L71.9397 228.523Z" fill="#8AC4C4"/>
<path d="M71.935 228.523H78.9766L78.9766 115.9H71.935L71.935 228.523Z" fill="#B0D7D7"/>
<path d="M108.324 123.737H115.621V120.69H108.324V123.737Z" fill="#B0D7D7"/>
<path d="M96.0584 123.737H103.355V120.69H96.0584V123.737Z" fill="#B0D7D7"/>
<path d="M108.324 134.771H115.621V131.753H108.324V134.771Z" fill="#B0D7D7"/>
<path d="M96.0584 134.771H103.355V131.753H96.0584V134.771Z" fill="#B0D7D7"/>
<path d="M83.7927 134.771H91.0898V131.753H83.7927V134.771Z" fill="#B0D7D7"/>
<path d="M108.324 145.834H115.621V142.787H108.324V145.834Z" fill="#B0D7D7"/>
<path d="M83.7927 145.834H91.0898V142.787H83.7927V145.834Z" fill="#B0D7D7"/>
<path d="M96.0584 151.352H103.355V148.333H96.0584V151.352Z" fill="#B0D7D7"/>
<path d="M108.324 156.868H115.621V153.85H108.324V156.868Z" fill="#B0D7D7"/>
<path d="M96.0584 162.386H103.355V159.339H96.0584V162.386Z" fill="#B0D7D7"/>
<path d="M108.324 167.902H115.621V164.855H108.324V167.902Z" fill="#B0D7D7"/>
<path d="M83.7927 167.902H91.0898V164.855H83.7927V167.902Z" fill="#B0D7D7"/>
<path d="M108.324 178.114H115.621V175.095H108.324V178.114Z" fill="#B0D7D7"/>
<path d="M96.0584 178.114H103.355V175.095H96.0584V178.114Z" fill="#B0D7D7"/>
<path d="M108.324 189.148H115.621V186.13H108.324V189.148Z" fill="#B0D7D7"/>
<path d="M96.0584 189.148H103.355V186.13H96.0584V189.148Z" fill="#B0D7D7"/>
<path d="M83.7927 189.148H91.0898V186.13H83.7927V189.148Z" fill="#B0D7D7"/>
<path d="M108.324 200.182H115.621V197.135H108.324V200.182Z" fill="#B0D7D7"/>
<path d="M83.7927 200.182H91.0898V197.135H83.7927V200.182Z" fill="#B0D7D7"/>
<path d="M96.0584 205.699H103.355V202.652H96.0584V205.699Z" fill="#B0D7D7"/>
<path d="M83.7927 205.699H91.0898V202.652H83.7927V205.699Z" fill="#B0D7D7"/>
<path d="M108.324 211.244H115.621V208.197H108.324V211.244Z" fill="#B0D7D7"/>
<path d="M96.0584 216.762H103.355V213.743H96.0584V216.762Z" fill="#B0D7D7"/>
<path d="M108.324 222.279H115.621V219.232H108.324V222.279Z" fill="#B0D7D7"/>
<path d="M83.7927 222.279H91.0898V219.232H83.7927V222.279Z" fill="#B0D7D7"/>
<path d="M193.397 228.524H244.164V115.9H193.397V228.524Z" fill="#8AC4C4"/>
<path d="M193.392 228.524H200.434V115.9H193.392V228.524Z" fill="#B0D7D7"/>
<path d="M121.279 228.544H189.395L189.395 62.3279H121.279L121.279 228.544Z" fill="#8AC4C4"/>
<path d="M121.275 228.544H128.316L128.316 62.3279H121.275L121.275 228.544Z" fill="#B0D7D7"/>
<path d="M171.591 74.7158H182.238V70.2735H171.591V74.7158Z" fill="#B0D7D7"/>
<path d="M153.685 74.7158H164.332V70.2735H153.685V74.7158Z" fill="#B0D7D7"/>
<path d="M171.591 90.8457H182.238V86.4034H171.591V90.8457Z" fill="#B0D7D7"/>
<path d="M153.685 90.8457H164.332V86.4034H153.685V90.8457Z" fill="#B0D7D7"/>
<path d="M135.751 90.8457H146.398V86.4034H135.751V90.8457Z" fill="#B0D7D7"/>
<path d="M171.591 106.976H182.238V102.534H171.591V106.976Z" fill="#B0D7D7"/>
<path d="M135.751 106.976H146.398V102.534H135.751V106.976Z" fill="#B0D7D7"/>
<path d="M153.685 115.041H164.332V110.598H153.685V115.041Z" fill="#B0D7D7"/>
<path d="M171.591 123.105H182.238V118.663H171.591V123.105Z" fill="#B0D7D7"/>
<path d="M153.685 131.169H164.332V126.727H153.685V131.169Z" fill="#B0D7D7"/>
<path d="M171.591 139.206H182.238V134.764H171.591V139.206Z" fill="#B0D7D7"/>
<path d="M135.751 139.206H146.398V134.764H135.751V139.206Z" fill="#B0D7D7"/>
<path d="M171.591 154.113H182.238V149.671H171.591V154.113Z" fill="#B0D7D7"/>
<path d="M153.685 154.113H164.332V149.671H153.685V154.113Z" fill="#B0D7D7"/>
<path d="M171.591 170.244H182.238V165.801H171.591V170.244Z" fill="#B0D7D7"/>
<path d="M153.685 170.244H164.332V165.801H153.685V170.244Z" fill="#B0D7D7"/>
<path d="M135.751 170.244H146.398V165.801H135.751V170.244Z" fill="#B0D7D7"/>
<path d="M171.591 186.372H182.238V181.929H171.591V186.372Z" fill="#B0D7D7"/>
<path d="M135.751 186.372H146.398V181.929H135.751V186.372Z" fill="#B0D7D7"/>
<path d="M153.685 194.437H164.332V189.995H153.685V194.437Z" fill="#B0D7D7"/>
<path d="M135.751 194.437H146.398V189.995H135.751V194.437Z" fill="#B0D7D7"/>
<path d="M171.591 202.502H182.238V198.06H171.591V202.502Z" fill="#B0D7D7"/>
<path d="M153.685 210.539H164.332V206.096H153.685V210.539Z" fill="#B0D7D7"/>
<path d="M171.591 218.604H182.238V214.161H171.591V218.604Z" fill="#B0D7D7"/>
<path d="M135.751 218.604H146.398V214.161H135.751V218.604Z" fill="#B0D7D7"/>
<path d="M12.6413 228.525H55.6289L55.6289 123.619H12.6413L12.6413 228.525Z" fill="#8AC4C4"/>
<path d="M12.6165 228.525H17.0742L17.0742 123.619H12.6165L12.6165 228.525Z" fill="#B0D7D7"/>
<path d="M44.3567 131.445H51.0859V128.655H44.3567V131.445Z" fill="#B0D7D7"/>
<path d="M33.0687 131.445H39.7695V128.655H33.0687V131.445Z" fill="#B0D7D7"/>
<path d="M44.3567 141.635H51.0859V138.844H44.3567V141.635Z" fill="#B0D7D7"/>
<path d="M33.0687 141.635H39.7695V138.844H33.0687V141.635Z" fill="#B0D7D7"/>
<path d="M21.7591 141.635H28.4883V138.844H21.7591V141.635Z" fill="#B0D7D7"/>
<path d="M44.3567 151.796H51.0859V149.006H44.3567V151.796Z" fill="#B0D7D7"/>
<path d="M21.7591 151.796H28.4883V149.006H21.7591V151.796Z" fill="#B0D7D7"/>
<path d="M33.0687 156.876H39.7695V154.086H33.0687V156.876Z" fill="#B0D7D7"/>
<path d="M44.3567 161.985H51.0859V159.194H44.3567V161.985Z" fill="#B0D7D7"/>
<path d="M33.0687 167.066H39.7695V164.275H33.0687V167.066Z" fill="#B0D7D7"/>
<path d="M44.3567 172.146H51.0859V169.355H44.3567V172.146Z" fill="#B0D7D7"/>
<path d="M21.7591 172.146H28.4883V169.355H21.7591V172.146Z" fill="#B0D7D7"/>
<path d="M44.3567 181.559H51.0859V178.768H44.3567V181.559Z" fill="#B0D7D7"/>
<path d="M33.0687 181.559H39.7695V178.768H33.0687V181.559Z" fill="#B0D7D7"/>
<path d="M44.3567 191.748H51.0859V188.957H44.3567V191.748Z" fill="#B0D7D7"/>
<path d="M33.0687 191.748H39.7695V188.957H33.0687V191.748Z" fill="#B0D7D7"/>
<path d="M21.7591 191.748H28.4883V188.957H21.7591V191.748Z" fill="#B0D7D7"/>
<path d="M44.3567 201.91H51.0859V199.119H44.3567V201.91Z" fill="#B0D7D7"/>
<path d="M21.7591 201.91H28.4883V199.119H21.7591V201.91Z" fill="#B0D7D7"/>
<path d="M33.0687 207.019H39.7695V204.228H33.0687V207.019Z" fill="#B0D7D7"/>
<path d="M21.7591 207.019H28.4883V204.228H21.7591V207.019Z" fill="#B0D7D7"/>
<path d="M44.3567 212.1H51.0859V209.309H44.3567V212.1Z" fill="#B0D7D7"/>
<path d="M33.0687 217.179H39.7695V214.389H33.0687V217.179Z" fill="#B0D7D7"/>
<path d="M44.3567 222.26H51.0859V219.47H44.3567V222.26Z" fill="#B0D7D7"/>
<path d="M21.7591 222.26H28.4883V219.47H21.7591V222.26Z" fill="#B0D7D7"/>
<path opacity="0.35" d="M106.674 11.3262H-75.5547V219.716H106.674V11.3262Z" fill="white"/>
<path opacity="0.5" d="M48.4094 215.957H34.2695L110.08 13.7183H124.22L48.4094 215.957Z" fill="white"/>
<path opacity="0.5" d="M23.4538 215.957H16.3555L92.1942 13.7183H99.2642L23.4538 215.957Z" fill="white"/>
<path opacity="0.5" d="M107.867 215.956H100.797L165.818 35.4453V49.9682L107.867 215.956Z" fill="white"/>
<path opacity="0.35" d="M290.862 11.5542H108.633V219.944H290.862V11.5542Z" fill="white"/>
<path opacity="0.5" d="M199.011 215.957H184.871L260.681 13.7188H274.821L199.011 215.957Z" fill="white"/>
<path opacity="0.5" d="M174.023 215.957H166.953L242.763 13.7188H249.833L174.023 215.957Z" fill="white"/>
<path d="M358.692 51.2502V48.8582H352.133V11.2695H169.904H165.929H-16.3281V16.0251H-12.3531V17.7052H105.167V48.8298H-16.3281V51.2218H105.167V112.417H-16.3281V114.809H105.167V176.005H-16.3281V178.397H105.167V218.264H-12.3247V219.631H-16.3281V225.155H165.929H169.904H352.161V224.699V178.425H358.72V176.033H352.161V114.838H358.72V112.446H352.161V51.2502H358.692ZM169.904 114.838H226.662V176.033H169.904V114.838ZM169.904 112.446V51.2502H226.662V112.446H169.904ZM169.904 48.8867V17.7336H226.662V48.8582H169.904V48.8867ZM169.904 178.425H226.662V218.292H169.932V219.659H169.904V178.425ZM230.666 218.292V178.425H287.424V218.292H230.666ZM230.666 176.033V114.838H287.424V176.033H230.666ZM230.666 112.446V51.2502H287.424V112.446H230.666ZM230.666 48.8867V17.7336H287.424V48.8582H230.666V48.8867ZM291.399 17.7336H348.158V48.8582H291.399V17.7336ZM109.142 17.7336H165.901V48.8582H109.142V17.7336ZM109.142 51.2502H165.901V112.446H109.142V51.2502ZM109.142 114.838H165.901V176.033H109.142V114.838ZM109.142 178.425H165.901V219.687H165.872V218.321H109.142V178.425ZM348.158 219.659L348.129 218.292H291.399V178.425H348.158V219.659ZM348.158 176.033H291.399V114.838H348.158V176.033ZM348.158 112.446H291.399V51.2502H348.158V112.446Z" fill="url(#paint2_linear_3204_17301)"/>
</g>
<path d="M115.022 223.817H99.3777C96.7087 223.817 94.5508 221.653 94.5508 218.976C94.5508 216.299 96.7087 214.135 99.3777 214.135H115.022V223.817Z" fill="url(#paint3_linear_3204_17301)"/>
<path d="M94.5781 218.435C94.8337 216.014 96.9064 214.135 99.3766 214.135H115.021V217.951C113.147 218.691 111.018 219.545 110.336 218.463C109.541 217.239 106.958 215.274 106.958 215.274C106.958 215.274 101.932 215.245 98.5248 215.245C95.146 215.188 94.5781 218.378 94.5781 218.435Z" fill="#6B5A00"/>
<path d="M137.85 222.849H109.826C107.639 222.849 105.879 221.083 105.879 218.89C105.879 216.698 107.639 214.932 109.826 214.932H137.85V222.849Z" fill="url(#paint4_linear_3204_17301)"/>
<path d="M139.497 222.137H110.053C108.293 222.137 106.873 220.713 106.873 218.947C106.873 217.182 108.293 215.758 110.053 215.758H139.497V214.106H110.053C107.384 214.106 105.227 216.271 105.227 218.947C105.227 221.624 107.384 223.788 110.053 223.788H139.497V222.137Z" fill="#6B5A00"/>
<path d="M117.888 200.324H105.764C103.691 200.324 102.016 198.644 102.016 196.565C102.016 194.486 103.691 192.806 105.764 192.806H117.888V200.324Z" fill="url(#paint5_linear_3204_17301)"/>
<path d="M135.552 199.584H113.831C112.156 199.584 110.793 198.217 110.793 196.537C110.793 194.857 112.156 193.49 113.831 193.49H135.552V199.584Z" fill="url(#paint6_linear_3204_17301)"/>
<path d="M136.829 199.042H114.029C112.666 199.042 111.559 197.932 111.559 196.565C111.559 195.198 112.666 194.088 114.029 194.088H136.829V192.806H114.029C111.956 192.806 110.281 194.486 110.281 196.565C110.281 198.644 111.956 200.324 114.029 200.324H136.829V199.042Z" fill="#1C0A76"/>
<path d="M119.366 206.076H106.192C104.602 206.076 103.324 204.795 103.324 203.2C103.324 201.606 104.602 200.324 106.192 200.324H119.366V206.076Z" fill="url(#paint7_linear_3204_17301)"/>
<path d="M103.409 203.912C103.353 203.684 103.324 203.457 103.324 203.2C103.324 201.606 104.602 200.324 106.192 200.324H119.366V201.663L116.158 201.321H106.277C106.277 201.321 103.75 201.321 103.409 203.912Z" fill="#6B5A00"/>
<path d="M139.442 205.507H118.203C116.926 205.507 115.875 204.453 115.875 203.171C115.875 201.89 116.926 200.836 118.203 200.836H139.442V205.507Z" fill="url(#paint8_linear_3204_17301)"/>
<path d="M140.407 205.079H118.317C117.266 205.079 116.443 204.225 116.443 203.2C116.443 202.146 117.295 201.32 118.317 201.32H140.407V200.324H118.317C116.727 200.324 115.449 201.605 115.449 203.2C115.449 204.795 116.727 206.076 118.317 206.076H140.407V205.079Z" fill="#6B5A00"/>
<path d="M108.266 214.106H132.343C134.558 214.106 136.347 212.312 136.347 210.091C136.347 207.87 134.558 206.076 132.343 206.076H108.266V214.106Z" fill="url(#paint9_linear_3204_17301)"/>
<path d="M132.344 206.076C134.559 206.076 136.348 207.87 136.348 210.091C136.348 210.234 136.348 210.376 136.319 210.518C136.319 210.518 135.155 207.785 131.918 207.756C128.682 207.728 114.684 207.756 114.684 207.756L110.879 206.076H132.344Z" fill="#1C0A76"/>
<path d="M98.5273 213.309H112.582C114.371 213.309 115.847 211.857 115.847 210.035C115.847 208.241 114.399 206.76 112.582 206.76H98.5273V213.309Z" fill="url(#paint10_linear_3204_17301)"/>
<path d="M97.1641 212.74H112.411C113.859 212.74 115.052 211.544 115.052 210.091C115.052 208.639 113.859 207.443 112.411 207.443H97.1641V206.076H112.411C114.626 206.076 116.415 207.87 116.415 210.091C116.415 212.312 114.626 214.106 112.411 214.106H97.1641V212.74Z" fill="#1C0A76"/>
<path d="M43.4687 151.772C43.4403 151.63 43.2699 151.516 43.1279 151.516C39.8343 151.573 35.6889 151.573 32.9063 153.623C30.2941 155.531 29.925 158.891 29.9818 161.881C29.9818 162.194 30.3509 162.28 30.5497 162.166C30.5497 162.166 30.578 162.166 30.578 162.194C37.506 164.786 44.4624 159.062 43.4687 151.772Z" fill="#349899"/>
<path d="M27.4818 165.298C27.5102 162.992 26.9707 160.657 25.2103 159.062C23.1944 157.239 20.2699 156.186 17.8564 154.933C17.6009 154.819 17.2318 155.018 17.3454 155.331C18.4243 158.094 18.2823 161.454 20.1847 163.874C21.8031 165.925 24.5573 166.608 26.9991 165.839C27.1127 165.811 27.1979 165.725 27.2263 165.611C27.3682 165.583 27.4818 165.469 27.4818 165.298Z" fill="#349899"/>
<path d="M48.8368 172.816C47.2183 171.563 45.1172 171.677 43.1581 171.762C40.9718 171.848 38.7855 172.189 36.798 173.129C33.334 174.781 30.9205 178.426 32.1698 182.27C32.1414 182.441 32.1982 182.612 32.397 182.669C35.6906 183.722 37.2806 181.501 39.2682 179.309C41.7952 176.489 45.0604 174.496 48.6664 173.385C48.8935 173.329 49.0355 172.987 48.8368 172.816Z" fill="#349899"/>
<path d="M56.7011 181.046C56.6727 181.046 56.616 181.017 56.5876 180.989C55.1963 180.391 53.947 179.252 52.6693 178.141C52.6693 178.141 52.6693 178.141 52.6409 178.112C51.2496 176.916 49.8299 175.749 48.1831 175.464C48.1547 175.464 48.1547 175.464 48.1547 175.464C47.3881 175.322 46.5931 175.379 45.6845 175.664C42.1637 176.831 39.9774 180.533 39.6367 184.064C39.6367 184.149 39.6651 184.206 39.6935 184.263C39.6935 184.292 39.6651 184.292 39.6651 184.32C39.6083 184.52 39.7219 184.776 39.9774 184.804C42.9871 185.175 45.9684 184.804 48.9214 184.178C51.5335 183.637 54.5149 183.181 56.7863 181.644C57.0703 181.501 56.9851 181.159 56.7011 181.046Z" fill="#349899"/>
<path d="M51.4496 187.823C47.5881 187.054 39.6095 185.089 39.0701 191.24C39.0417 191.439 39.1836 191.553 39.3256 191.553C42.818 195.682 49.6324 192.407 51.6483 188.307C51.7619 188.136 51.7051 187.88 51.4496 187.823Z" fill="#349899"/>
<path d="M27.0309 175.407C26.0087 173.129 23.6237 170.794 21.2954 169.94C21.0683 169.854 20.8411 170.054 20.8411 170.281C20.8695 174.752 19.7906 181.814 24.6458 184.263C24.6742 184.292 24.7026 184.292 24.7594 184.292C24.9014 184.491 25.2137 184.548 25.3557 184.292C26.8321 181.615 28.3938 178.483 27.0309 175.407Z" fill="#349899"/>
<path d="M14.3664 178.255C11.9814 176.318 8.26183 175.891 5.47928 177.287C1.64617 179.223 2.32761 183.865 1.75975 187.424C1.70296 187.766 2.07208 188.022 2.35601 187.766C6.13233 184.434 11.4135 183.124 14.2812 178.767C14.48 178.682 14.5936 178.426 14.3664 178.255Z" fill="#349899"/>
<path d="M14.3943 181.786C14.2808 181.615 14.1104 181.587 13.9684 181.672C13.8833 181.558 13.7129 181.473 13.5425 181.586C11.6402 182.64 9.42549 184.092 9.05638 186.371C8.60209 189.104 10.1353 191.781 10.3341 194.486C10.3625 194.856 10.9303 194.999 11.0155 194.572C11.4982 191.98 14.1672 190.784 15.161 188.449C15.956 186.541 15.5301 183.523 14.3943 181.786Z" fill="#349899"/>
<path d="M26.0945 197.704C23.8798 194.572 21.58 191.895 17.7185 190.898C17.4345 190.841 17.1506 191.155 17.321 191.411C18.2012 192.721 18.1728 194.202 18.911 195.54C19.3369 196.337 20.0467 196.907 20.785 197.391C22.4318 198.445 24.5613 199.384 26.4068 198.331C26.776 198.103 26.4636 197.562 26.0945 197.704Z" fill="#349899"/>
<path d="M31.1177 194.002C31.1177 193.974 31.0893 193.945 31.0893 193.888C29.5561 191.439 29.4993 188.335 27.3698 186.228C27.1994 186.057 26.9439 186.114 26.8303 186.314C25.8081 187.965 25.2971 189.987 26.1205 191.838C27.0007 193.86 28.8746 194.401 30.9189 194.629C31.2597 194.657 31.3165 194.201 31.1177 194.002Z" fill="#349899"/>
<path d="M35.4043 166.636C34.9784 166.266 34.3822 166.636 33.9563 166.807C33.1328 167.149 32.3662 167.548 31.6564 168.089C30.3219 169.085 29.4133 170.481 29.3281 172.132C29.3281 172.161 29.3281 172.218 29.3281 172.246C29.3281 172.303 29.3281 172.332 29.3281 172.389C29.3281 172.787 29.8676 172.844 30.0096 172.531C31.7132 172.161 33.0477 171.079 34.155 169.74C34.6377 169.142 36.4265 167.491 35.4043 166.636Z" fill="#349899"/>
<path d="M36.1727 194.287C36.1159 194.23 36.0875 194.173 36.0307 194.116C36.4566 191.126 36.6554 187.652 33.7024 185.887C33.5037 185.773 33.2482 185.887 33.1914 186.086C32.3964 189.247 33.3049 192.493 35.69 194.743C36.0023 195.084 36.485 194.6 36.1727 194.287Z" fill="#349899"/>
<path d="M56.4172 180.676C55.1111 180.106 53.9186 179.109 52.6693 178.113C52.6693 178.113 52.6693 178.113 52.6409 178.084C51.2212 176.945 49.7732 175.835 48.1831 175.436C48.1547 175.436 48.1547 175.436 48.1547 175.436C47.3881 175.293 46.5931 175.35 45.6845 175.635C42.1637 176.803 39.9774 180.505 39.6367 184.036C39.6367 184.121 39.6651 184.178 39.6935 184.235C39.6935 184.264 39.6651 184.264 39.6651 184.292C39.7787 184.292 39.8923 184.235 39.9774 184.121C40.0626 184.093 40.1194 184.093 40.1762 184.036C41.3119 182.811 42.5612 181.672 43.7538 180.505C44.3216 179.935 44.8895 179.223 45.5709 178.768C46.9622 177.771 48.1831 177.942 49.6312 178.369C51.3916 178.881 52.9816 179.793 54.5716 180.676C55.1679 181.017 55.7358 181.587 56.4172 181.274C56.5308 181.217 56.5876 181.103 56.5876 180.96C56.5876 180.846 56.5308 180.732 56.4172 180.676Z" fill="#01595A"/>
<path d="M25.4408 192.493C25.1001 191.126 24.731 189.759 24.2767 188.421C24.2767 188.421 24.2767 188.392 24.3051 188.392C24.9298 186.228 25.1853 184.035 25.0433 181.871C25.1569 181.843 25.2705 181.786 25.3273 181.643C25.7248 180.362 25.8951 179.052 25.8384 177.685C25.81 177.23 25.1285 177.23 25.1285 177.685C25.1853 178.625 25.1001 179.536 24.9014 180.419C24.7594 179.394 24.5323 178.34 24.2199 177.315C24.078 176.888 23.4249 177.059 23.5385 177.514C24.5323 180.732 24.6174 184.035 23.8508 187.282C23.1978 185.602 22.3744 184.007 21.267 182.583C18.6832 179.251 13.9699 177.229 10.222 178.796C10.222 178.682 10.1368 178.539 9.96645 178.511C8.51839 178.169 7.07032 178.369 5.79262 179.137C5.39511 179.365 5.76423 179.992 6.13334 179.735C7.1839 179.109 8.31963 178.91 9.51216 179.109C8.66035 179.593 7.86533 180.305 7.1555 181.245C6.89996 181.615 7.49622 181.957 7.75176 181.586C9.54055 179.109 12.7774 178.312 15.6451 179.251C16.4685 179.508 17.2352 179.906 17.945 180.39C14.9637 180.333 12.6922 182.327 10.6763 184.32C10.364 184.633 10.8466 185.117 11.159 184.804C11.5565 184.406 11.9824 184.007 12.4083 183.637C12.2947 184.349 12.2663 185.06 12.3515 185.772C12.4083 186.228 13.0897 186.228 13.0613 185.772C12.9761 184.861 13.0329 183.95 13.2601 183.067C13.2601 183.01 13.2601 182.982 13.2601 182.925C14.7081 181.786 16.2982 180.96 18.2857 181.102C18.4845 181.102 18.5696 181.017 18.598 180.874C20.1881 182.127 21.4374 183.836 22.346 185.63C24.1347 189.218 25.1569 193.319 25.7532 197.419C24.3051 197.049 23.0558 196.28 22.0336 195.17C21.7213 194.828 21.2386 195.34 21.551 195.654C22.062 196.223 22.6299 196.679 23.2546 197.077C22.857 197.077 22.4595 197.049 22.0336 196.992C21.6077 196.935 21.409 197.59 21.8349 197.675C22.5163 197.789 23.1694 197.818 23.8508 197.789C23.9928 197.789 24.078 197.704 24.1348 197.59C24.6458 197.818 25.1853 198.017 25.7532 198.16C25.7816 198.16 25.81 198.16 25.81 198.16C26.0655 200.153 26.2075 202.118 26.321 204.054C26.3494 204.51 27.0309 204.51 27.0309 204.054C26.8889 200.181 26.3778 196.309 25.4408 192.493Z" fill="#200036"/>
<path d="M37.054 178.084C36.4294 178.54 35.8331 179.024 35.2368 179.536C35.5776 178.283 36.0886 177.144 36.8553 176.062C37.1108 175.692 36.5145 175.35 36.259 175.72C35.3504 177.03 34.7258 178.454 34.4134 180.02C34.385 180.134 34.4134 180.22 34.4702 180.277C32.9086 181.814 31.5741 183.551 30.4951 185.459C30.2964 183.039 30.1544 180.618 30.0408 178.198C29.9557 176.489 29.8137 174.553 29.7853 172.56C30.5803 171.477 31.4605 170.395 32.7098 169.797C33.1073 169.598 32.7666 169 32.3691 169.199C31.2902 169.712 30.4951 170.538 29.7853 171.449C29.7853 170.509 29.7853 169.57 29.8421 168.658C29.8989 168.573 29.8989 168.459 29.8705 168.345C30.2112 163.39 31.7161 158.72 36.4294 156.527C36.8269 156.328 36.4861 155.73 36.0886 155.929C34.8961 156.47 33.9023 157.182 33.0789 158.008C33.0505 157.325 33.1357 156.67 33.3913 156.015C33.5616 155.588 32.8802 155.417 32.7098 155.815C32.3407 156.727 32.2839 157.666 32.4259 158.635C32.4259 158.663 32.4259 158.663 32.4543 158.663C30.4384 161.084 29.6149 164.273 29.3026 167.633C28.2805 166.466 27.2867 165.27 26.2645 164.102C26.3497 164.045 26.4349 163.96 26.4349 163.817C26.3781 162.821 26.0658 161.909 25.4979 161.112C25.2424 160.742 24.6461 161.084 24.9016 161.454C25.3275 162.052 25.5831 162.707 25.6967 163.419C25.3275 162.992 24.93 162.536 24.5609 162.109C24.277 161.767 23.7659 162.251 24.0782 162.593C25.8102 164.615 27.5422 166.608 29.2742 168.63C29.189 169.854 29.189 171.079 29.2174 172.303C29.189 172.332 29.189 172.332 29.1606 172.36C29.0471 172.531 29.1039 172.673 29.2174 172.759C29.2458 173.926 29.2742 175.094 29.331 176.176C29.5582 181.757 29.9841 187.339 30.5803 192.92C29.331 192.208 28.6212 190.898 27.9965 189.645C27.7978 189.247 27.2015 189.588 27.4003 189.987C28.1101 191.439 28.9335 192.949 30.4667 193.66C30.5235 193.689 30.6087 193.689 30.6655 193.689C31.063 197.248 31.5457 200.836 32.1136 204.368C32.1704 204.823 32.8518 204.624 32.795 204.168C31.8864 198.331 31.1766 192.464 30.6939 186.598C30.7507 186.57 30.8075 186.541 30.8643 186.456C32.4543 183.352 34.6974 180.732 37.5367 178.682C37.7638 178.426 37.4231 177.799 37.054 178.084Z" fill="#200036"/>
<path d="M48.6077 178.625C47.1312 178.597 45.7967 178.938 44.5758 179.565C45.0869 179.024 45.6548 178.483 46.251 178.027C46.5917 177.771 46.251 177.144 45.9103 177.429C44.7462 178.34 43.724 179.366 42.8438 180.562C42.8154 180.618 42.787 180.647 42.787 180.704C40.4304 182.555 38.67 185.402 37.591 188.136C36.938 189.788 36.4269 191.496 36.0578 193.233C35.6603 192.579 35.4615 191.838 35.206 191.126C35.0072 190.557 34.8369 190.016 34.2974 189.674C33.9283 189.446 33.5592 190.044 33.9567 190.272C34.5246 190.642 34.6665 191.667 34.8653 192.237C35.064 192.806 35.2912 193.347 35.6319 193.86C35.7171 193.974 35.8023 194.002 35.9158 194.002C35.064 198.245 34.8369 202.659 34.4394 206.902C34.3826 207.358 35.0924 207.358 35.1492 206.902C35.5183 202.944 35.7739 198.9 36.4837 194.971C36.5405 194.942 36.5973 194.942 36.6257 194.885C37.9602 193.433 39.323 191.952 40.9698 190.927C41.4809 191.383 42.0488 191.753 42.7018 191.98C43.1277 192.123 43.3265 191.439 42.9006 191.297C42.4179 191.126 41.992 190.898 41.6229 190.585C42.0772 190.357 42.5599 190.13 43.071 189.987C43.4969 189.845 43.3265 189.19 42.8722 189.304C42.1908 189.503 41.5661 189.788 40.9698 190.13C40.8563 190.13 40.7711 190.215 40.7143 190.3C39.2095 191.212 37.9318 192.436 36.7108 193.775C36.938 192.664 37.1935 191.582 37.5342 190.5C38.2157 188.307 39.2662 185.887 40.7711 183.865H40.7995C41.5945 183.608 42.4179 183.409 43.2413 183.295C43.6956 183.238 43.4969 182.555 43.0426 182.612C42.5315 182.697 42.0204 182.783 41.5093 182.925C43.3265 180.818 45.6831 179.337 48.6361 179.394C49.062 179.337 49.062 178.625 48.6077 178.625Z" fill="#200036"/>
<path d="M42.7896 200.495L42.2218 203.969L41.228 210.177L39.0417 223.76H23.1414L20.9835 210.177L19.9613 203.969L19.4219 200.495H42.7896Z" fill="#FFE454"/>
<path opacity="0.08" d="M26.0659 203.969L25.4981 200.495H19.4219L19.9613 203.969L20.9835 210.177L23.1414 223.76H29.2176L27.0597 210.177L26.0659 203.969Z" fill="black"/>
<path opacity="0.64" d="M37.1971 222.65C37.1687 222.65 37.1687 222.65 37.1403 222.65C36.7428 222.621 36.4304 222.393 36.4588 222.137L39.1846 201.492C39.213 201.236 39.5821 201.036 39.9796 201.065C40.3771 201.093 40.6894 201.321 40.661 201.577L37.9353 222.223C37.9069 222.45 37.5662 222.65 37.1971 222.65Z" fill="white"/>
<path d="M172.801 54.3832H170.359L171.751 34.2505H174.192L172.801 54.3832Z" fill="#343737"/>
<path d="M143.869 223.817H142.648L160.934 157.211H162.155L143.869 223.817Z" fill="#646565"/>
<path d="M165.93 157.211H164.766V223.817H165.93V157.211Z" fill="#646565"/>
<path d="M188.134 223.817H186.913L168.656 157.211H169.877L188.134 223.817Z" fill="#646565"/>
<path d="M152.418 194.231L162.668 157.211H160.255L149.977 194.231H152.418Z" fill="#343737"/>
<path d="M166.555 157.211H164.113V194.231H166.555V157.211Z" fill="#343737"/>
<path d="M180.838 194.231L170.446 157.211H168.004L178.396 194.231H180.838Z" fill="#343737"/>
<path d="M170.447 157.211H160.254V159.803H170.447V157.211Z" fill="#343737"/>
<path d="M177.233 38.8921H168.09L168.26 36.3008H177.403L177.233 38.8921Z" fill="#343737"/>
<path d="M176.012 159.375H154.66V161.967H176.012V159.375Z" fill="#343737"/>
<path d="M165.165 201.805L147.59 207.842V206.817L165.165 200.751V201.805Z" fill="#646565"/>
<path d="M183.165 207.757L165.504 201.805V200.751L183.165 206.703V207.757Z" fill="#646565"/>
<path opacity="0.15" d="M218.626 90.8042C208.688 93.1108 202.186 102.85 204.032 113.044C205.167 119.423 209.341 124.463 214.736 127.055C218.967 115.465 220.273 102.764 218.626 90.8042Z" fill="#1C0A76"/>
<path d="M200.198 140.154C181.117 164.957 150.197 167.292 131.77 144.511C113.342 121.73 113.882 83.1729 132.962 58.37C152.042 33.5672 182.423 31.944 200.851 54.725C219.25 77.5061 219.25 115.351 200.198 140.154Z" fill="#017374"/>
<path d="M195.06 139.442C176.377 163.732 146.592 165.327 128.563 143.03C110.504 120.705 111.044 82.9166 129.727 58.6263C148.41 34.3361 178.194 32.7414 196.224 55.0383C214.282 77.3637 213.743 115.152 195.06 139.442Z" fill="url(#paint11_linear_3204_17301)"/>
<path d="M190.402 133.661C174.388 154.477 148.862 155.873 133.388 136.736C117.913 117.6 118.368 85.2229 134.382 64.3782C150.395 43.562 175.921 42.1667 191.395 61.3028C206.87 80.4388 206.416 112.845 190.402 133.661Z" fill="url(#paint12_linear_3204_17301)"/>
<path d="M185.746 127.88C172.401 145.222 151.135 146.39 138.244 130.443C125.354 114.496 125.723 87.5009 139.068 70.1589C152.412 52.8168 173.679 51.6493 186.57 67.596C199.46 83.5427 199.091 110.538 185.746 127.88Z" fill="url(#paint13_linear_3204_17301)"/>
<path d="M181.06 122.128C170.384 136.025 153.376 136.936 143.069 124.178C132.763 111.421 133.046 89.836 143.722 75.9395C154.398 62.0716 171.406 61.1319 181.713 73.8892C192.048 86.6466 191.736 108.232 181.06 122.128Z" fill="url(#paint14_linear_3204_17301)"/>
<path d="M176.405 116.348C168.398 126.77 155.621 127.453 147.898 117.885C140.175 108.317 140.374 92.1143 148.381 81.7205C156.388 71.2982 169.137 70.6147 176.888 80.1828C184.639 89.7223 184.412 105.925 176.405 116.348Z" fill="url(#paint15_linear_3204_17301)"/>
<path d="M171.72 110.567C166.382 117.515 157.864 117.971 152.725 111.592C147.557 105.214 147.727 94.4211 153.065 87.4728C158.403 80.5246 166.921 80.069 172.061 86.4477C177.228 92.8264 177.058 103.619 171.72 110.567Z" fill="url(#paint16_linear_3204_17301)"/>
<path d="M167.062 104.786C164.393 108.26 160.134 108.488 157.55 105.298C154.966 102.109 155.051 96.6987 157.72 93.253C160.389 89.7789 164.648 89.5511 167.232 92.7405C169.816 95.9298 169.731 101.34 167.062 104.786Z" fill="url(#paint17_linear_3204_17301)"/>
<path d="M77.4519 49.1739L130.109 22.0684C130.555 21.8489 131.165 21.9863 131.502 22.4444C131.809 22.8729 131.733 23.4013 131.286 23.6463L78.601 50.7221L77.4519 49.1739Z" fill="#343737"/>
<path d="M89.1092 49.1829L84.1509 58.8045L73.5391 64.3266L75.2071 55.5862L65.099 52.9288L75.74 47.4109L88.2374 47.9951L89.1092 49.1829Z" fill="#8855AA"/>
<path d="M131.089 23.0938L137.497 14.8724L130.175 19.1709L131.089 23.0938Z" fill="#200036"/>
<path d="M127.061 17.0364L137.498 14.9493L130.312 19.0922L127.061 17.0364Z" fill="#200036"/>
<path d="M60.1594 211.662L111.04 188.34C111.523 188.112 111.75 187.543 111.523 187.059C111.296 186.575 110.728 186.347 110.245 186.575L59.3359 209.897L60.1594 211.662Z" fill="#343737"/>
<path d="M71.0065 204.771L58.9109 203.375L50.6484 207.163L59.9615 210.637L56.4975 219.977L64.76 216.19L71.6028 206.081L71.0065 204.771Z" fill="#8855AA"/>
<path d="M107.207 184.866L115.384 185.15L110.302 187.77L107.207 184.866Z" fill="#200036"/>
<path d="M110.245 191.387L115.384 185.15L110.074 187.315L110.245 191.387Z" fill="#200036"/>
<path opacity="0.15" d="M212.238 77.8191C210.023 69.3047 206.218 61.3598 200.852 54.7248C196.82 49.7415 192.22 45.9256 187.308 43.2773C184.157 46.5236 181.97 50.7951 181.346 55.6361C179.812 67.4822 188.16 78.3317 199.972 79.8694C204.316 80.4389 208.546 79.6416 212.238 77.8191Z" fill="#1C0A76"/>
<path opacity="0.15" d="M173.085 156.271C162.296 160.287 150.796 159.432 140.773 153.623C144.237 147.074 151.591 143.201 159.258 144.482C165.902 145.593 171.069 150.291 173.085 156.271Z" fill="#1C0A76"/>
<path d="M93.3557 127.402L139.848 135.515C140.385 135.602 140.908 135.262 141.029 134.721C141.15 134.181 140.842 133.68 140.306 133.593L93.8132 125.48L93.3557 127.402Z" fill="#343737"/>
<path d="M106.216 127.238L97.4845 119.234L85.0727 117.078L90.298 125.216L81.8092 130.934L94.1987 133.109L105.894 128.679L106.216 127.238Z" fill="#8855AA"/>
<path opacity="0.15" d="M135.724 134.417L139.476 145.84L139.859 151.198L140.711 156.296L142.079 151.818L144.822 152.141L142.923 148.507L140.352 145.059L136.147 134.045C136.084 133.859 135.935 133.797 135.818 133.896C135.701 133.995 135.654 134.231 135.724 134.417Z" fill="#1C0A76"/>
<g clip-path="url(#clip0_3204_17301)">
<path d="M208.53 114.986C210.166 107.458 214.613 102.427 216.107 101.143C218.562 99.0377 225.428 99.2517 228.203 104.96C230.978 110.669 232.009 114.13 231.227 124.441C230.444 134.752 221.942 169.931 221.942 177.637C221.906 185.344 205.933 184.523 206.787 173.463C207.605 162.403 206.645 123.691 208.53 114.986Z" fill="#4D0180"/>
<path d="M231.44 117.162C231.262 112.024 230.195 109.063 228.203 104.96C226.638 101.785 223.827 100.286 221.23 99.9649C221.052 99.9292 220.91 99.9292 220.732 99.9292C220.59 99.9292 220.448 99.9292 220.305 99.8936C219.878 99.8936 219.452 99.8936 219.06 99.9649C218.527 100.036 218.029 100.143 217.566 100.322C217.353 100.393 217.139 100.5 216.926 100.607C216.819 100.643 216.712 100.714 216.641 100.786C216.463 100.893 216.285 101.035 216.143 101.142C216.036 101.214 215.93 101.321 215.823 101.428C215.752 101.499 215.681 101.535 215.609 101.606C215.574 101.642 215.574 101.642 215.538 101.677C215.503 101.713 215.432 101.785 215.396 101.82C215.36 101.856 215.325 101.892 215.325 101.892C215.254 101.963 215.218 101.999 215.147 102.07C215.111 102.106 215.111 102.141 215.076 102.141C214.898 102.32 214.72 102.534 214.542 102.748C214.507 102.784 214.471 102.819 214.471 102.855C214.4 102.926 214.329 103.033 214.258 103.105C214.222 103.14 214.186 103.176 214.151 103.212C214.08 103.283 214.009 103.39 213.937 103.497C213.902 103.533 213.866 103.568 213.866 103.604C213.653 103.854 213.439 104.139 213.226 104.46C213.19 104.496 213.155 104.532 213.155 104.567C213.084 104.674 213.013 104.781 212.906 104.924C212.87 104.96 212.835 105.031 212.799 105.067C212.728 105.174 212.657 105.317 212.55 105.424C212.514 105.459 212.479 105.531 212.443 105.566C212.23 105.888 212.016 106.244 211.803 106.637C211.767 106.672 211.732 106.744 211.696 106.779C211.625 106.922 211.554 107.065 211.447 107.172C211.412 107.243 211.376 107.315 211.341 107.35C211.269 107.493 211.198 107.636 211.127 107.778C211.092 107.85 211.056 107.886 211.02 107.957C210.914 108.171 210.807 108.349 210.7 108.563C210.593 108.777 210.487 108.992 210.416 109.206C210.38 109.277 210.344 109.348 210.344 109.384C210.273 109.527 210.202 109.705 210.131 109.848C210.095 109.919 210.06 109.991 210.024 110.062C209.953 110.205 209.882 110.383 209.846 110.561C209.811 110.633 209.775 110.704 209.775 110.775C209.704 111.025 209.597 111.239 209.526 111.489C209.455 111.739 209.348 111.989 209.277 112.203C209.242 112.274 209.242 112.345 209.206 112.452C209.135 112.631 209.099 112.809 209.064 112.988C209.028 113.095 209.028 113.166 208.993 113.273C208.957 113.451 208.886 113.63 208.85 113.808C208.815 113.879 208.815 113.987 208.779 114.058C208.708 114.308 208.637 114.593 208.601 114.843C208.566 114.986 208.53 115.128 208.495 115.307C208.495 115.378 208.459 115.414 208.459 115.485C208.423 115.592 208.423 115.735 208.388 115.842C208.388 115.913 208.352 115.985 208.352 116.056C208.352 116.163 208.317 116.306 208.281 116.413C208.281 116.484 208.246 116.555 208.246 116.662C208.21 116.805 208.21 116.948 208.21 117.055C208.21 117.126 208.21 117.198 208.174 117.269C208.139 117.447 208.139 117.59 208.103 117.768C208.103 117.84 208.103 117.875 208.068 117.947C208.032 118.411 207.961 118.946 207.925 119.481C207.925 119.552 207.925 119.588 207.925 119.659C207.925 119.873 207.89 120.088 207.89 120.337C207.89 120.409 207.89 120.48 207.89 120.551C207.89 120.765 207.854 120.98 207.854 121.229C207.854 121.301 207.854 121.372 207.854 121.443C207.854 121.693 207.819 121.907 207.819 122.157C207.819 122.228 207.819 122.264 207.819 122.335C207.819 122.621 207.783 122.942 207.783 123.263C207.747 124.262 207.676 125.332 207.641 126.403C207.641 126.438 207.641 126.438 207.641 126.474C207.641 126.831 207.605 127.152 207.605 127.509C207.605 127.544 207.605 127.544 207.605 127.58C207.605 127.937 207.57 128.329 207.57 128.686C214.364 133.538 226.104 133.467 225.713 136.928C225.535 138.498 220.59 171.893 220.021 173.213C219.95 173.355 220.91 178.136 221.977 178.101C222.013 177.887 222.013 177.708 222.013 177.494C222.048 169.895 230.266 135.715 231.262 124.797C231.262 124.797 231.262 124.797 231.262 124.761C231.262 124.583 231.298 124.44 231.298 124.262C231.405 122.656 231.511 121.194 231.547 119.909C231.476 119.053 231.476 118.09 231.44 117.162Z" fill="#200036"/>
<path d="M245.42 115.128C242.467 107.564 237.166 102.427 235.423 101.106C232.613 98.9658 225.782 99.0371 224.004 104.746C222.225 110.419 221.798 113.879 224.359 124.226C226.921 134.573 236.633 169.894 237.984 177.637C239.336 185.379 253.815 179.242 252.143 167.932C250.329 155.373 248.799 123.869 245.42 115.128Z" fill="#4D0180"/>
<path d="M229.589 130.434C233.182 129.827 238.767 128.9 240.048 129.292C242.751 130.113 244.85 132.503 244.886 135.429C244.921 138.818 250.186 171.285 250.151 171.428C250.684 170.964 251.503 170.286 252.285 169.43C252.285 168.931 252.25 168.431 252.143 167.896C250.293 155.373 248.799 123.869 245.384 115.092C242.716 108.206 238.091 103.354 235.956 101.534C235.743 101.356 235.53 101.177 235.387 101.07C232.577 98.9296 225.747 99.001 223.968 104.71C222.189 110.382 221.762 113.843 224.324 124.19C224.466 124.689 225.035 126.402 225.569 128.008C226.173 129.72 227.845 130.719 229.589 130.434Z" fill="#200039"/>
<path d="M192.166 40.4892C195.545 41.2385 198.213 42.5942 206.538 46.3048C206.894 46.4118 207.285 46.5189 207.641 46.6616C214.329 49.1234 222.511 49.6586 223.72 50.1937C228.203 52.1917 230.978 62.253 220.412 63.1093C210.807 63.8943 192.699 57.151 188.644 51.5495C187.114 49.4445 187.434 44.1998 189 42.5586C189.462 41.8807 191.17 40.2751 192.166 40.4892Z" fill="url(#paint18_linear_3204_17301)"/>
<path d="M216.285 61.1826C216.285 61.1826 194.94 56.366 197.253 53.155C199.565 49.9439 198.213 47.6248 198.213 47.6248L188.359 44.271L188.075 44.2354C187.363 46.5188 187.47 49.9439 188.608 51.5137C191.952 56.1163 204.759 61.468 214.542 62.8238L216.285 61.1826Z" fill="#4D0180"/>
<path d="M196.683 51.1212C202.375 46.8041 214.328 29.4287 218.49 28.0373C221.336 27.1096 214.044 22.293 212.905 24.077C210.237 28.18 194.478 38.2413 189.212 43.0935C184.695 47.2322 192.841 54.0468 196.683 51.1212Z" fill="#FFD2A7"/>
<path d="M231.299 34.9232C231.62 40.1323 238.201 40.9529 238.201 40.9529C237.987 37.0996 241.794 34.1383 242.328 29.286C242.826 24.2554 239.019 19.7599 232.402 21.2227C228.311 22.1504 230.979 29.7142 231.299 34.9232Z" fill="#1C0A76"/>
<path d="M237.879 50.1935C241.508 50.6573 248.125 52.2985 250.081 55.795C252.038 59.2558 250.615 92.4011 248.089 114.058C248.089 114.058 218.064 126.795 207.427 113.13C207.427 113.13 214.862 57.2935 219.096 52.1201C222.689 47.7674 234.25 49.7297 237.879 50.1935Z" fill="url(#paint19_linear_3204_17301)"/>
<path d="M237.742 49.5281C241.392 49.9934 248.074 51.6688 250.054 55.1746C252.034 58.6804 250.58 92.0942 248.074 113.936C248.074 113.936 217.789 126.78 207.055 112.974C207.055 112.974 214.541 56.6638 218.841 51.4516C222.398 47.0771 234.091 49.0627 237.742 49.5281Z" fill="#8855AA"/>
<path d="M238.625 50.3004C238.625 50.3004 225.96 67.9612 224.466 69.424C224.466 69.424 224.929 54.2607 225.213 49.6938L238.625 50.3004Z" fill="url(#paint20_linear_3204_17301)"/>
<path d="M236.313 42.8084C236.455 42.1305 236.598 41.7024 236.598 41.7024C236.598 41.7024 229.412 35.9582 228.451 41.7737L236.313 42.8084Z" fill="url(#paint21_linear_3204_17301)"/>
<path d="M228.594 53.9753L226.423 49.8009C226.423 49.8009 228.665 48.2667 228.38 44.2708C227.633 34.5305 236.598 41.6662 236.598 41.6662C236.598 41.6662 234.961 49.7652 237.914 50.1577L228.594 53.9753Z" fill="#FFD2A7"/>
<path d="M228.665 52.0484C233.681 52.7263 233.432 46.3755 233.681 45.1981C233.895 44.0921 236.563 41.7017 236.563 41.7017C236.563 41.7017 234.926 49.8007 237.879 50.1931L228.594 53.975L227.313 51.5132C227.669 51.7987 228.096 51.977 228.665 52.0484Z" fill="#FFBC8E"/>
<path d="M251.006 64.8931L241.97 63.8584L245.492 84.4448C245.492 84.4448 246.808 118.625 213.937 117.84C227.064 122.978 248.124 114.058 248.124 114.058C249.334 103.64 251.468 76.5599 251.006 64.8931Z" fill="#4D0180"/>
<path d="M223.436 28.5005L223.115 40.0247C223.329 43.4141 227.349 45.9116 230.906 45.6975C234.464 45.4835 237.167 42.5935 236.99 39.2041V38.9186C236.99 38.9186 240.654 38.4548 240.44 34.6729C240.227 30.9267 237.843 32.6036 237.843 32.6036L237.737 30.998C237.63 29.1427 236.029 27.7513 234.215 27.8583L223.436 28.5005Z" fill="#FFD2A7"/>
<path d="M237.844 32.64L237.737 30.8917C237.63 29.1078 236.136 27.7877 234.357 27.8947L232.543 28.0018C232.543 28.0375 232.543 28.0731 232.543 28.1088L233.29 41.0958C233.432 43.3792 231.334 45.2701 229.128 45.3058C228.452 45.3058 227.029 44.9847 226.46 44.6993C228.132 45.5912 229.555 45.8053 230.871 45.734C234.429 45.5199 237.132 42.6299 236.954 39.2405V38.9551C236.954 38.9551 240.619 38.4912 240.405 34.7093C240.192 30.9631 237.844 32.64 237.844 32.64Z" fill="#FFBC8E"/>
<path d="M227.491 48.5522C227.206 51.1568 228.594 53.9754 228.594 53.9754C228.594 53.9754 227.1 53.0834 225.534 54.7603C224.858 55.4739 224.218 55.5095 224.218 55.5095C224.218 55.5095 224.254 53.4402 225.25 49.5156L227.491 48.5522Z" fill="#C8B0D8"/>
<path d="M264.987 87.5494C262.319 85.3373 260.576 82.9112 254.848 75.7755C254.563 75.5257 254.314 75.2403 254.03 74.9549C249.192 69.6745 242.148 65.4644 241.33 64.4654C238.27 60.6122 240.369 50.4081 250.152 54.5111C259.046 58.2217 272.066 72.5287 273.133 79.379C273.525 81.9478 270.857 86.479 268.722 87.2283C268.509 86.8715 265.734 88.1916 264.987 87.5494Z" fill="url(#paint22_linear_3204_17301)"/>
<path d="M263.565 78.0223C258.371 82.9459 248.41 101.071 244.995 103.853C242.718 105.709 249.264 108.492 250.474 106.708C253.462 102.212 267.194 90.5811 271.925 85.1936C275.909 80.5198 267.087 74.6685 263.565 78.0223Z" fill="#FFD2A7"/>
<path d="M236.348 48.3384C234.712 50.8715 228.593 53.9756 228.593 53.9756C228.593 53.9756 230.478 53.5831 232.257 56.0092C233.004 57.0439 234.214 57.4007 234.214 57.4007C234.214 57.4007 238.091 54.4037 238.625 50.265L236.348 48.3384Z" fill="#C8B0D8"/>
<path d="M232.684 26.824C232.684 26.824 230.443 30.1421 225.783 29.9637C221.123 29.7853 220.874 32.2471 220.874 32.2471C220.874 32.2471 218.206 23.8984 223.933 20.5446C229.661 17.1908 233.609 21.0441 233.609 21.0441L232.684 26.824Z" fill="#1C0A76"/>
<path d="M243.677 119.873C244.211 114.985 240.298 112.452 242.361 108.528C244.424 104.603 244.531 102.712 247.626 103.247C250.721 103.782 250.188 106.494 249.583 112.06C249.014 117.483 242.895 127.152 243.677 119.873Z" fill="#FFD2A7"/>
<path d="M229.874 25.6109C225 26.2888 223.506 30.7129 219.201 29.6069C214.933 28.5365 213.047 28.8576 212.834 25.7179C212.585 22.5782 215.359 22.4355 220.873 21.6863C226.281 20.9727 237.095 24.6119 229.874 25.6109Z" fill="#FFD2A7"/>
<path d="M258.724 221.272C255.025 219.988 254.1 214.279 253.744 210.925L248.337 212.888C248.337 212.888 250.471 218.668 249.617 222.592C248.764 226.517 249.937 226.16 249.937 226.16H266.551C266.551 226.124 262.424 222.556 258.724 221.272Z" fill="#FFD2A7"/>
<path d="M266.906 226.588H250.044C250.044 226.588 249.439 226.802 249.19 225.518C249.048 224.84 248.977 224.876 249.19 223.163C249.226 222.842 249.261 222.485 249.297 222.164C250.898 222.307 253.281 221.094 253.281 221.094C253.957 219.203 256.412 218.346 257.052 219.345C258.048 221.058 260.183 221.45 261.641 221.95C264.843 223.02 265.626 224.269 266.373 225.518C266.728 226.16 266.906 226.588 266.906 226.588Z" fill="#1C0A76"/>
<path d="M266.906 226.588H250.044C250.044 226.588 249.439 226.802 249.19 225.518H266.337C266.728 226.16 266.906 226.588 266.906 226.588Z" fill="#1C0A76"/>
<path d="M251.256 166.433C256.165 170.429 253.924 199.257 256.379 218.417C256.379 218.417 250.723 219.701 247.307 218.203C247.307 218.203 237.987 184.487 237.987 176.637C237.987 162.865 245.991 162.152 251.256 166.433Z" fill="#4D0180"/>
<path d="M204.474 221.664C208.209 220.416 206.502 214.457 206.893 211.068L212.301 213.066C212.301 213.066 212.763 219.096 213.581 223.056C214.399 226.98 213.225 226.624 213.225 226.624L196.256 226.445C196.256 226.445 200.739 222.913 204.474 221.664Z" fill="#FFD2A7"/>
<path d="M204.475 221.664C205.613 221.307 205.862 220.558 206.538 219.488C206.965 218.739 208.281 220.059 208.957 221.557C208.957 221.557 211.874 222.77 213.439 222.271C213.475 222.556 213.511 222.806 213.546 223.056C214.364 226.98 213.19 226.624 213.19 226.624L196.221 226.445C197.111 223.234 200.882 222.77 204.475 221.664Z" fill="#1C0A76"/>
<path d="M213.867 225.589C213.796 226.802 213.227 226.623 213.227 226.623L196.258 226.445C196.258 226.445 196.329 226.017 196.685 225.41L213.867 225.589Z" fill="#1C0A76"/>
<path d="M207.781 172.427C204.651 175.924 206.572 199.828 205.682 217.132C205.682 217.132 211.374 218.809 214.647 217.311C214.647 217.311 223.683 184.023 221.727 177.137C219.13 167.932 211.979 167.753 207.781 172.427Z" fill="#4D0180"/>
<path d="M221.727 177.173C221.336 175.746 220.802 174.533 220.197 173.534C220.197 173.962 213.972 203.361 213.26 217.775C213.58 217.704 213.865 217.633 214.149 217.526C214.327 217.454 214.505 217.419 214.648 217.347C214.648 217.347 217.529 206.465 219.841 195.369C221.442 187.591 222.545 180.028 221.727 177.173Z" fill="#1C0A76"/>
<path d="M251.257 166.433C250.616 165.934 249.976 165.47 249.264 165.113C249.905 167.753 252.466 178.707 252.288 186.52C252.11 195.226 253.747 215.955 254.458 218.738C255.597 218.595 256.344 218.417 256.344 218.417C253.889 199.293 256.13 170.465 251.257 166.433Z" fill="#1C0A76"/>
</g>
<g clip-path="url(#clip1_3204_17301)">
<path d="M8.0207 34.5C6.78287 46.8345 15.7272 57.8073 27.9858 59.0087C40.2444 60.2502 51.1853 51.2797 52.4232 38.9853C53.661 26.6909 44.7166 15.7181 32.458 14.4766C20.1595 13.2352 9.21861 22.2056 8.0207 34.5Z" fill="#200036"/>
<path d="M7.17695 34.3003C5.93912 46.5947 14.8835 57.5675 27.1421 58.809C39.4007 60.0504 50.3416 51.08 51.5794 38.7856C52.8172 26.4912 43.8729 15.5183 31.6143 14.2769C19.3557 13.0354 8.41479 22.0059 7.17695 34.3003Z" fill="#FDEDED"/>
<g clip-path="url(#clip2_3204_17301)">
<path d="M41.8448 23.173C40.6661 22.1879 38.9472 22.2864 37.9159 23.4193L30.1071 32.4329L22.2984 23.4193C21.3162 22.2372 19.5482 22.1387 18.3695 23.173C17.2399 24.1581 17.0926 25.9313 18.1239 27.1134L26.4238 36.6689L18.1239 46.2736C17.1417 47.4557 17.2399 49.1796 18.3695 50.214C19.5482 51.1991 21.2671 51.1006 22.2984 49.9677L30.1071 40.954L37.9159 49.9677C38.8981 51.1498 40.6661 51.2483 41.8448 50.214C43.0235 49.2289 43.1217 47.4557 42.0903 46.2736L33.7905 36.6689L42.1395 27.1134C43.1217 25.9313 43.0235 24.1581 41.8448 23.173Z" fill="url(#paint23_linear_3204_17301)"/>
</g>
</g>
<defs>
<linearGradient id="paint0_linear_3204_17301" x1="-5.23523" y1="178.71" x2="273.75" y2="75.5557" gradientUnits="userSpaceOnUse">
<stop stop-color="white"/>
<stop offset="1" stop-color="#D3DBEB"/>
</linearGradient>
<linearGradient id="paint1_linear_3204_17301" x1="6.44069" y1="235.784" x2="258.279" y2="102.078" gradientUnits="userSpaceOnUse">
<stop stop-color="white"/>
<stop offset="1" stop-color="#D3DBEB"/>
</linearGradient>
<linearGradient id="paint2_linear_3204_17301" x1="-16.3195" y1="118.239" x2="358.685" y2="118.239" gradientUnits="userSpaceOnUse">
<stop stop-color="white"/>
<stop offset="1" stop-color="#D3DBEB"/>
</linearGradient>
<linearGradient id="paint3_linear_3204_17301" x1="94.5375" y1="218.963" x2="115.023" y2="218.963" gradientUnits="userSpaceOnUse">
<stop stop-color="#B59900"/>
<stop offset="1" stop-color="#FFDF33"/>
</linearGradient>
<linearGradient id="paint4_linear_3204_17301" x1="105.877" y1="218.894" x2="137.844" y2="218.894" gradientUnits="userSpaceOnUse">
<stop stop-color="white"/>
<stop offset="1" stop-color="#D3DBEB"/>
</linearGradient>
<linearGradient id="paint5_linear_3204_17301" x1="102.011" y1="196.57" x2="117.877" y2="196.57" gradientUnits="userSpaceOnUse">
<stop stop-color="#AD8AC5"/>
<stop offset="1" stop-color="#4D0180"/>
</linearGradient>
<linearGradient id="paint6_linear_3204_17301" x1="110.798" y1="196.516" x2="135.556" y2="196.516" gradientUnits="userSpaceOnUse">
<stop stop-color="white"/>
<stop offset="1" stop-color="#D3DBEB"/>
</linearGradient>
<linearGradient id="paint7_linear_3204_17301" x1="103.311" y1="203.2" x2="119.358" y2="203.2" gradientUnits="userSpaceOnUse">
<stop stop-color="#8C7600"/>
<stop offset="1" stop-color="#FFDF33"/>
</linearGradient>
<linearGradient id="paint8_linear_3204_17301" x1="115.853" y1="203.159" x2="139.428" y2="203.159" gradientUnits="userSpaceOnUse">
<stop stop-color="white"/>
<stop offset="1" stop-color="#D3DBEB"/>
</linearGradient>
<linearGradient id="paint9_linear_3204_17301" x1="108.269" y1="210.095" x2="136.354" y2="210.095" gradientUnits="userSpaceOnUse">
<stop stop-color="#6A6AE8"/>
<stop offset="1" stop-color="#312890"/>
</linearGradient>
<linearGradient id="paint10_linear_3204_17301" x1="98.5246" y1="210.038" x2="115.847" y2="210.038" gradientUnits="userSpaceOnUse">
<stop stop-color="white"/>
<stop offset="1" stop-color="#D3DBEB"/>
</linearGradient>
<linearGradient id="paint11_linear_3204_17301" x1="209.43" y1="99.024" x2="115.362" y2="99.024" gradientUnits="userSpaceOnUse">
<stop stop-color="#55A9A9"/>
<stop offset="1" stop-color="#349899"/>
</linearGradient>
<linearGradient id="paint12_linear_3204_17301" x1="206.73" y1="84.6733" x2="98.8793" y2="119.378" gradientUnits="userSpaceOnUse">
<stop stop-color="white"/>
<stop offset="1" stop-color="#D3DBEB"/>
</linearGradient>
<linearGradient id="paint13_linear_3204_17301" x1="195.991" y1="99.0238" x2="128.8" y2="99.0238" gradientUnits="userSpaceOnUse">
<stop stop-color="#8AC4C4"/>
<stop offset="1" stop-color="#349899"/>
</linearGradient>
<linearGradient id="paint14_linear_3204_17301" x1="206.73" y1="84.6734" x2="98.8786" y2="119.379" gradientUnits="userSpaceOnUse">
<stop stop-color="white"/>
<stop offset="1" stop-color="#D3DBEB"/>
</linearGradient>
<linearGradient id="paint15_linear_3204_17301" x1="182.554" y1="99.0237" x2="142.238" y2="99.0237" gradientUnits="userSpaceOnUse">
<stop stop-color="#8AC4C4"/>
<stop offset="1" stop-color="#349899"/>
</linearGradient>
<linearGradient id="paint16_linear_3204_17301" x1="206.731" y1="84.6741" x2="98.8812" y2="119.379" gradientUnits="userSpaceOnUse">
<stop stop-color="white"/>
<stop offset="1" stop-color="#D3DBEB"/>
</linearGradient>
<linearGradient id="paint17_linear_3204_17301" x1="169.113" y1="99.0233" x2="155.674" y2="99.0233" gradientUnits="userSpaceOnUse">
<stop stop-color="#8AC4C4"/>
<stop offset="1" stop-color="#349899"/>
</linearGradient>
<linearGradient id="paint18_linear_3204_17301" x1="158.658" y1="84.2188" x2="226.321" y2="39.3064" gradientUnits="userSpaceOnUse">
<stop stop-color="#8855AA"/>
<stop offset="1" stop-color="#8855AA"/>
</linearGradient>
<linearGradient id="paint19_linear_3204_17301" x1="226.875" y1="126.068" x2="233.522" y2="44.9663" gradientUnits="userSpaceOnUse">
<stop stop-color="#FFAE00"/>
<stop offset="1" stop-color="#FF7800"/>
</linearGradient>
<linearGradient id="paint20_linear_3204_17301" x1="224.48" y1="59.5469" x2="238.627" y2="59.5469" gradientUnits="userSpaceOnUse">
<stop stop-color="white"/>
<stop offset="1" stop-color="#D3DBEB"/>
</linearGradient>
<linearGradient id="paint21_linear_3204_17301" x1="213.04" y1="38.3052" x2="257.368" y2="44.0094" gradientUnits="userSpaceOnUse">
<stop offset="1.09e-06" stop-color="#FFD000"/>
<stop offset="1" stop-color="#FF7400"/>
</linearGradient>
<linearGradient id="paint22_linear_3204_17301" x1="314.684" y1="63.9647" x2="234.047" y2="73.0283" gradientUnits="userSpaceOnUse">
<stop stop-color="#8855AA"/>
<stop offset="1" stop-color="#8855AA"/>
</linearGradient>
<linearGradient id="paint23_linear_3204_17301" x1="17.4364" y1="36.6737" x2="42.8007" y2="36.6737" gradientUnits="userSpaceOnUse">
<stop stop-color="#D32F2F"/>
<stop offset="1" stop-color="#FF7800"/>
</linearGradient>
<clipPath id="clip0_3204_17301">
<rect width="85.5212" height="207.47" fill="white" transform="matrix(-1 0 0 1 273.168 19.1528)"/>
</clipPath>
<clipPath id="clip1_3204_17301">
<rect width="52.3091" height="50.3114" fill="white" transform="translate(1.66016 14.1562)"/>
</clipPath>
<clipPath id="clip2_3204_17301">
<rect width="25.3415" height="28.3708" fill="white" transform="translate(17.4375 22.4834)"/>
</clipPath>
</defs>
</svg>
