<svg width="265" height="260" viewBox="0 0 265 260" fill="none" xmlns="http://www.w3.org/2000/svg">
<g clip-path="url(#clip0_3204_17612)">
<path d="M245.318 258.21H8.91016V259.999H245.318V258.21Z" fill="#55A9A9"/>
<path d="M1.38092 113.898C-7.34041 159.406 25.0478 198.242 94.4084 197.944C163.769 197.645 119.752 254.371 177.671 257.912C235.59 261.453 263.803 226.008 256.648 147.293C249.417 68.6145 248.15 -23.7049 128.809 5.51525C53.5598 23.9642 9.54319 71.2979 1.38092 113.898Z" fill="#FFFBE6"/>
<path d="M49.5734 209.982C71.0785 204.764 113.343 200.366 126.873 220.418C140.402 240.507 126.947 247.849 102.572 238.159C78.2345 228.505 19.906 217.212 49.5734 209.982Z" fill="#FFFBE6"/>
<path d="M90.7153 229.848H68.9492V217.958H90.7153V229.848ZM70.1792 228.618H89.4853V219.151H70.1792V228.618Z" fill="#017E7F"/>
<path d="M75.809 240.507H54.043V228.581H75.809V240.507ZM55.2729 239.315H74.5791V229.848H55.2729V239.315Z" fill="#017E7F"/>
<path d="M120.719 124.82H98.9531V112.893H120.719V124.82ZM100.183 123.59H119.489V114.123H100.183V123.59Z" fill="#C8D3FB"/>
<path d="M209.497 45.2103H187.73V33.2837H209.497V45.2103ZM188.96 43.9804H208.267V34.5136H188.96V43.9804Z" fill="#C8D3FB"/>
<path d="M188.922 45.2103H167.156V33.2837H188.922V45.2103ZM168.386 43.9804H187.692V34.5136H168.386V43.9804Z" fill="#C8D3FB"/>
<path d="M199.207 55.8695H177.441V43.9429H199.207V55.8695ZM178.671 54.6395H197.978V45.1728H178.671V54.6395Z" fill="#C8D3FB"/>
<path d="M73.0903 76.1078H51.3242V64.1812H73.0903V76.1078ZM52.5542 74.9151H71.8603V65.4484H52.5542V74.9151Z" fill="#C8D3FB"/>
<path d="M87.9965 86.804H66.2305V74.8774H87.9965V86.804ZM67.4977 85.5741H86.8039V76.1074H67.4977V85.5741Z" fill="#C8D3FB"/>
<path d="M229.477 229.103H207.711V217.214H229.477V229.103ZM208.941 227.873H228.247V218.407H208.941V227.873Z" fill="#349899"/>
<path d="M208.903 229.103H187.137V217.214H208.903V229.103ZM188.367 227.873H207.673V218.407H188.367V227.873Z" fill="#349899"/>
<path d="M219.188 239.8H197.422V227.91H219.188V239.8ZM198.652 238.57H217.958V229.103H198.652V238.57Z" fill="#349899"/>
<path d="M263.057 31.0077V57.0972C263.057 62.4642 258.696 66.7876 253.367 66.7876H133.616C128.249 66.7876 123.926 62.4642 123.926 57.0972V31.0077C123.926 25.6408 128.249 21.3174 133.616 21.3174H253.367C258.734 21.3174 263.057 25.678 263.057 31.0077Z" fill="#C8B0D8"/>
<path d="M158.027 31.4917H129.738V56.6121H158.027V31.4917Z" fill="white"/>
<path d="M152.81 33.8399C151.915 33.0944 150.611 33.169 149.828 34.0262L143.902 40.8467L137.976 34.0262C137.231 33.1317 135.889 33.0572 134.994 33.8399C134.137 34.5853 134.025 35.927 134.808 36.8215L141.107 44.052L134.808 51.3198C134.063 52.2143 134.137 53.5188 134.994 54.3014C135.889 55.0469 137.193 54.9723 137.976 54.1151L143.902 47.2946L149.828 54.1151C150.574 55.0096 151.915 55.0841 152.81 54.3014C153.704 53.556 153.779 52.2143 152.996 51.3198L146.697 44.052L152.996 36.8215C153.779 35.927 153.667 34.6225 152.81 33.8399Z" fill="url(#paint0_linear_3204_17612)"/>
<path d="M164.363 35.8525V38.2006H208.753L208.79 35.8525H164.363Z" fill="#312890"/>
<path d="M164.363 42.897V45.245H258.546L258.583 42.897H164.363Z" fill="#312890"/>
<path d="M164.363 49.9409V52.289H238.83L238.867 49.9409H164.363Z" fill="#312890"/>
<path d="M213.375 38.2006H227.091L227.128 35.8525H213.45L213.375 38.2006Z" fill="#312890"/>
<path opacity="0.3" d="M160.749 60.3779V66.8257H133.616C128.249 66.8257 123.926 62.5023 123.926 57.1353V50.6875H151.059C151.581 50.6875 152.065 50.7248 152.55 50.7993C154.711 51.1347 156.612 52.1783 158.028 53.6692C159.743 55.3836 160.749 57.7689 160.749 60.3779Z" fill="#312890"/>
<path d="M152.514 67.4223V93.549C152.514 96.3816 151.321 98.916 149.383 100.668C147.669 102.27 145.358 103.239 142.824 103.239H23.0732C17.7062 103.239 13.3828 98.916 13.3828 93.549V67.4223C13.3828 62.0553 17.7435 57.7319 23.0732 57.7319H142.824C147.967 57.7319 152.179 61.7572 152.477 66.826C152.514 67.0123 152.514 67.1987 152.514 67.4223Z" fill="#C8B0D8"/>
<path d="M47.4837 67.9067H19.1953V93.0272H47.4837V67.9067Z" fill="white"/>
<path d="M53.7812 72.2681V74.5789H98.1706L98.2451 72.2681H53.7812Z" fill="#460174"/>
<path d="M53.7812 79.3115V81.6223H147.964L148.039 79.3115H53.7812Z" fill="#460174"/>
<path d="M53.7812 86.3555V88.7035H128.248L128.323 86.3555H53.7812Z" fill="#460174"/>
<path d="M102.828 74.5789H116.544L116.581 72.2681H102.865L102.828 74.5789Z" fill="#460174"/>
<path d="M31.3462 91.7228C30.4517 91.7228 28.3645 91.1637 22.4385 82.7778C21.8421 81.9579 22.0658 80.8397 22.8857 80.2434C23.7057 79.6471 24.8238 79.8707 25.4201 80.6906C27.2464 83.2623 29.5944 86.2067 30.9735 87.5112C33.5079 83.3741 40.8874 71.932 41.2229 71.4103C41.7819 70.553 42.9001 70.3294 43.72 70.8512C44.5772 71.4103 44.8009 72.5284 44.2791 73.3483C41.521 77.6717 34.1415 89.1511 33.3588 90.5674C32.9861 91.2382 32.3152 91.6855 31.5325 91.7228C31.458 91.7228 31.4207 91.7228 31.3462 91.7228Z" fill="#55A9A9"/>
<path d="M264.623 128.546V154.673C264.623 160.04 260.3 164.363 254.933 164.363H135.183C130.934 164.363 127.318 161.642 126.014 157.841C125.828 157.319 125.679 156.76 125.604 156.164C125.529 155.679 125.492 155.157 125.492 154.635V128.509C125.492 123.142 129.816 118.818 135.183 118.818H254.933C260.3 118.856 264.623 123.216 264.623 128.546Z" fill="#C8B0D8"/>
<path d="M159.593 129.03H131.305V154.151H159.593V129.03Z" fill="white"/>
<path d="M165.891 133.391V135.739H210.28L210.355 133.391H165.891Z" fill="#460174"/>
<path d="M165.891 140.435V142.783H260.074L260.148 140.435H165.891Z" fill="#460174"/>
<path d="M165.891 147.479V149.827H240.357L240.432 147.479H165.891Z" fill="#460174"/>
<path d="M214.938 135.739H228.653L228.69 133.391H214.975L214.938 135.739Z" fill="#460174"/>
<path d="M145.468 151.728C145.095 152.398 144.425 152.846 143.642 152.883C143.567 152.883 143.53 152.883 143.456 152.883C142.561 152.883 140.474 152.324 134.548 143.938C133.952 143.118 134.175 142 134.995 141.404C135.815 140.807 136.933 141.031 137.53 141.851C139.356 144.422 141.704 147.367 143.083 148.671C145.654 144.534 152.997 133.092 153.332 132.57C153.891 131.713 155.009 131.49 155.829 132.011C156.687 132.57 156.91 133.689 156.388 134.508L145.468 151.728Z" fill="#55A9A9"/>
<path opacity="0.3" d="M176.255 159.369V164.363H135.183C130.934 164.363 127.319 161.642 126.014 157.841C125.977 157.282 125.977 156.723 125.94 156.164C125.94 156.052 125.94 155.903 125.903 155.791C125.865 155.344 125.865 154.934 125.828 154.486L136.003 155.754L140.662 155.791C140.774 155.232 140.923 154.673 141.035 154.151C141.184 153.443 141.37 152.772 141.594 152.101C141.854 151.244 142.115 150.424 142.414 149.604H166.528C167.124 149.604 167.72 149.641 168.317 149.753C172.826 150.648 176.255 154.598 176.255 159.369Z" fill="#460174"/>
<path d="M169.135 165.854V191.981C169.135 197.348 164.812 201.671 159.445 201.671H39.6943C34.3273 201.671 30.0039 197.348 30.0039 191.981V165.854C30.0039 160.487 34.3646 156.164 39.6943 156.164H159.445C164.29 156.164 168.278 159.704 168.986 164.326C169.098 164.848 169.135 165.369 169.135 165.854Z" fill="#C8B0D8"/>
<path d="M64.1048 166.376H35.8164V191.496H64.1048V166.376Z" fill="white"/>
<path d="M70.4023 170.7V173.048H114.792L114.866 170.7H70.4023Z" fill="#460174"/>
<path d="M70.4023 177.743V180.091H164.623L164.66 177.743H70.4023Z" fill="#460174"/>
<path d="M70.4023 184.787V187.135H144.869L144.944 184.787H70.4023Z" fill="#460174"/>
<path d="M119.449 173.048H133.165L133.202 170.7H119.486L119.449 173.048Z" fill="#460174"/>
<path d="M58.8499 169.171C57.9554 168.426 56.6509 168.5 55.8682 169.357L49.9422 176.178L44.0162 169.357C43.2708 168.463 41.929 168.388 41.0345 169.171C40.14 169.916 40.0655 171.258 40.8482 172.153L47.1469 179.42L40.8482 186.688C40.1027 187.583 40.1773 188.887 41.0345 189.67C41.929 190.415 43.2335 190.341 44.0162 189.483L49.9422 182.663L55.8682 189.483C56.6136 190.378 57.9554 190.452 58.8499 189.67C59.7444 188.924 59.8189 187.583 59.0362 186.688L52.7375 179.42L59.0362 172.153C59.8189 171.258 59.7444 169.916 58.8499 169.171Z" fill="url(#paint1_linear_3204_17612)"/>
<g opacity="0.3">
<path d="M84.8662 91.7224C84.6799 90.9025 84.009 90.3061 83.189 90.3061H39.6569C38.4643 90.3061 37.5698 91.4988 37.8307 92.7287L37.9052 93.0269L40.0669 103.202H87.2888L84.8662 91.7224ZM141.592 95.7849C136.821 93.2133 130.933 89.2998 128.287 87.6599C127.653 87.2872 127.206 87.0263 126.982 86.9145C126.609 86.7654 126.199 86.6536 125.752 86.5791C125.603 86.5045 125.417 86.43 125.23 86.3182C122.92 85.2373 120.199 84.6037 118.149 84.2683L115.913 82.3675C115.875 82.1439 115.801 81.883 115.801 81.6221C115.689 80.8767 115.689 80.0567 115.726 79.274C115.726 78.9759 115.764 78.6404 115.801 78.3423C116.136 77.7087 116.36 77.0005 116.472 76.2924C117.254 76.4415 117.813 76.516 117.813 76.516C117.702 75.6215 117.813 74.7643 118.074 73.9071C118.932 73.3107 119.826 72.1926 119.602 70.2918C120.348 68.6892 121.056 66.9375 121.131 64.8876C121.28 61.6823 119.64 58.8125 116.77 57.6943H102.309C97.3891 61.4214 100.371 69.0246 100.371 69.0246C100.371 69.0246 100.445 67.5338 102.682 66.8256L102.868 72.7889V72.8262L102.905 74.5407L102.98 76.4787C103.092 77.5223 103.613 78.4541 104.359 79.2368C104.955 79.8704 105.701 80.3922 106.558 80.8021C106.595 80.8021 106.632 80.8394 106.632 80.8394C106.968 80.9885 107.34 81.1376 107.713 81.2494C107.75 81.2494 107.75 81.2867 107.788 81.2867C107.75 81.3985 107.713 81.5103 107.676 81.5848C107.564 81.9575 107.415 82.2557 107.266 82.5166L105.067 83.4856C102.905 83.7465 100.967 84.3056 99.6627 85.4237C99.1409 85.6473 98.6564 85.9455 98.2464 86.2809C97.9109 86.5418 97.6128 86.84 97.3519 87.1381C97.2028 87.3618 96.9419 87.8836 96.6437 88.5917C95.4883 91.3497 93.3266 97.1639 90.1959 101.786C89.9723 102.121 89.7859 102.419 89.5623 102.755C89.4878 102.866 89.4132 102.978 89.3014 103.09H142.822C145.356 103.09 147.667 102.121 149.382 100.518C147.406 99.3256 144.872 97.723 141.592 95.7849ZM218.78 149.827C218.742 149.045 218.668 148.262 218.556 147.479C218.37 145.877 218.072 144.311 217.662 142.783C217.438 142.001 217.214 141.218 216.953 140.435C216.432 138.833 215.761 137.267 214.978 135.739C214.978 135.702 214.941 135.702 214.941 135.665C212.593 131.08 209.201 126.831 204.729 122.881C203.051 121.427 201.337 120.085 199.473 118.893H135.182C129.815 118.893 125.491 123.216 125.491 128.583V154.673C125.491 155.194 125.528 155.716 125.603 156.201H87.8479C87.8479 156.201 87.8479 156.201 87.8479 156.238C87.8479 156.499 87.8106 156.722 87.8106 157.021C87.8106 157.319 87.7733 157.617 87.7733 157.878C87.7733 158.139 87.736 158.4 87.736 158.698C87.736 158.735 87.736 158.772 87.736 158.81V158.884C87.736 159.22 87.6988 159.555 87.6988 159.89V160.151C87.6988 160.338 87.6988 160.487 87.6988 160.673C87.6988 160.785 87.6988 160.934 87.6988 161.046C87.6242 164.065 87.5497 167.345 87.5124 170.736C87.5124 171.519 87.5124 172.302 87.4752 173.084C87.4752 174.65 87.4379 176.215 87.4379 177.78C87.4379 178.563 87.4379 179.346 87.4006 180.128C87.4006 181.731 87.4006 183.296 87.3633 184.824V185.495C87.3633 186.054 87.3633 186.614 87.3633 187.173C87.3261 192.875 87.2515 198.018 87.1024 201.708H102.644C102.682 201.596 102.682 201.447 102.719 201.335C102.756 201.075 102.793 200.814 102.868 200.553C102.905 200.292 102.942 200.068 102.98 199.807C103.017 199.509 103.054 199.248 103.129 198.95C103.166 198.689 103.241 198.428 103.278 198.167C103.315 197.869 103.39 197.534 103.427 197.236C103.464 196.975 103.502 196.714 103.576 196.416C103.651 196.118 103.688 195.782 103.762 195.484C103.8 195.186 103.874 194.888 103.912 194.627C103.986 194.291 104.023 193.993 104.098 193.658C104.172 193.359 104.21 193.061 104.284 192.763C104.321 192.428 104.396 192.13 104.471 191.794C104.545 191.496 104.582 191.198 104.657 190.862C104.731 190.527 104.806 190.154 104.881 189.819C104.955 189.521 104.992 189.26 105.03 188.999C105.104 188.626 105.179 188.253 105.253 187.881C105.291 187.657 105.328 187.433 105.365 187.173L105.402 186.986C105.477 186.614 105.551 186.204 105.663 185.831C105.701 185.57 105.775 185.309 105.812 185.085C105.812 185.011 105.85 184.936 105.85 184.862C105.887 184.526 105.961 184.191 106.036 183.855C106.11 183.52 106.148 183.185 106.222 182.886C106.371 182.066 106.558 181.209 106.707 180.389C106.707 180.352 106.744 180.277 106.744 180.203V180.166C106.781 179.942 106.819 179.718 106.856 179.495C106.893 179.718 106.93 179.942 106.93 180.166C107.154 181.731 107.378 183.334 107.601 184.862C107.713 185.644 107.825 186.427 107.937 187.21C108.682 192.614 109.353 197.72 109.838 201.745H125.417C125.454 201.447 125.454 201.149 125.454 200.814C125.342 197.385 125.454 192.577 125.603 187.21C125.64 186.427 125.64 185.682 125.678 184.862C125.715 183.334 125.752 181.731 125.789 180.166C125.827 179.383 125.827 178.6 125.864 177.818C125.864 177.669 125.864 177.557 125.864 177.408C125.901 175.991 125.938 174.538 125.976 173.122C125.976 172.339 126.013 171.556 126.013 170.773C126.013 169.767 126.05 168.761 126.05 167.792C126.05 167.158 126.05 166.562 126.05 165.928V164.102C126.05 161.903 126.013 159.816 125.938 157.915C125.901 157.356 125.901 156.797 125.864 156.238C125.864 156.126 125.864 155.977 125.827 155.865C125.789 155.418 125.789 155.008 125.752 154.561L135.927 155.828L140.586 155.865C140.698 155.306 140.847 154.747 140.959 154.225C141.108 153.517 141.294 152.846 141.518 152.175C141.778 151.318 142.039 150.498 142.338 149.678C142.487 149.268 142.636 148.896 142.785 148.486C144.499 144.2 146.773 140.771 149.643 138.124C149.829 137.901 150.09 137.714 150.313 137.528C152.214 135.925 154.301 134.621 156.575 133.652C157.507 133.279 158.476 132.944 159.482 132.646C161.606 132.049 163.843 131.677 166.228 131.565C169.247 131.788 171.968 132.422 174.428 133.391C175.993 134.025 177.447 134.807 178.751 135.739C179.385 136.186 180.018 136.671 180.615 137.193C181.77 138.236 182.776 139.317 183.596 140.435C184.155 141.181 184.64 141.963 185.087 142.783C185.87 144.274 186.429 145.839 186.727 147.479C186.876 148.225 186.988 149.007 187.025 149.827C187.062 150.2 187.062 150.61 187.062 150.983C187.062 154.859 185.87 158.4 183.447 161.605C182.925 162.276 182.068 163.17 180.838 164.326H216.096C217.848 160.3 218.705 156.126 218.705 151.803C218.817 151.169 218.817 150.498 218.78 149.827ZM169.098 174.538C167.533 175.842 166.042 177.072 164.663 178.302C163.992 178.898 163.358 179.495 162.762 180.091C158.14 184.452 154.898 188.514 152.997 192.241C151.581 194.999 150.537 198.13 149.903 201.671H159.482C164.849 201.671 169.172 197.347 169.172 191.98V174.501C169.135 174.501 169.098 174.538 169.098 174.538Z" fill="#312890"/>
</g>
<path d="M170.963 221.014L145.879 221.051C145.805 217.436 145.768 215.237 145.768 214.455C145.768 206.33 147.109 199.621 149.793 194.366C152.476 189.111 157.843 183.222 165.894 176.625C173.944 170.065 178.789 165.742 180.355 163.729C182.777 160.524 183.97 156.983 183.97 153.107C183.97 147.74 181.808 143.119 177.522 139.28C173.236 135.441 167.422 133.54 160.154 133.54C153.147 133.54 147.258 135.553 142.525 139.541C137.792 143.529 134.549 149.641 132.797 157.84L128.101 157.766L107.379 154.71C108.087 142.969 113.081 132.981 122.362 124.781C131.642 116.582 143.83 112.445 158.924 112.445C174.801 112.445 187.436 116.582 196.828 124.856C206.221 133.13 210.917 142.82 210.917 153.815C210.917 159.928 209.202 165.705 205.773 171.146C202.344 176.588 194.965 184.004 183.709 193.397C177.858 198.242 174.242 202.155 172.863 205.1C171.447 208.119 170.814 213.411 170.963 221.014ZM145.917 244.42C145.917 236.78 152.104 230.593 159.744 230.593C167.385 230.593 173.572 236.78 173.572 244.42C173.572 252.061 167.385 258.248 159.744 258.248C152.104 258.248 145.917 252.061 145.917 244.42Z" fill="#01595A"/>
<path d="M166.304 220.977L141.221 221.014C141.147 217.399 141.109 215.2 141.109 214.417C141.109 206.292 142.451 199.584 145.135 194.329C147.818 189.073 153.185 183.185 161.235 176.588C169.286 170.028 174.131 165.705 175.696 163.692C178.119 160.487 179.312 156.946 179.312 153.07C179.312 147.703 177.15 143.081 172.864 139.243C168.578 135.404 162.764 133.503 155.496 133.503C148.489 133.503 142.6 135.516 137.867 139.503C133.171 143.491 129.891 149.604 128.139 157.803L102.758 154.673C103.466 142.932 108.46 132.944 117.741 124.744C127.021 116.545 139.208 112.408 154.303 112.408C170.18 112.408 182.815 116.545 192.207 124.819C201.6 133.093 206.296 142.783 206.296 153.778C206.296 159.891 204.581 165.667 201.152 171.109C197.723 176.55 190.344 183.967 179.088 193.36C173.237 198.205 169.621 202.118 168.205 205.063C166.789 208.081 166.155 213.374 166.304 220.977ZM141.221 244.346C141.221 236.705 147.408 230.518 155.049 230.518C162.689 230.518 168.876 236.705 168.876 244.346C168.876 251.986 162.689 258.173 155.049 258.173C147.408 258.173 141.221 251.986 141.221 244.346Z" fill="url(#paint2_linear_3204_17612)"/>
<path d="M80.8432 149.53C82.4458 142.187 86.8065 137.268 88.26 136.001C90.6826 133.951 97.3913 134.137 100.112 139.728C102.833 145.318 103.839 148.673 103.094 158.736C102.348 168.799 93.9997 203.162 93.9997 210.691C93.9997 218.22 78.3088 217.4 79.1287 206.591C79.9114 195.857 78.9796 158.027 80.8432 149.53Z" fill="#4D0180"/>
<path d="M103.279 151.692C103.129 146.66 102.049 143.79 100.073 139.765C98.5452 136.634 95.7871 135.218 93.2155 134.882C93.0664 134.845 92.88 134.845 92.7309 134.845C92.5819 134.845 92.4328 134.845 92.321 134.845C91.911 134.845 91.501 134.845 91.091 134.92C90.5692 134.994 90.0847 135.106 89.6375 135.255C89.4138 135.33 89.1902 135.442 89.0039 135.516C88.8921 135.553 88.8175 135.628 88.7057 135.665C88.5194 135.777 88.3703 135.889 88.2212 136.038C88.1466 136.112 88.0348 136.224 87.923 136.336C87.8485 136.411 87.8112 136.448 87.7367 136.522C87.6994 136.56 87.6994 136.56 87.6621 136.597C87.6249 136.634 87.5503 136.709 87.513 136.746C87.4758 136.783 87.4758 136.783 87.4385 136.821C87.4012 136.895 87.3267 136.932 87.2522 137.007C87.2149 137.044 87.2149 137.044 87.1776 137.081C87.0285 137.268 86.8422 137.454 86.6558 137.678C86.6185 137.715 86.6185 137.752 86.5813 137.79C86.5067 137.864 86.4322 137.939 86.3949 138.05C86.3577 138.088 86.3204 138.125 86.2831 138.162C86.2086 138.237 86.134 138.349 86.0595 138.423C86.0222 138.46 85.9849 138.498 85.9849 138.535C85.7986 138.796 85.575 139.057 85.3886 139.355C85.3513 139.392 85.3141 139.43 85.3141 139.467C85.2395 139.579 85.165 139.69 85.0905 139.802C85.0532 139.839 85.0159 139.914 84.9786 139.951C84.9041 140.063 84.8296 140.175 84.755 140.287C84.7177 140.324 84.6805 140.361 84.6805 140.436C84.4568 140.771 84.2705 141.107 84.0469 141.479C84.0096 141.517 83.9723 141.591 83.9723 141.628C83.8978 141.778 83.8232 141.889 83.7487 142.038C83.7114 142.113 83.6742 142.15 83.6369 142.225C83.5624 142.374 83.4878 142.486 83.4133 142.635C83.376 142.709 83.3387 142.747 83.3387 142.821C83.2269 143.007 83.1524 143.231 83.0406 143.417C82.9288 143.604 82.8542 143.827 82.7424 144.051C82.7051 144.126 82.6679 144.163 82.6679 144.237C82.5933 144.387 82.5188 144.536 82.4815 144.685C82.4442 144.759 82.407 144.834 82.3697 144.908C82.2952 145.057 82.2579 145.206 82.1833 145.393C82.1461 145.467 82.1461 145.542 82.1088 145.616C82.0343 145.84 81.9224 146.064 81.8479 146.287C81.7734 146.511 81.6988 146.772 81.6243 146.995C81.587 147.07 81.587 147.145 81.5497 147.219C81.5125 147.405 81.4379 147.555 81.4007 147.741C81.3634 147.815 81.3634 147.927 81.3261 148.002C81.2888 148.188 81.2143 148.337 81.177 148.524C81.1398 148.598 81.1398 148.673 81.1025 148.784C81.028 149.045 80.9907 149.306 80.9161 149.567C80.8789 149.716 80.8416 149.865 80.8416 150.014C80.8416 150.052 80.8043 150.126 80.8043 150.163C80.7671 150.275 80.7671 150.387 80.7298 150.499C80.7298 150.573 80.6925 150.648 80.6925 150.723C80.6925 150.834 80.6552 150.946 80.6552 151.095C80.6552 151.17 80.618 151.244 80.618 151.319C80.618 151.431 80.5807 151.58 80.5807 151.729C80.5807 151.803 80.5807 151.878 80.5434 151.952C80.5434 152.102 80.5062 152.288 80.5062 152.437C80.5062 152.512 80.5062 152.549 80.5062 152.623C80.4689 153.108 80.4316 153.592 80.3571 154.114C80.3571 154.151 80.3571 154.226 80.3571 154.263C80.3571 154.487 80.3198 154.673 80.3198 154.897C80.3198 154.971 80.3198 155.046 80.3198 155.12C80.3198 155.344 80.2825 155.53 80.2825 155.754C80.2825 155.829 80.2825 155.903 80.2825 155.978C80.2825 156.201 80.2453 156.462 80.2453 156.686C80.2453 156.76 80.2453 156.798 80.2453 156.872C80.2453 157.17 80.208 157.468 80.208 157.767C80.1707 158.736 80.1335 159.779 80.0589 160.86C80.0589 160.897 80.0589 160.897 80.0589 160.935C80.0589 161.27 80.0216 161.606 80.0216 161.941C80.0216 161.978 80.0216 161.978 80.0216 162.016C80.0216 162.388 79.9844 162.724 79.9844 163.096C86.6558 167.867 98.1352 167.755 97.7625 171.147C97.6134 172.675 92.7309 205.287 92.1719 206.591C92.0973 206.74 93.0664 211.399 94.1099 211.362C94.1472 211.175 94.1472 210.952 94.1472 210.766C94.1472 203.349 102.235 169.954 103.204 159.295C103.204 159.295 103.204 159.295 103.204 159.257C103.204 159.108 103.241 158.922 103.241 158.773C103.353 157.208 103.428 155.791 103.465 154.524C103.316 153.518 103.316 152.549 103.279 151.692Z" fill="#1C0A76"/>
<path d="M117.217 150.834C115.242 143.157 110.657 137.566 109.129 136.075C106.632 133.653 99.9979 132.945 97.6125 138.274C95.2272 143.567 94.4073 146.884 95.7117 157.208C97.0162 167.532 102.346 202.901 102.756 210.579C103.166 218.257 117.962 214.008 117.664 202.79C117.329 190.453 119.49 159.705 117.217 150.834Z" fill="#4D0180"/>
<path d="M117.629 204.317L117.145 211.175C117.033 212.778 116.436 214.306 115.43 215.573L113.977 217.362L109.914 215.312V205.063L117.629 204.317Z" fill="#4D0180"/>
<path d="M100.075 163.842C103.615 163.693 109.169 163.432 110.361 163.954C112.896 165.072 114.647 167.606 114.349 170.439C113.976 173.719 115.803 204.132 115.803 204.132L117.182 210.542L117.592 204.281C117.629 203.796 117.666 203.312 117.629 202.79C117.294 190.416 119.455 159.705 117.182 150.797C115.393 143.828 111.442 138.573 109.616 136.56C109.429 136.336 109.243 136.187 109.094 136.038C106.597 133.616 99.9627 132.907 97.5774 138.237C95.1921 143.53 94.3721 146.847 95.6766 157.171C95.7511 157.655 96.0866 159.407 96.422 161.009C96.7947 162.724 98.3228 163.917 100.075 163.842Z" fill="#1C0A76"/>
<path d="M102.796 73.1251C103.393 78.1939 109.915 78.6038 109.915 78.6038C109.468 74.8395 113.046 71.746 113.232 66.9754C113.456 62.0184 109.431 57.8814 103.057 59.7076C99.1438 60.8257 102.2 68.0563 102.796 73.1251Z" fill="#200036"/>
<path d="M72.7169 117.44C74.245 114.346 76.1831 112.11 81.6991 104.954C81.8855 104.619 82.1091 104.283 82.2954 103.985C86.2461 98.0963 88.6687 90.344 89.4887 89.3004C92.4703 85.4615 102.794 85.1261 101.117 95.5246C99.589 104.991 88.8551 120.831 82.4818 123.44C80.0965 124.409 75.1395 122.844 73.9095 120.98C74.1704 120.682 72.2696 118.334 72.7169 117.44Z" fill="#4D0180"/>
<path d="M77.8242 113.862C70.78 114.645 55.3127 123.627 51.0638 122.695C49.1258 122.248 42.9016 125.043 44.3924 127.018C45.1005 127.987 51.5484 128.025 54.2318 127.801C59.077 127.391 73.1653 125.938 80.1349 124.484C86.0982 123.291 82.5948 113.377 77.8242 113.862Z" fill="#FFD2A7"/>
<path d="M109.578 86.2449C113.119 86.6921 119.604 88.2948 121.542 91.6864C123.48 95.078 122.064 127.429 119.604 148.599C119.604 148.599 90.1975 161.01 79.7617 147.667C79.7617 147.667 87.0295 93.1399 91.2038 88.0711C94.67 83.8968 106.038 85.7976 109.578 86.2449Z" fill="#8855AA"/>
<path d="M110.326 86.3561C110.326 86.3561 97.9145 103.612 96.4609 105.029C96.4609 105.029 96.9082 90.2322 97.1691 85.7598L110.326 86.3561Z" fill="white"/>
<path d="M108.051 79.0509C108.2 78.38 108.312 77.9701 108.312 77.9701C108.312 77.9701 101.268 72.3422 100.336 78.0446L108.051 79.0509Z" fill="url(#paint3_linear_3204_17612)"/>
<path d="M100.484 89.9715L98.3594 85.909C98.3594 85.909 100.558 84.4182 100.26 80.5048C99.552 71.0008 108.311 77.9704 108.311 77.9704C108.311 77.9704 106.708 85.8718 109.578 86.2445L100.484 89.9715Z" fill="#FFD2A7"/>
<path d="M100.521 88.1078C105.441 88.7414 105.218 82.5545 105.441 81.3991C105.665 80.3183 108.274 77.9702 108.274 77.9702C108.274 77.9702 106.671 85.8716 109.541 86.2443L100.447 89.9341L99.1797 87.5115C99.5524 87.8469 99.9996 88.0333 100.521 88.1078Z" fill="#FFBC8E"/>
<path d="M122.362 103.725L119.082 111.551C118.076 114.608 117.069 117.887 117.069 119.676C117.069 119.676 118.336 153.071 86.1719 152.288C98.993 157.32 119.641 148.598 119.641 148.598C120.796 138.498 122.66 115.651 122.362 103.725Z" fill="#4D0180"/>
<path d="M133.73 97.8355C127.878 94.6675 120.313 89.4869 119.12 88.9651C114.722 87.027 105.069 92.0958 111.964 99.8481C118.039 106.669 135.37 114.794 141.221 115.278C143.756 115.502 148.936 113.377 147.967 108.868C148.005 108.085 147.147 105.7 133.73 97.8355Z" fill="#8855AA"/>
<path d="M94.7812 67.3483L95.154 78.6041C95.5639 81.8839 99.6637 84.0828 103.093 83.6729C106.559 83.2629 109.056 80.244 108.646 76.9641L108.609 76.7033C108.609 76.7033 112.149 76.0324 111.739 72.3799C111.292 68.7273 109.093 70.5163 109.093 70.5163L108.907 68.951C108.683 67.162 107.043 65.8575 105.254 66.0811L94.7812 67.3483Z" fill="#FFD2A7"/>
<path d="M109.095 70.5162L108.909 68.8017C108.723 67.0873 107.157 65.8573 105.443 66.0809L103.691 66.3046C103.691 66.3418 103.691 66.3791 103.728 66.4164L105.256 79.0139C105.517 81.2128 103.579 83.1882 101.455 83.3745C100.784 83.4491 99.4049 83.1882 98.8086 82.9646C100.523 83.7472 101.902 83.859 103.169 83.71C106.635 83.3 109.133 80.2811 108.723 77.0012L108.685 76.7403C108.685 76.7403 112.226 76.0695 111.816 72.417C111.294 68.7272 109.095 70.5162 109.095 70.5162Z" fill="#FFBC8E"/>
<path d="M99.4045 84.6421C99.1436 87.1765 100.485 89.9345 100.485 89.9345C100.485 89.9345 99.0318 89.04 97.4664 90.7172C96.7955 91.4253 96.1992 91.4253 96.1992 91.4253C96.1992 91.4253 96.2365 89.3755 97.2055 85.5739L99.4045 84.6421Z" fill="#C8B0D8"/>
<path d="M138.389 105.588C132.165 108.756 119.046 120.831 116.027 123.925C114.238 125.751 118.636 129.068 120.052 127.54C123.332 124.037 140.141 116.844 146.067 113.079C151.173 109.874 142.638 103.463 138.389 105.588Z" fill="#FFD2A7"/>
<path d="M108.05 84.4556C106.448 86.9154 100.484 89.9716 100.484 89.9716C100.484 89.9716 102.311 89.5989 104.062 91.947C104.808 92.9533 105.963 93.326 105.963 93.326C105.963 93.326 109.765 90.4189 110.287 86.3564L108.05 84.4556Z" fill="#C8B0D8"/>
<path d="M103.728 65.1492C103.728 65.1492 101.753 68.5036 97.1683 68.6154C92.584 68.7272 92.5095 71.1498 92.5095 71.1498C92.5095 71.1498 89.3787 63.1739 94.8203 59.5587C100.225 55.9434 104.287 59.4468 104.287 59.4468L103.728 65.1492Z" fill="#200036"/>
<path d="M81.962 122.211H35.6719V124.671H81.962V122.211Z" fill="url(#paint4_linear_3204_17612)"/>
<path d="M82 124.634H103.319V123.255C103.319 122.658 102.834 122.174 102.238 122.174H82V124.634Z" fill="url(#paint5_linear_3204_17612)"/>
<path d="M36.9743 122.211H83.1154L77.0403 93.8103C76.8539 92.9904 76.1831 92.394 75.3631 92.394H33.8063C32.1664 92.394 30.9365 94.034 31.3092 95.7484L36.9743 122.211Z" fill="#8855AA"/>
<path d="M35.8579 122.211H81.999L75.9239 93.8103C75.7375 92.9904 75.0666 92.394 74.2467 92.394H31.8327C30.64 92.394 29.7455 93.5867 30.0064 94.8166L35.8579 122.211Z" fill="url(#paint6_linear_3204_17612)"/>
<path opacity="0.34" d="M53.9723 92.394L40.9648 122.211H46.9281L60.3828 92.394H53.9723Z" fill="#DAE7FF"/>
<path opacity="0.34" d="M63.6616 92.394L50.6914 122.211H53.0022L66.4569 92.394H63.6616Z" fill="#DAE7FF"/>
<path d="M54.7903 124.633C54.604 124.111 54.0449 123.291 53.374 123.515C53.2995 123.552 53.2249 123.589 53.1877 123.627C53.1877 123.254 53.1131 122.918 52.9641 122.546C52.6659 121.8 51.8459 120.757 51.026 121.502C50.6905 121.8 50.5042 122.21 50.3178 122.62C50.0569 121.949 49.6097 121.428 48.7897 121.167C47.5971 120.831 47.2244 121.689 47.0753 122.62C46.7399 121.726 46.0317 120.459 45.0627 121.241C44.5409 121.689 44.28 122.62 44.0564 123.254C43.7582 124.148 43.5719 125.08 43.4973 126.012C43.4973 126.049 43.4973 126.086 43.4973 126.124C43.4228 126.236 43.4228 126.385 43.4973 126.534C43.9818 127.466 45.2118 128.36 46.069 127.354C46.2926 127.093 46.479 126.795 46.6653 126.496C46.7399 127.391 47.038 128.099 47.9325 128.211C48.8643 128.323 49.4979 127.503 49.9079 126.608C49.9079 126.646 49.9079 126.646 49.9451 126.683C50.2433 127.056 50.6533 127.54 51.1751 127.466C51.585 127.428 51.9205 127.018 52.1441 126.646C52.1814 126.757 52.2186 126.832 52.3305 126.869C53.8958 127.54 55.3121 126.124 54.7903 124.633Z" fill="#FFD2A7"/>
<path d="M76.8551 253.701C80.5077 252.471 78.8305 246.657 79.2405 243.34L84.5329 245.315C84.5329 245.315 84.9801 251.204 85.7628 255.043C86.5455 258.882 85.4274 258.509 85.4274 258.509L68.8047 258.36C68.8047 258.397 73.2026 254.931 76.8551 253.701Z" fill="#FFD2A7"/>
<path d="M76.8551 253.701C77.9733 253.366 78.2342 252.62 78.905 251.577C79.315 250.831 80.6195 252.136 81.2531 253.589C81.2531 253.589 84.1229 254.745 85.651 254.298C85.6883 254.558 85.7256 254.819 85.7628 255.08C86.5455 258.919 85.4274 258.546 85.4274 258.546L68.8047 258.397C69.6619 255.267 73.3517 254.782 76.8551 253.701Z" fill="#1C0A76"/>
<path d="M86.061 257.54C85.9865 258.733 85.4274 258.547 85.4274 258.547L68.8047 258.397C68.8047 258.397 68.8792 257.987 69.2147 257.391L86.061 257.54Z" fill="#1C0A76"/>
<path d="M80.0968 205.66C77.0406 209.051 78.9041 232.42 78.0469 249.303C78.0469 249.303 83.6375 250.943 86.8427 249.49C86.8427 249.49 95.6759 216.99 93.7751 210.244C91.2034 201.262 84.2338 201.075 80.0968 205.66Z" fill="#4D0180"/>
<path d="M93.7741 210.281C93.3641 208.902 92.656 207.337 92.0596 206.331C92.0596 206.778 86.2081 235.849 85.5 249.9C85.7982 249.825 86.0963 249.751 86.3945 249.676C86.5436 249.602 86.7299 249.565 86.879 249.49C86.879 249.49 89.6743 238.868 91.9851 228.022C93.4759 220.456 94.5568 213.077 93.7741 210.281Z" fill="#1C0A76"/>
<path d="M68.2836 250.086C70.1099 246.657 76.2968 241.588 78.9431 239.613L74.5824 236.035C74.5824 236.035 70.7435 240.544 67.0537 241.923C64.5939 242.855 64.3702 241.402 64.3702 241.402L63.2148 257.652C63.2894 257.652 66.4947 253.477 68.2836 250.086Z" fill="#FFD2A7"/>
<path d="M62.4688 258.583L62.916 242.072C62.916 242.072 62.7296 241.476 63.9968 241.252C64.6304 241.141 64.6304 241.066 66.3076 241.327C66.6058 241.364 66.9412 241.401 67.2767 241.439C67.0903 243.004 68.2084 245.389 68.2084 245.389C70.0347 246.135 70.7801 248.52 69.8111 249.117C68.0966 250.048 67.6494 252.098 67.1276 253.514C65.9722 256.608 64.7423 257.353 63.5123 258.061C62.916 258.434 62.4688 258.583 62.4688 258.583Z" fill="#200036"/>
<path d="M115.131 215.089C114.199 221.201 88.8549 233.65 73.9466 245.241C73.9466 245.241 70.0705 241.104 69.5859 237.489C69.5859 237.489 93.2901 212.89 99.887 208.976C111.515 202.119 116.137 208.529 115.131 215.089Z" fill="#4D0180"/>
<path d="M76.8179 253.813C77.936 253.478 78.1596 252.732 78.8305 251.652C79.2405 250.906 80.5449 252.173 81.2158 253.627C81.2158 253.627 84.0856 254.782 85.6137 254.298C85.651 254.559 85.6883 254.82 85.7256 255.08C86.5455 258.919 85.4274 258.547 85.4274 258.547L68.8047 258.584C69.6246 255.416 73.3144 254.931 76.8179 253.813Z" fill="#200036"/>
<path d="M116.063 139.355C115.393 137.678 114.684 136.075 115.094 137.38C115.616 139.057 113.939 140.398 113.455 138.759C112.821 136.671 111.889 134.398 111.852 132.199C111.815 129.814 114.722 125.416 116.436 123.664C117.07 122.993 120.76 124.26 120.871 125.043C121.319 127.54 119.492 129.963 119.567 130.335C120.014 131.379 120.387 131.901 120.871 132.833C121.542 134.025 120.238 135.963 119.604 134.771C119.194 134.025 118.896 134.286 119.455 135.404C120.163 136.821 118.71 138.684 118.039 137.305C117.741 136.709 117.443 136.597 117.778 137.417C118.412 138.982 116.697 140.995 116.063 139.355Z" fill="#FFD2A7"/>
<path d="M231.413 189.001C233.053 189.001 234.543 188.441 235.848 187.547C235.885 190.268 235.736 192.989 235.177 195.672C233.425 198.467 228.617 203.648 228.953 203.611C230.295 203.499 231.562 203.126 232.829 202.716C232.009 204.431 231.003 206.033 229.885 207.524C227.537 210.655 224.219 213.152 222.952 216.954C222.915 217.028 222.878 217.103 222.803 217.103C222.766 217.326 222.542 217.475 222.356 217.289C216.057 211.326 214.939 202.232 214.007 194.032C213.97 193.659 213.933 193.249 213.896 192.877C215.647 194.628 217.511 196.231 219.71 197.424C220.008 197.573 215.759 190.79 213.672 187.659C213.746 185.683 214.045 183.745 214.753 181.845C216.244 177.894 218.741 174.204 221.201 170.812C221.312 170.663 221.424 170.552 221.499 170.402C222.17 172.154 223.064 173.831 224.219 175.322C224.406 175.583 223.772 170.365 223.362 167.943C223.996 167.16 224.592 166.415 225.226 165.669C226.083 164.663 227.089 162.986 228.617 163.209C230.071 163.433 233.425 169.396 233.835 171.111C234.022 171.856 234.171 172.601 234.32 173.347C234.394 173.682 234.469 173.98 234.506 174.316C235.065 177.335 235.401 180.428 235.624 183.447C235.512 183.596 235.401 183.783 235.289 183.932C234.096 185.646 231.115 189.001 231.413 189.001Z" fill="#8AC4C4"/>
<path d="M225.674 185.982C228.767 185.497 231.153 183.559 233.426 181.509C233.762 181.211 233.352 180.615 233.016 180.95C230.892 182.851 228.656 184.752 225.748 185.236C226.419 180.615 227.165 175.993 228.096 171.409C228.171 170.961 227.5 170.85 227.388 171.297C226.196 177.372 225.227 183.484 224.444 189.634C222.655 187.1 221.276 184.342 220.344 181.36C220.195 180.913 219.561 181.174 219.673 181.621C220.68 184.752 222.17 187.659 224.071 190.342C224.146 190.454 224.22 190.491 224.332 190.491C224.183 191.833 224.034 193.175 223.885 194.517C222.58 192.914 221.574 191.125 220.829 189.187C220.68 188.777 220.009 189.038 220.158 189.448C220.978 191.609 222.133 193.585 223.624 195.374C223.661 195.411 223.736 195.448 223.773 195.486C223.326 199.921 222.953 204.356 222.729 208.791C222.692 208.828 222.692 208.903 222.692 208.94C222.58 210.58 222.543 212.183 222.506 213.823C222.469 214.866 222.431 215.947 222.431 216.991C222.431 217.103 222.469 217.177 222.543 217.214C222.729 227.24 224.22 237.154 226.307 246.956C226.531 246.882 226.755 246.845 227.016 246.807C224.63 235.701 223.065 224.482 223.251 213.115C223.289 211.922 223.326 210.729 223.4 209.537C223.512 209.574 223.624 209.574 223.699 209.499C225.003 208.605 226.084 207.487 226.941 206.182C227.202 205.81 226.643 205.362 226.382 205.735C225.599 206.965 224.593 207.971 223.4 208.828C223.848 201.225 224.593 193.585 225.674 185.982Z" fill="#01595A"/>
<path d="M200.963 206.592C199.584 207.114 198.13 207.189 196.788 206.965C197.534 209.052 198.466 211.028 199.696 212.854C202.006 214.382 207.597 216.693 207.299 216.767C206.106 217.14 204.951 217.289 203.758 217.364C204.951 218.37 206.255 219.265 207.671 220.01C210.579 221.575 214.119 222.358 216.318 224.818C216.356 224.892 216.43 224.892 216.505 224.892C216.579 225.041 216.84 225.079 216.952 224.892C220.567 218.333 218.89 211.14 217.287 204.654C217.213 204.356 217.138 204.058 217.064 203.76C216.095 205.661 214.977 207.45 213.448 209.09C213.225 209.313 214.865 202.791 215.722 199.772C215.088 198.318 214.268 196.939 213.113 195.747C210.728 193.25 207.485 191.312 204.429 189.56C204.317 189.485 204.168 189.411 204.056 189.336C204.019 190.864 203.721 192.43 203.162 193.92C203.05 194.181 202.081 190.044 201.745 188.106C201 187.734 200.255 187.361 199.509 187.025C198.503 186.541 197.124 185.646 195.931 186.317C194.739 186.951 193.658 192.541 193.807 193.995C193.881 194.591 193.956 195.225 194.03 195.821C194.068 196.082 194.105 196.343 194.142 196.604C194.552 199.064 195.149 201.486 195.857 203.834C196.006 203.909 196.118 204.021 196.267 204.095C197.72 204.953 201.224 206.481 200.963 206.592Z" fill="url(#paint7_linear_3204_17612)"/>
<path d="M222.173 248.521C221.129 240.471 219.489 232.532 216.731 224.929C216.768 224.855 216.768 224.78 216.731 224.706C216.396 223.923 216.06 223.14 215.725 222.357C215.24 221.128 214.719 219.935 214.16 218.742C214.122 218.705 214.122 218.668 214.085 218.63C212.594 215.351 210.992 212.145 209.352 208.977C209.389 208.94 209.426 208.903 209.463 208.866C210.209 207.039 210.619 205.176 210.693 203.275C210.693 202.902 210.06 202.902 210.06 203.275C210.022 204.989 209.65 206.667 209.016 208.306C208.494 207.337 207.973 206.368 207.451 205.437C207.525 205.399 207.6 205.362 207.637 205.25C208.494 202.604 208.904 199.921 208.867 197.237C208.867 196.864 208.233 196.864 208.233 197.237C208.271 199.771 207.935 202.306 207.153 204.803C204.73 200.442 202.121 196.156 199.326 191.982C199.102 191.684 198.543 191.982 198.767 192.28C200.854 195.411 202.867 198.653 204.767 201.896C202.158 202.492 199.698 201.784 197.35 201.076C196.978 200.964 196.791 201.523 197.164 201.635C199.698 202.418 202.27 203.089 205.065 202.418C205.065 202.418 205.065 202.418 205.103 202.418C208.196 207.785 211.066 213.263 213.638 218.891C212.371 218.668 211.252 218.22 210.209 217.55C209.873 217.326 209.538 217.848 209.873 218.071C210.991 218.779 212.259 219.264 213.6 219.488C213.712 219.525 213.824 219.488 213.899 219.413C214.309 220.308 214.681 221.165 215.054 222.059C218.52 230.52 220.458 239.502 221.651 248.596C221.725 248.596 221.949 248.559 222.173 248.521Z" fill="#01595A"/>
<path d="M199.51 197.982C197.498 197.573 195.634 196.864 193.957 195.821C193.994 196.082 194.032 196.343 194.069 196.603C195.634 197.498 197.386 198.169 199.287 198.542C199.697 198.616 199.883 198.057 199.51 197.982Z" fill="#EDE6F2"/>
<path d="M259.59 203.312C259.553 205.884 253.627 207.114 251.726 207.822C247.552 209.35 243.489 210.915 240.396 214.27C236.78 218.22 233.65 222.768 230.482 227.128C230.295 227.389 229.997 227.501 229.736 227.464C229.699 227.464 229.326 226.718 228.879 225.6C227.798 222.954 226.158 218.071 226.568 215.276C226.866 213.338 227.537 211.474 228.469 209.76C228.693 210.617 229.028 211.474 229.662 212.108C229.811 212.257 230.146 208.605 230.333 206.965C230.594 206.629 230.892 206.294 231.19 205.996C231.861 205.288 232.606 204.579 233.389 203.983C233.538 203.834 233.724 203.722 233.911 203.61C234.544 203.126 235.215 202.679 235.923 202.269C236.11 202.157 236.296 202.045 236.482 201.933C237.116 201.56 237.787 201.262 238.458 200.964C238.681 202.231 238.979 203.424 239.576 204.617C239.688 204.878 239.986 201.747 240.023 200.331C240.657 200.07 241.327 199.883 241.998 199.697C242.185 200.517 242.446 201.3 242.818 202.045C242.893 202.231 243.787 200.107 244.123 199.175C246.247 198.765 248.409 198.579 250.459 198.691C250.645 198.691 250.831 198.691 250.981 198.728C251.54 198.765 252.099 198.84 252.658 198.914C254.708 199.212 259.516 200.517 259.59 203.275C259.59 203.275 259.59 203.275 259.59 203.312Z" fill="url(#paint8_linear_3204_17612)"/>
<path d="M236.781 210.058C231.75 215.015 230.184 224.146 229.849 226.755C229.364 227.798 228.992 228.917 228.805 230.109C228.209 234.209 228.395 238.532 228.47 242.669C228.507 244.011 228.582 245.39 228.619 246.732C228.843 246.695 229.104 246.657 229.327 246.583C229.29 245.726 229.253 244.868 229.215 244.011C229.104 240.321 229.104 236.594 229.253 232.905C229.327 231.004 229.514 229.066 230.259 227.314C230.333 227.277 230.408 227.202 230.483 227.09C233.613 222.73 236.744 218.183 240.397 214.232C243.49 210.878 247.553 209.312 251.727 207.784C253.59 207.076 259.554 205.846 259.591 203.274C251.69 204.243 242.596 204.318 236.781 210.058Z" fill="#01595A"/>
<path d="M236.558 207.597C236.186 205.697 236.148 203.796 236.446 201.895C236.26 202.007 236.074 202.119 235.887 202.23C235.626 204.057 235.701 205.92 236.036 207.747C236.111 208.045 236.633 207.933 236.558 207.597Z" fill="#01595A"/>
<path d="M234.658 208.642C234.211 206.965 233.95 205.287 233.912 203.536C233.726 203.647 233.577 203.797 233.391 203.908C233.465 205.548 233.689 207.151 234.136 208.754C234.211 209.089 234.732 208.94 234.658 208.642Z" fill="#01595A"/>
<path d="M243.078 242.856C243.078 244.198 242.929 245.502 242.668 246.732C241.699 251.279 239.053 255.193 235.437 257.839H213.746C210.131 255.193 207.484 251.279 206.515 246.732C206.255 245.465 206.105 244.198 206.105 242.856C206.105 241.477 206.255 240.135 206.553 238.831C206.776 237.713 207.149 236.669 207.559 235.625H241.624C242.072 236.632 242.407 237.713 242.631 238.831C242.929 240.135 243.078 241.477 243.078 242.856Z" fill="#FFD700"/>
<path d="M243.078 242.856C243.078 244.198 242.929 245.502 242.668 246.732C241.699 251.279 239.053 255.193 235.438 257.839H213.746C242.072 259.255 241.625 235.625 241.625 235.625C242.072 236.632 242.407 237.713 242.631 238.831C242.929 240.135 243.078 241.477 243.078 242.856Z" fill="#B59900"/>
</g>
<defs>
<linearGradient id="paint0_linear_3204_17612" x1="134.275" y1="44.0712" x2="153.524" y2="44.0712" gradientUnits="userSpaceOnUse">
<stop stop-color="#6B5A00"/>
<stop offset="1" stop-color="#FFD700"/>
</linearGradient>
<linearGradient id="paint1_linear_3204_17612" x1="40.3412" y1="179.384" x2="59.59" y2="179.384" gradientUnits="userSpaceOnUse">
<stop stop-color="#6B5A00"/>
<stop offset="1" stop-color="#FFD700"/>
</linearGradient>
<linearGradient id="paint2_linear_3204_17612" x1="102.391" y1="184.645" x2="205.88" y2="185.949" gradientUnits="userSpaceOnUse">
<stop stop-color="#017374"/>
<stop offset="1" stop-color="#55A9A9"/>
</linearGradient>
<linearGradient id="paint3_linear_3204_17612" x1="85.253" y1="74.6559" x2="128.662" y2="80.2582" gradientUnits="userSpaceOnUse">
<stop offset="1.09e-06" stop-color="#FFD000"/>
<stop offset="1" stop-color="#FF7400"/>
</linearGradient>
<linearGradient id="paint4_linear_3204_17612" x1="35.6756" y1="123.416" x2="81.9836" y2="123.416" gradientUnits="userSpaceOnUse">
<stop stop-color="white"/>
<stop offset="1" stop-color="#D3DBEB"/>
</linearGradient>
<linearGradient id="paint5_linear_3204_17612" x1="81.9843" y1="123.416" x2="103.301" y2="123.416" gradientUnits="userSpaceOnUse">
<stop stop-color="white"/>
<stop offset="1" stop-color="#D3DBEB"/>
</linearGradient>
<linearGradient id="paint6_linear_3204_17612" x1="91.4578" y1="91.7967" x2="-12.4109" y2="138.103" gradientUnits="userSpaceOnUse">
<stop stop-color="white"/>
<stop offset="1" stop-color="#D3DBEB"/>
</linearGradient>
<linearGradient id="paint7_linear_3204_17612" x1="193.724" y1="205.553" x2="219.09" y2="205.553" gradientUnits="userSpaceOnUse">
<stop stop-color="#017374"/>
<stop offset="1" stop-color="#8AC4C4"/>
</linearGradient>
<linearGradient id="paint8_linear_3204_17612" x1="226.542" y1="213.037" x2="259.589" y2="213.037" gradientUnits="userSpaceOnUse">
<stop stop-color="#55A9A9"/>
<stop offset="1" stop-color="#01595A"/>
</linearGradient>
<clipPath id="clip0_3204_17612">
<rect width="264.622" height="260" fill="white"/>
</clipPath>
</defs>
</svg>
