<svg width="124" height="76" viewBox="0 0 124 76" fill="none" xmlns="http://www.w3.org/2000/svg">
<g clip-path="url(#clip0_3204_12343)">
<path d="M35.5239 75.4352C55.1433 75.4352 71.0479 73.9274 71.0479 72.0675C71.0479 70.2076 55.1433 68.6998 35.5239 68.6998C15.9046 68.6998 0 70.2076 0 72.0675C0 73.9274 15.9046 75.4352 35.5239 75.4352Z" fill="url(#paint0_radial_3204_12343)"/>
<path d="M35.4585 73.752C44.8935 73.752 52.5421 73.0274 52.5421 72.1336C52.5421 71.2397 44.8935 70.5151 35.4585 70.5151C26.0236 70.5151 18.375 71.2397 18.375 72.1336C18.375 73.0274 26.0236 73.752 35.4585 73.752Z" fill="url(#paint1_radial_3204_12343)"/>
</g>
<path d="M36.6953 6.90612C36.6953 6.90612 44.2881 -0.444364 53.2541 1.8981C62.2201 4.24056 74.2555 16.276 87.1794 9.65245C100.103 3.02894 114.643 -7.06787 123.77 7.47154C123.77 7.47154 113.35 1.17113 104.384 10.6217C95.4991 20.0724 91.2181 38.0043 72.3169 44.1432C53.4156 50.2012 46.469 51.0898 36.8569 47.6165L36.6953 6.90612Z" fill="#C9263B"/>
<path opacity="0.5" d="M43.8068 4.88684C46.1493 6.17923 45.7454 10.3795 45.6647 12.5604C45.4223 18.2954 45.4223 24.0304 45.5031 29.7654C45.5031 32.6733 45.4223 35.5811 45.5031 38.489C45.5839 40.1853 46.634 48.0204 50.0265 44.0625C52.9344 40.6699 52.8536 34.7734 53.419 30.4923C54.146 24.9997 54.7114 19.3455 56.3269 14.0144C57.377 10.7834 58.8309 7.71394 62.7888 7.79472C64.3236 7.79472 65.8583 8.11782 67.3122 8.52169C62.0619 6.09845 57.2962 2.94825 53.1767 1.89818C47.1186 0.28269 41.7067 3.19057 38.7988 5.20993C40.5759 4.40219 42.3529 4.07909 43.8068 4.88684Z" fill="#EE8091"/>
<path opacity="0.5" d="M90.6542 8.68309C93.7237 8.84464 91.7851 12.641 91.0581 13.9334C90.008 15.9528 88.8772 18.2145 88.3118 20.3954C88.1502 21.0416 87.5848 22.4955 88.0695 23.1417C87.9079 22.9802 88.4733 22.8994 88.7964 22.6571C90.6542 21.4455 92.1082 19.7492 93.5621 18.1337C98.4086 12.7218 103.901 4.56359 111.736 3.43275C115.775 2.86733 119.329 4.24049 122.156 6.66373C123.206 7.0676 123.772 7.47147 123.772 7.47147C114.644 -7.06793 100.186 2.9481 87.2617 9.57161C88.4733 9.08696 89.6042 8.60232 90.6542 8.68309Z" fill="#EE8091"/>
<path opacity="0.5" d="M118.198 1.73724C118.602 2.46421 118.602 3.19118 118.117 3.91815C117.471 4.88745 116.017 5.12977 114.967 5.21055C111.978 5.45287 109.394 5.45287 106.809 7.22991C102.689 9.97624 99.216 14.2573 96.1466 18.0537C94.4503 20.1538 92.6733 22.1732 90.977 24.2733C90.0077 25.5657 88.7961 27.4235 87.2614 27.9082C83.5458 29.2006 83.8689 24.9195 84.4343 22.6578C85.8882 16.5997 88.473 11.1071 92.5925 6.82604C90.8155 7.79533 89.0384 8.76462 87.2614 9.65314C79.8301 13.4495 72.722 11.1071 66.26 7.95688C66.5024 8.44153 66.6639 8.8454 66.8255 9.33005C67.5524 11.6725 67.3909 13.9342 66.8255 16.2767C66.0177 19.6692 65.21 22.9809 64.3214 26.3735C63.1098 30.8161 62.5444 35.9856 60.3635 40.1051C58.2634 44.0631 54.3862 45.7593 50.0244 45.9209C45.8241 46.0824 42.1085 44.6285 41.4623 40.1051C41.1392 37.6819 41.4623 35.0971 41.4623 32.6739C41.543 29.1198 41.543 25.5657 41.543 22.0116C41.543 16.3574 40.4122 10.057 42.6739 4.7259C43.0778 3.75661 43.6432 3.02964 44.3701 2.38344C39.8468 3.91815 36.7773 6.90681 36.7773 6.90681L36.8581 47.6171C46.4703 51.0905 53.4169 50.2827 72.3181 44.1438C91.2193 38.005 95.5004 20.1538 104.466 10.7032C113.432 1.2526 123.852 7.55301 123.852 7.55301C122.156 4.80667 120.217 2.94886 118.198 1.73724Z" fill="#C9263B"/>
<path opacity="0.5" d="M101.88 13.368C96.4684 19.83 92.4297 28.069 85.6446 33.2385C83.4637 34.854 78.7788 37.6003 76.4364 34.7732C74.5785 32.5116 76.2748 28.069 76.7595 25.565C77.648 20.7185 79.1019 16.599 83.0599 13.4488C85.7254 11.2679 88.8756 9.73315 91.4604 7.39069C90.0872 8.11766 88.6333 8.84463 87.2601 9.5716C81.5252 12.5603 75.8709 11.7525 70.7014 9.81393C71.6707 10.864 72.3976 12.1564 72.64 13.7719C73.0438 16.2759 72.1553 18.9414 71.5091 21.3647C70.6206 24.5149 69.7321 27.6651 68.8436 30.7345C67.4704 35.581 66.5819 40.5082 62.5431 43.9008C58.8275 47.051 53.4156 47.9395 48.7307 48.1818C44.9343 48.3433 40.2494 49.2319 39.6032 44.2239C38.8762 38.0042 39.1185 31.5423 38.957 25.2419C38.7954 19.9107 38.957 14.2565 39.7647 8.84463C40.1686 6.4214 41.0571 4.48281 42.5918 3.02887C39.0378 4.64436 36.6953 6.90604 36.6953 6.90604L36.8569 47.6164C46.469 51.0897 53.4156 50.2819 72.3169 44.1431C91.0565 38.085 95.4184 20.4762 104.223 10.9448C103.415 11.6717 102.607 12.4795 101.88 13.368Z" fill="#C9263B"/>
<path d="M123.851 7.4716C123.851 7.4716 123.528 7.22928 122.801 6.98695C122.074 6.66386 121.024 6.25998 119.651 5.93689C118.278 5.61379 116.501 5.37146 114.562 5.61379C112.623 5.77534 110.362 6.50231 108.342 7.7947C107.292 8.44089 106.323 9.24864 105.354 10.1372C105.111 10.3795 104.869 10.6218 104.627 10.8641C104.384 11.1065 104.142 11.3488 103.981 11.5911C103.577 12.0757 103.092 12.6412 102.688 13.2066C100.992 15.4683 99.4572 17.9723 97.8417 20.5571C96.2262 23.2226 94.6107 25.8882 92.7529 28.6345C90.8951 31.3001 88.8758 33.9656 86.4525 36.3081C85.2409 37.5197 84.0293 38.5698 82.6561 39.6199C82.0099 40.1045 81.283 40.5891 80.6368 41.0738C79.9098 41.4777 79.2636 41.9623 78.5366 42.3662C77.0827 43.1739 75.6287 43.8201 74.094 44.4663C72.5593 45.0317 71.1054 45.5164 69.6514 46.001C66.7436 46.9703 63.8357 47.8588 61.0893 48.5858C58.343 49.3128 55.6775 49.959 53.2542 50.3629C50.7502 50.7667 48.4077 50.9283 46.3884 50.8475C44.2882 50.7667 42.5112 50.5244 41.0573 50.2013C40.3303 50.0398 39.6841 49.8782 39.1187 49.7167C38.4725 49.3936 37.9878 49.232 37.584 49.1512C36.857 48.9089 36.4531 48.7474 36.4531 48.7474L37.2609 46.4049C37.2609 46.4049 37.6647 46.5665 38.3109 46.8088C38.634 46.9703 39.1187 47.0511 39.6033 47.2127C40.088 47.3742 40.7342 47.5357 41.3804 47.6973C42.7535 48.0204 44.369 48.3435 46.3076 48.4243C48.2462 48.505 50.4271 48.4243 52.7696 48.1012C55.1928 47.7781 57.7776 47.2127 60.4431 46.5665C63.1895 45.9203 66.0166 45.0317 68.9245 44.224C70.3784 43.7393 71.9131 43.3355 73.3671 42.8508C74.821 42.2854 76.2749 41.72 77.6481 40.993C78.3751 40.6699 79.0213 40.1853 79.7482 39.8622C80.3944 39.4583 81.1214 38.9737 81.7676 38.489C83.06 37.5197 84.3524 36.5504 85.4832 35.4196C87.8257 33.2387 89.9258 30.6539 91.7836 28.0691C93.6415 25.4843 95.3377 22.738 97.034 20.1532C98.7302 17.5684 100.346 15.0644 102.123 12.8027C102.527 12.2373 103.011 11.6719 103.496 11.1872C103.738 10.9449 103.981 10.7026 104.223 10.4603C104.465 10.2179 104.708 9.97561 104.95 9.73329C105.919 8.84477 106.969 8.03702 108.019 7.39083C110.2 6.09843 112.381 5.45224 114.4 5.37146C116.42 5.20991 118.197 5.45224 119.57 5.85611C120.943 6.17921 121.993 6.66386 122.72 6.98695C123.447 7.31005 123.851 7.4716 123.851 7.4716Z" fill="#7A0012"/>
<path d="M55.8396 4.07879C55.1934 3.02872 52.6894 2.22097 51.6394 1.97865C49.62 1.65555 47.1968 2.1402 44.7735 2.70562C44.5312 2.78639 42.2695 3.59414 42.2695 3.67491C42.6734 2.86717 49.1354 2.94794 50.0239 3.02872C52.7702 3.35182 54.0626 4.07879 52.3663 6.34047C50.1854 9.0868 49.62 10.7831 50.7509 14.4179C51.4778 16.6796 50.9124 18.699 50.6701 20.9607C50.4278 23.5454 48.1661 41.5581 48.2468 43.8198C48.2468 43.9814 49.9431 33.723 50.5085 28.6342C50.9124 25.5648 51.2355 22.4146 51.8009 19.3452C52.2048 17.245 52.0432 15.468 51.397 13.3679C50.2662 9.81377 52.6894 8.76371 55.0319 6.58279C55.7589 6.09815 56.4051 4.96731 55.8396 4.07879Z" fill="#FCA5B3"/>
<path d="M121.589 4.96763C116.5 -0.525034 111.492 0.201936 107.696 1.09046C105.434 1.5751 101.88 3.19059 99.6993 4.15989C96.953 5.3715 94.3682 6.90622 91.6219 8.27938C91.4603 8.36016 91.6219 8.52171 91.7026 8.52171C95.9029 6.90622 99.8609 4.96763 104.223 3.75601C108.908 2.38285 112.462 0.928906 117.389 2.70594C120.378 3.67524 121.751 5.12918 121.589 4.96763Z" fill="#FCA5B3"/>
<path d="M38.2484 6.11328H35.2598V72.1985H38.2484V6.11328Z" fill="#FFC954" stroke="#823A07" stroke-width="1.0386" stroke-miterlimit="10"/>
<path d="M35.2598 6.11328V72.1985H38.2484V6.11328H35.2598ZM36.956 70.6689C36.956 70.8489 35.906 70.8489 35.906 70.6689V12.0515C35.906 11.8716 36.956 11.8716 36.956 12.0515V70.6689Z" fill="#F7A736"/>
<path opacity="0.8" d="M35.906 10.477C36.0675 10.297 37.2791 9.89215 37.5215 10.432C37.8445 11.0618 37.7638 11.7366 38.1676 12.4114V6.11328H35.2598V12.1415C35.5829 11.5566 35.3405 11.0618 35.906 10.477Z" fill="#C88C3C"/>
<path d="M36.5537 33.7803C36.5537 31.486 36.5537 29.1917 36.5537 26.8973C36.5537 22.3087 36.5537 17.7201 36.4729 13.0865C36.4729 12.8166 36.3922 12.5466 36.3922 12.2767C36.3922 12.2317 36.2306 12.2317 36.2306 12.2767C35.8267 14.571 36.0691 16.8653 35.9883 19.1597C35.9883 21.454 35.9883 23.7483 35.9883 26.0426C35.9883 30.5862 35.9883 35.1299 35.9883 39.6735C35.9883 39.9434 35.9883 69.1397 36.0691 69.3646C36.0691 69.4546 36.4729 69.4546 36.4729 69.3646C36.796 67.2053 36.5537 36.0296 36.5537 33.7803Z" fill="#FFF9E2"/>
<path opacity="0.6" d="M41.5584 8.14592C41.5584 10.973 39.3775 13.2347 36.7119 13.2347C34.0464 13.2347 31.8655 10.973 31.8655 8.14592C31.7847 5.31881 33.9656 3.05713 36.6311 3.05713C39.3775 3.05713 41.5584 5.31881 41.5584 8.14592Z" fill="#C88C3C"/>
<path d="M41.0733 7.82311C41.0733 10.3271 39.1347 12.3465 36.7114 12.3465C34.2882 12.3465 32.3496 10.3271 32.3496 7.82311C32.3496 5.31911 34.2882 3.29974 36.7114 3.29974C39.1347 3.29974 41.0733 5.31911 41.0733 7.82311Z" fill="#823A07"/>
<path d="M40.6704 7.66022C40.6704 9.84113 38.8933 11.6182 36.7932 11.6182C34.6123 11.6182 32.916 9.84113 32.916 7.66022C32.916 5.47931 34.6931 3.78304 36.7932 3.78304C38.8933 3.70227 40.6704 5.47931 40.6704 7.66022Z" fill="#FFC954"/>
<path d="M36.7114 3.29974C34.2882 3.29974 32.3496 5.31911 32.3496 7.82311C32.3496 10.3271 34.2882 12.3465 36.7114 12.3465C39.1347 12.3465 41.0733 10.3271 41.0733 7.82311C41.0733 5.31911 39.1347 3.29974 36.7114 3.29974ZM39.2154 8.14621C39.0539 8.38854 38.8923 8.55008 38.7308 8.79241C38.4077 9.11551 37.923 9.35783 37.4384 9.51938C37.1961 9.51938 36.9538 9.60015 36.6307 9.60015C36.146 9.60015 35.5806 9.4386 35.1767 9.19628C34.8536 9.03473 34.2882 8.55009 34.1266 8.14621C34.0459 7.90389 33.8843 7.66157 33.8036 7.41924C33.8036 7.25769 33.7228 6.85382 33.7228 6.53072C33.642 4.91523 35.0959 3.62284 36.6307 3.62284C37.4384 3.62284 38.1654 3.94594 38.7308 4.51136C39.2962 5.07678 39.6193 5.80375 39.6193 6.6115C39.6193 7.17692 39.5385 7.58079 39.2154 8.14621Z" fill="#F7A736"/>
<path d="M35.8223 4.91488C34.9338 5.07643 34.3684 6.20727 34.6915 7.09579C35.0146 7.74199 35.58 8.06508 36.3069 7.90354C37.1147 7.74199 37.5993 6.93424 37.5993 6.1265C37.6801 5.07643 36.63 4.75333 35.8223 4.91488Z" fill="#FFF5CE"/>
<path d="M38.4081 5.72184C38.2465 5.88339 38.1658 5.96416 38.2465 6.12571C38.2465 6.20648 38.2465 6.36803 38.4081 6.44881L38.4889 6.52958C39.6197 7.49888 39.6197 4.67177 38.4081 5.72184Z" fill="#FFF5CE"/>
<path d="M59.9937 30.699C59.587 30.739 59.2003 30.6757 58.8337 30.509C58.4737 30.3423 58.1737 30.0957 57.9337 29.769C57.7003 29.449 57.5637 29.079 57.5237 28.659C57.4837 28.2657 57.5403 27.889 57.6937 27.529C57.8537 27.169 58.0903 26.869 58.4037 26.629C58.7237 26.3823 59.0903 26.2223 59.5037 26.149L62.1737 25.659L62.3137 26.489L59.6437 26.979C59.3503 27.0323 59.0937 27.1357 58.8737 27.289C58.6603 27.4423 58.5003 27.6323 58.3937 27.859C58.2937 28.079 58.257 28.3157 58.2837 28.569C58.3037 28.8223 58.3937 29.0523 58.5537 29.259C58.7137 29.4723 58.9137 29.6323 59.1537 29.739C59.3937 29.8457 59.647 29.8857 59.9137 29.859L62.6037 29.579L62.6737 30.429L59.9937 30.699ZM60.6137 26.799C60.287 26.859 59.9737 26.8357 59.6737 26.729C59.3737 26.6157 59.1203 26.439 58.9137 26.199C58.7137 25.9523 58.5837 25.6623 58.5237 25.329C58.4637 24.9957 58.487 24.6757 58.5937 24.369C58.7003 24.0623 58.8737 23.8023 59.1137 23.589C59.3603 23.3757 59.647 23.2423 59.9737 23.189C60.147 23.1557 60.3837 23.1623 60.6837 23.209C60.9903 23.249 61.3037 23.3123 61.6237 23.399L61.4237 24.209C61.157 24.1357 60.9003 24.0823 60.6537 24.049C60.4137 24.009 60.2337 23.999 60.1137 24.019C59.8137 24.079 59.5837 24.2157 59.4237 24.429C59.2637 24.6423 59.2103 24.8857 59.2637 25.159C59.317 25.439 59.4603 25.6557 59.6937 25.809C59.927 25.9623 60.187 26.0157 60.4737 25.969L62.1737 25.659L62.3137 26.489L60.6137 26.799ZM64.1258 29.719C64.9791 29.5457 65.5791 29.4057 65.9258 29.299C66.2724 29.1923 66.5158 29.0423 66.6558 28.849C66.7958 28.6623 66.8458 28.3823 66.8058 28.009L66.6458 26.419C66.6058 25.999 66.4824 25.6723 66.2758 25.439C66.0691 25.2057 65.8124 25.0957 65.5058 25.109C65.2991 25.1157 65.1224 25.179 64.9758 25.299C64.8358 25.419 64.7324 25.5723 64.6658 25.759C64.5991 25.9457 64.5724 26.139 64.5858 26.339C64.6058 26.5857 64.6958 26.7823 64.8558 26.929C65.0158 27.069 65.2258 27.139 65.4858 27.139C66.0591 27.139 66.5691 27.0757 67.0158 26.949L67.2258 27.769C67.0058 27.829 66.7424 27.879 66.4358 27.919C66.1358 27.959 65.8191 27.979 65.4858 27.979C65.1858 27.979 64.9124 27.9123 64.6658 27.779C64.4258 27.6457 64.2324 27.459 64.0858 27.219C63.9391 26.979 63.8524 26.7057 63.8258 26.399C63.7991 26.059 63.8491 25.729 63.9758 25.409C64.1024 25.0823 64.2958 24.8157 64.5558 24.609C64.8158 24.3957 65.1224 24.2823 65.4758 24.269C65.8158 24.249 66.1224 24.3223 66.3958 24.489C66.6691 24.6557 66.8924 24.899 67.0658 25.219C67.2391 25.5323 67.3491 25.8957 67.3958 26.309L67.5658 27.929C67.6258 28.5023 67.5558 28.9457 67.3558 29.259C67.1558 29.579 66.8291 29.8257 66.3758 29.999C65.9291 30.1723 65.2458 30.3523 64.3258 30.539L64.2758 30.549L64.1258 29.719ZM71.4272 27.979C71.0872 27.979 70.8205 27.909 70.6272 27.769C70.4339 27.629 70.2839 27.4023 70.1772 27.089C70.0772 26.7757 69.9839 26.3023 69.8972 25.669L69.8672 25.499L70.5772 25.379L70.7172 26.249C70.7572 26.5023 70.8005 26.689 70.8472 26.809C70.9005 26.929 70.9705 27.0157 71.0572 27.069C71.1505 27.1157 71.2739 27.139 71.4272 27.139H71.4972L71.5472 27.559L71.4972 27.979H71.4272ZM68.1172 29.729L68.5372 29.609C68.5772 29.6023 68.6205 29.5923 68.6672 29.579C69.0472 29.479 69.3472 29.3757 69.5672 29.269C69.7872 29.1623 69.9539 29.009 70.0672 28.809C70.1872 28.609 70.2239 28.3423 70.1772 28.009L69.7772 25.139L70.5272 25.019L70.8172 27.149L70.8572 27.409L70.9272 27.909C70.9939 28.409 70.9505 28.819 70.7972 29.139C70.6439 29.459 70.4139 29.709 70.1072 29.889C69.8072 30.0757 69.4005 30.2423 68.8872 30.389L68.7272 30.429L68.3172 30.549L68.1172 29.729ZM76.8168 27.979C76.4901 27.979 76.2068 27.9057 75.9668 27.759C75.7268 27.6057 75.5468 27.4023 75.4268 27.149C75.3068 26.8957 75.2501 26.6223 75.2568 26.329H75.9668C75.9535 26.5757 76.0201 26.7723 76.1668 26.919C76.3135 27.0657 76.5301 27.139 76.8168 27.139C77.0301 27.139 77.2135 27.099 77.3668 27.019C77.5201 26.939 77.6268 26.8057 77.6868 26.619C77.7468 26.4323 77.7368 26.179 77.6568 25.859L77.2568 24.369L77.9868 24.159L78.3868 25.649C78.5201 26.1357 78.5268 26.5557 78.4068 26.909C78.2868 27.2623 78.0835 27.529 77.7968 27.709C77.5101 27.889 77.1835 27.979 76.8168 27.979ZM74.3568 27.979C74.0301 27.979 73.7468 27.9023 73.5068 27.749C73.2668 27.589 73.0835 27.3823 72.9568 27.129C72.8368 26.8757 72.7835 26.609 72.7968 26.329H73.4968C73.4901 26.569 73.5601 26.7657 73.7068 26.919C73.8601 27.0657 74.0768 27.139 74.3568 27.139C74.7101 27.139 74.9468 27.0623 75.0668 26.909C75.1935 26.749 75.2568 26.5557 75.2568 26.329V25.089H75.9668V26.329C75.9668 26.589 75.9135 26.8457 75.8068 27.099C75.7001 27.3457 75.5268 27.5557 75.2868 27.729C75.0468 27.8957 74.7368 27.979 74.3568 27.979ZM71.4168 27.139H71.8868C72.2468 27.139 72.4868 27.0623 72.6068 26.909C72.7268 26.749 72.7868 26.5557 72.7868 26.329V25.089H73.4968V26.329C73.4968 26.589 73.4435 26.8457 73.3368 27.099C73.2368 27.3457 73.0635 27.5557 72.8168 27.729C72.5768 27.8957 72.2668 27.979 71.8868 27.979H71.4168V27.139ZM76.0368 21.679V22.499H75.1768V21.679H76.0368ZM75.1868 22.929V23.879H74.2368V22.929H75.1868ZM76.9568 22.929V23.879H76.0068V22.929H76.9568Z" fill="white"/>
<defs>
<radialGradient id="paint0_radial_3204_12343" cx="0" cy="0" r="1" gradientUnits="userSpaceOnUse" gradientTransform="translate(35.526 72.0691) scale(35.5246 3.36937)">
<stop stop-color="#808080"/>
<stop offset="0.1123" stop-color="#808080" stop-opacity="0.8594"/>
<stop offset="0.7989" stop-color="#808080" stop-opacity="0"/>
</radialGradient>
<radialGradient id="paint1_radial_3204_12343" cx="0" cy="0" r="1" gradientUnits="userSpaceOnUse" gradientTransform="translate(35.451 72.134) scale(17.085 1.62044)">
<stop/>
<stop offset="0.0543778" stop-color="#1A1A1A" stop-opacity="0.9319"/>
<stop offset="0.1345" stop-color="#393939" stop-opacity="0.8317"/>
<stop offset="0.2222" stop-color="#535353" stop-opacity="0.7219"/>
<stop offset="0.3188" stop-color="#676767" stop-opacity="0.601"/>
<stop offset="0.429" stop-color="#757575" stop-opacity="0.4631"/>
<stop offset="0.5643" stop-color="#7D7D7D" stop-opacity="0.2936"/>
<stop offset="0.7989" stop-color="#808080" stop-opacity="0"/>
</radialGradient>
<clipPath id="clip0_3204_12343">
<rect width="71.0479" height="6.73533" fill="white" transform="translate(0 68.6997)"/>
</clipPath>
</defs>
</svg>
