<svg width="294" height="237" viewBox="0 0 294 237" fill="none" xmlns="http://www.w3.org/2000/svg">
<g clip-path="url(#clip0_3204_16973)">
<path d="M216.051 120.477C217.747 112.611 222.384 107.377 223.951 106.028C226.51 103.845 233.674 104.07 236.552 110.042C239.431 116.014 240.518 119.61 239.719 130.367C238.919 141.123 230.06 177.823 230.028 185.883C229.996 193.942 213.333 193.075 214.197 181.516C215.092 169.989 214.069 129.564 216.051 120.477Z" fill="#4D0180"/>
<path d="M239.942 122.757C239.782 117.363 238.631 114.312 236.552 110.01C234.921 106.671 232.01 105.129 229.26 104.808C229.1 104.776 228.908 104.776 228.748 104.744C228.588 104.744 228.46 104.712 228.3 104.712C227.852 104.712 227.405 104.744 226.989 104.776C226.445 104.84 225.901 104.969 225.422 105.129C225.198 105.226 224.974 105.322 224.75 105.418C224.654 105.483 224.558 105.515 224.462 105.579C224.27 105.707 224.078 105.836 223.919 105.964C223.823 106.06 223.695 106.157 223.599 106.253C223.535 106.317 223.471 106.382 223.407 106.446C223.375 106.478 223.343 106.51 223.343 106.51C223.279 106.574 223.247 106.606 223.183 106.671C223.151 106.703 223.119 106.735 223.087 106.767C223.023 106.831 222.959 106.895 222.895 106.96C222.863 106.992 222.831 107.024 222.799 107.056C222.607 107.248 222.447 107.473 222.223 107.698C222.191 107.73 222.159 107.762 222.127 107.794C222.064 107.891 222 107.955 221.904 108.051C221.872 108.083 221.84 108.148 221.808 108.18C221.744 108.276 221.648 108.372 221.584 108.469C221.552 108.501 221.52 108.533 221.488 108.597C221.264 108.886 221.04 109.175 220.848 109.496C220.816 109.528 220.784 109.592 220.752 109.625C220.656 109.753 220.592 109.849 220.496 109.978C220.464 110.042 220.432 110.074 220.4 110.138C220.304 110.267 220.241 110.395 220.145 110.524C220.113 110.588 220.081 110.62 220.049 110.684C219.825 111.037 219.601 111.391 219.377 111.776C219.345 111.84 219.313 111.872 219.281 111.936C219.185 112.065 219.121 112.225 219.025 112.354C218.993 112.418 218.961 112.482 218.929 112.546C218.865 112.707 218.769 112.835 218.705 112.996C218.673 113.06 218.641 113.124 218.609 113.189C218.513 113.413 218.386 113.606 218.29 113.831C218.194 114.056 218.066 114.28 217.97 114.505C217.938 114.569 217.906 114.633 217.874 114.698C217.81 114.858 217.714 115.019 217.65 115.179C217.618 115.244 217.586 115.34 217.554 115.404C217.49 115.565 217.426 115.725 217.362 115.918C217.33 115.982 217.298 116.078 217.266 116.143C217.17 116.399 217.074 116.624 217.01 116.881C216.914 117.138 216.85 117.395 216.754 117.652C216.722 117.748 216.69 117.812 216.69 117.909C216.626 118.101 216.563 118.262 216.531 118.454C216.499 118.551 216.467 118.647 216.467 118.743C216.403 118.936 216.371 119.129 216.307 119.321C216.275 119.418 216.275 119.482 216.243 119.578C216.179 119.835 216.115 120.124 216.051 120.413C216.019 120.574 215.987 120.734 215.955 120.895C215.955 120.959 215.923 121.023 215.923 121.087C215.891 121.216 215.891 121.344 215.859 121.473C215.859 121.537 215.827 121.633 215.827 121.697C215.795 121.826 215.795 121.954 215.763 122.083C215.763 122.147 215.731 122.243 215.731 122.34C215.699 122.468 215.699 122.629 215.667 122.757C215.667 122.821 215.635 122.918 215.635 123.014C215.603 123.174 215.603 123.367 215.571 123.528C215.571 123.592 215.571 123.656 215.539 123.72C215.475 124.234 215.443 124.748 215.411 125.326C215.411 125.39 215.411 125.454 215.411 125.486C215.379 125.711 215.379 125.936 215.347 126.161C215.347 126.225 215.347 126.321 215.347 126.385C215.347 126.61 215.315 126.835 215.315 127.06C215.315 127.124 215.315 127.22 215.315 127.284C215.315 127.541 215.283 127.798 215.283 128.023C215.283 128.087 215.283 128.151 215.283 128.215C215.251 128.537 215.251 128.858 215.219 129.179C215.155 130.238 215.123 131.33 215.091 132.486C215.091 132.518 215.091 132.55 215.091 132.55C215.091 132.903 215.059 133.257 215.059 133.642C215.059 133.674 215.059 133.706 215.059 133.738C215.059 134.123 215.027 134.509 215.027 134.894C222.127 139.967 234.345 139.871 233.929 143.499C233.737 145.137 228.588 180.007 227.98 181.355C227.916 181.516 228.94 186.493 230.027 186.461C230.059 186.268 230.059 186.043 230.059 185.818C230.091 177.888 238.662 142.215 239.718 130.816V130.784C239.75 130.592 239.75 130.431 239.75 130.27C239.878 128.601 239.942 127.092 240.006 125.711C239.974 124.716 239.974 123.72 239.942 122.757Z" fill="#200036"/>
<path d="M254.523 120.638C251.452 112.739 245.919 107.377 244.096 105.996C241.154 103.749 234.054 103.845 232.199 109.785C230.344 115.725 229.896 119.321 232.583 130.11C235.269 140.898 245.376 177.759 246.783 185.851C248.19 193.942 263.286 187.552 261.559 175.704C259.64 162.636 258.041 129.789 254.523 120.638Z" fill="#4D0180"/>
<path d="M238.02 136.628C241.762 136.018 247.582 135.023 248.926 135.44C251.74 136.307 253.915 138.779 253.947 141.83C253.979 145.362 259.48 179.268 259.448 179.429C259.992 178.947 260.855 178.241 261.687 177.342C261.687 176.828 261.623 176.282 261.559 175.736C259.64 162.668 258.073 129.789 254.523 120.638C251.74 113.478 246.911 108.405 244.704 106.51C244.48 106.317 244.288 106.157 244.096 106.028C241.154 103.781 234.054 103.877 232.199 109.817C230.344 115.757 229.896 119.354 232.583 130.142C232.71 130.656 233.318 132.454 233.862 134.124C234.438 135.857 236.197 136.917 238.02 136.628Z" fill="#200036"/>
<path d="M198.172 69.3275C201.21 67.3689 204.185 66.4057 213.044 62.97C213.396 62.7774 213.748 62.5847 214.131 62.4242C220.88 59.2775 227.308 53.5943 228.556 53.1126C233.321 51.2825 242.788 56.6446 235.592 65.0892C229.067 72.7953 210.773 81.2078 203.673 80.084C201.019 79.6665 197.373 75.5245 197.309 73.1806C197.692 73.0522 197.277 69.9055 198.172 69.3275Z" fill="#8855AA"/>
<path d="M227.115 61.6216C227.115 61.6216 214.674 74.5614 210.932 73.2449C207.062 71.8643 207.829 70.0983 207.829 70.0983L198.107 74.9146L197.883 75.1072C199.034 77.3227 201.817 81.3684 203.832 81.6895C209.684 82.6207 222.861 75.4925 231.081 69.2313L227.115 61.6216Z" fill="#4D0180"/>
<path d="M208.406 70.6764C205.368 63.8373 192.639 49.8058 191.008 45.3427C189.92 42.4208 183.3 46.1454 184.835 47.7508C188.385 51.4433 194.846 69.8737 198.524 76.3918C201.658 81.9787 210.453 75.3001 208.406 70.6764Z" fill="#FFD2A7"/>
<path d="M240.904 37.5084C240.2 42.9348 246.821 45.0861 246.821 45.0861C247.332 41.0725 251.842 38.7927 253.313 33.9122C254.816 28.839 251.81 23.4769 244.71 23.7017C240.392 23.8301 241.64 32.1141 240.904 37.5084Z" fill="#200036"/>
<path d="M246.656 52.8562C250.43 53.3378 257.339 55.0717 259.386 58.7C261.432 62.3283 259.929 96.9094 257.339 119.514C257.339 119.514 226.028 132.807 214.93 118.519C214.93 118.519 222.669 60.2412 227.115 54.847C230.793 50.3196 242.882 52.3746 246.656 52.8562Z" fill="#8855AA"/>
<path d="M247.424 52.9527C247.424 52.9527 234.215 71.3831 232.68 72.8922C232.68 72.8922 233.159 57.0626 233.447 52.3105L247.424 52.9527Z" fill="url(#paint0_linear_3204_16973)"/>
<path d="M245.024 45.1502C245.184 44.4438 245.312 43.9943 245.312 43.9943C245.312 43.9943 237.796 37.99 236.805 44.0906L245.024 45.1502Z" fill="white"/>
<path d="M236.966 56.8055L234.695 52.4387C234.695 52.4387 237.062 50.8333 236.742 46.6913C235.975 36.5128 245.314 43.9941 245.314 43.9941C245.314 43.9941 243.618 52.4708 246.689 52.8561L236.966 56.8055Z" fill="#FFD2A7"/>
<path d="M237.032 54.8148C242.277 55.4891 242.022 48.8747 242.277 47.6545C242.501 46.4986 245.284 43.9941 245.284 43.9941C245.284 43.9941 243.589 52.4708 246.659 52.8561L236.968 56.8055L235.625 54.2368C236.009 54.5258 236.457 54.7184 237.032 54.8148Z" fill="#FFBC8E"/>
<path d="M260.378 68.2041L251.039 70.0985L254.621 88.5931C254.621 88.5931 255.964 124.266 221.711 123.463C235.368 128.825 257.34 119.514 257.34 119.514C258.587 108.661 260.826 80.3733 260.378 68.2041Z" fill="#4D0180"/>
<path d="M234.151 29.3848L231.561 41.1366C231.113 44.6364 234.759 48.0078 238.437 48.4894C242.115 48.9711 245.473 46.5308 245.921 43.031L245.953 42.742C245.953 42.742 249.791 42.9667 250.303 39.0816C250.814 35.1964 248.064 36.4487 248.064 36.4487L248.288 34.779C248.544 32.8525 247.2 31.1186 245.281 30.8618L234.151 29.3848Z" fill="#FFD2A7"/>
<path d="M248.066 36.4488L248.289 34.6186C248.545 32.7884 247.234 31.1187 245.411 30.8619L243.524 30.605C243.524 30.6371 243.524 30.6692 243.524 30.7334L241.797 44.2191C241.477 46.563 238.982 48.1042 236.712 47.7189C236.008 47.5905 234.633 46.9804 234.121 46.5951C235.688 47.8474 237.095 48.3611 238.439 48.5216C242.117 49.0033 245.475 46.563 245.923 43.0632L245.955 42.7742C245.955 42.7742 249.793 42.9989 250.304 39.1138C250.816 35.1965 248.066 36.4488 248.066 36.4488Z" fill="#FFBC8E"/>
<path d="M235.848 51.1226C235.56 53.8518 236.999 56.8058 236.999 56.8058C236.999 56.8058 235.464 55.8746 233.801 57.6406C233.097 58.3791 232.426 58.4112 232.426 58.4112C232.426 58.4112 232.458 56.2278 233.481 52.1821L235.848 51.1226Z" fill="#C8B0D8"/>
<path d="M245.06 50.8975C243.365 53.5304 237 56.8055 237 56.8055C237 56.8055 238.951 56.3881 240.806 58.9246C241.605 60.0163 242.853 60.3695 242.853 60.3695C242.853 60.3695 246.915 57.255 247.458 52.9203L245.06 50.8975Z" fill="#C8B0D8"/>
<path d="M243.937 29.5133C243.937 29.5133 241.026 32.4673 236.261 31.3756C231.528 30.2839 230.76 32.7563 230.76 32.7563C230.76 32.7563 229.641 23.6695 236.197 21.3577C242.722 19.0458 245.984 23.7658 245.984 23.7658L243.937 29.5133Z" fill="#200036"/>
<path d="M268.374 231.413C264.504 230.064 263.577 224.124 263.161 220.592L257.5 222.647C257.5 222.647 259.739 228.684 258.843 232.761C257.948 236.871 259.163 236.486 259.163 236.486H276.53C276.562 236.486 272.244 232.761 268.374 231.413Z" fill="#FFD2A7"/>
<path d="M276.913 237H259.323C259.323 237 258.683 237.225 258.427 235.876C258.299 235.17 258.203 235.202 258.427 233.404C258.459 233.051 258.491 232.697 258.523 232.344C260.186 232.505 262.681 231.252 262.681 231.252C263.417 229.294 265.943 228.395 266.615 229.422C267.67 231.22 269.877 231.638 271.38 232.152C274.706 233.275 275.538 234.592 276.338 235.876C276.753 236.55 276.913 237 276.913 237Z" fill="#200036"/>
<path d="M276.912 237H259.321C259.321 237 258.682 237.225 258.426 235.876H276.336C276.752 236.55 276.912 237 276.912 237Z" fill="#200036"/>
<path d="M260.598 174.195C265.716 178.369 263.381 208.455 265.94 228.459C265.94 228.459 260.023 229.775 256.473 228.234C256.473 228.234 246.75 193.043 246.75 184.855C246.75 170.471 255.097 169.7 260.598 174.195Z" fill="#4D0180"/>
<path d="M211.83 231.83C215.7 230.514 213.941 224.285 214.357 220.785L219.985 222.904C219.985 222.904 220.465 229.197 221.297 233.307C222.128 237.417 220.913 237.032 220.913 237.032L203.227 236.839C203.259 236.807 207.96 233.147 211.83 231.83Z" fill="#FFD2A7"/>
<path d="M211.829 231.83C213.013 231.477 213.3 230.674 214.004 229.551C214.452 228.748 215.827 230.128 216.531 231.702C216.531 231.702 219.569 232.954 221.2 232.44C221.232 232.729 221.264 233.018 221.328 233.275C222.16 237.385 220.944 237 220.944 237L203.258 236.807C204.153 233.468 208.087 232.986 211.829 231.83Z" fill="#200036"/>
<path d="M221.616 235.94C221.552 237.192 220.944 236.999 220.944 236.999L203.258 236.807C203.258 236.807 203.322 236.357 203.706 235.747L221.616 235.94Z" fill="#200036"/>
<path d="M215.284 180.456C212.022 184.085 214.037 209.065 213.109 227.11C213.109 227.11 219.058 228.876 222.48 227.303C222.48 227.303 231.883 192.561 229.836 185.369C227.086 175.736 219.666 175.576 215.284 180.456Z" fill="#4D0180"/>
<path d="M229.834 185.369C229.419 183.892 228.875 182.607 228.267 181.548C228.267 181.997 221.775 212.693 221.039 227.72C221.359 227.656 221.679 227.56 221.967 227.463C222.126 227.399 222.318 227.335 222.478 227.271C222.478 227.271 225.453 215.936 227.915 204.345C229.514 196.254 230.698 188.387 229.834 185.369Z" fill="#200036"/>
<path d="M260.602 174.195C259.963 173.649 259.259 173.2 258.523 172.814C259.195 175.576 261.882 187.007 261.69 195.162C261.498 204.249 263.225 225.89 263.96 228.78C265.144 228.619 265.943 228.459 265.943 228.459C263.353 208.455 265.688 178.369 260.602 174.195Z" fill="#200036"/>
<path d="M181.986 42.2925C181.922 42.8384 182.081 43.8979 182.785 43.9622C182.881 43.9622 182.945 43.9622 183.041 43.9301C182.881 44.2833 182.785 44.6364 182.753 45.0218C182.689 45.8245 183.009 47.173 184.128 46.8519C184.544 46.7235 184.928 46.4345 185.28 46.1134C185.216 46.8519 185.408 47.5583 186.047 48.1363C187.007 48.9711 187.71 48.3611 188.286 47.5262C188.19 48.5216 188.286 49.9986 189.533 49.7096C190.237 49.5491 190.877 48.7785 191.324 48.2968C191.996 47.5904 192.572 46.8198 193.084 45.9529C193.115 45.9208 193.115 45.8887 193.115 45.8566C193.211 45.7924 193.307 45.6639 193.307 45.4713C193.243 44.3796 192.508 43.031 191.261 43.5769C190.941 43.7053 190.621 43.8979 190.333 44.1227C190.653 43.2879 190.685 42.4531 189.917 41.9714C189.086 41.4898 188.158 41.9393 187.391 42.6136C187.391 42.5815 187.391 42.5815 187.391 42.5494C187.263 42.0678 187.103 41.4577 186.559 41.265C186.143 41.1366 185.696 41.3614 185.312 41.6182C185.312 41.4898 185.312 41.3935 185.248 41.3293C184.128 39.9807 182.177 40.6871 181.986 42.2925Z" fill="#FFD2A7"/>
<path d="M259.544 96.2031C257.977 92.928 257.977 90.8731 255.834 81.5936C255.706 81.2083 255.578 80.823 255.45 80.4377C253.307 73.2775 248.606 66.1173 248.318 64.7687C247.167 59.7597 253.819 51.1225 261.143 59.4707C267.795 67.0484 273.072 86.2815 271.409 93.3133C269.458 101.405 260.759 98.7076 259.544 96.2031Z" fill="#8855AA"/>
<path d="M270.578 95.9465C273.808 89.2037 276.783 67.7872 279.085 63.8057C280.621 61.1407 273.201 60.8838 272.689 63.0672C271.442 68.5578 262.39 85.0295 259.8 92.0934C257.625 98.1299 268.403 100.506 270.578 95.9465Z" fill="#FFD2A7"/>
<path d="M285.674 51.8291C281.9 55.329 277.359 53.5951 275.376 57.7692C273.393 61.9434 271.89 63.2277 274.257 65.5074C276.623 67.7871 278.542 65.6359 282.828 61.6865C287.018 57.8013 291.271 46.6596 285.674 51.8291Z" fill="#FFD2A7"/>
</g>
<path d="M202.283 232.498H16.082V233.912H202.283V232.498Z" fill="#AD8AC5"/>
<path d="M10.1519 118.415C3.3121 154.399 28.7925 185.078 83.4229 184.872C138.053 184.636 103.385 229.491 149.003 232.291C194.621 235.091 216.843 207.064 211.207 144.821C205.512 82.6073 204.514 9.60746 110.518 32.7128C51.2494 47.2715 16.5807 84.6998 10.1519 118.415Z" fill="url(#paint1_linear_3204_16973)"/>
<path d="M48.1085 194.391C65.0466 190.266 98.3356 186.788 108.992 202.643C119.648 218.528 109.05 224.334 89.8519 216.672C70.6828 209.009 24.7417 200.079 48.1085 194.391Z" fill="url(#paint2_linear_3204_16973)"/>
<mask id="mask0_3204_16973" style="mask-type:luminance" maskUnits="userSpaceOnUse" x="9" y="28" width="204" height="205">
<path d="M10.1519 118.415C3.3121 154.399 28.7925 185.078 83.4229 184.872C138.053 184.636 103.385 229.491 149.003 232.291C194.621 235.091 216.843 207.064 211.207 144.821C205.512 82.6073 204.514 9.60746 110.518 32.7128C51.2494 47.2715 16.5807 84.6998 10.1519 118.415Z" fill="white"/>
</mask>
<g mask="url(#mask0_3204_16973)">
<path d="M63.6384 84.3757V76.7427H76.2612V40.228H79.7251V76.7427H93.3166V84.3757H100.597V237.39H48.1094V84.3757H63.6384Z" fill="#8AC4C4"/>
<path d="M48.1183 222.003H55.3984L55.3984 84.3734H48.1183L48.1183 222.003Z" fill="#B0D7D7"/>
<path d="M74.372 237.369H126.859L126.859 120.81H74.372L74.372 237.369Z" fill="#8AC4C4"/>
<path d="M74.3683 237.369H81.6484L81.6484 120.81H74.3683L74.3683 237.369Z" fill="#B0D7D7"/>
<path d="M111.991 128.922H119.535V125.768H111.991V128.922Z" fill="#B0D7D7"/>
<path d="M99.3073 128.922H106.852V125.768H99.3073V128.922Z" fill="#B0D7D7"/>
<path d="M111.991 140.341H119.535V137.217H111.991V140.341Z" fill="#B0D7D7"/>
<path d="M99.3073 140.341H106.852V137.217H99.3073V140.341Z" fill="#B0D7D7"/>
<path d="M86.6275 140.341H94.1719V137.217H86.6275V140.341Z" fill="#B0D7D7"/>
<path d="M111.991 151.79H119.535V148.637H111.991V151.79Z" fill="#B0D7D7"/>
<path d="M86.6275 151.79H94.1719V148.637H86.6275V151.79Z" fill="#B0D7D7"/>
<path d="M99.3073 157.501H106.852V154.377H99.3073V157.501Z" fill="#B0D7D7"/>
<path d="M111.991 163.21H119.535V160.086H111.991V163.21Z" fill="#B0D7D7"/>
<path d="M99.3073 168.92H106.852V165.767H99.3073V168.92Z" fill="#B0D7D7"/>
<path d="M111.991 174.629H119.535V171.476H111.991V174.629Z" fill="#B0D7D7"/>
<path d="M86.6275 174.629H94.1719V171.476H86.6275V174.629Z" fill="#B0D7D7"/>
<path d="M111.991 185.198H119.535V182.074H111.991V185.198Z" fill="#B0D7D7"/>
<path d="M99.3073 185.198H106.852V182.074H99.3073V185.198Z" fill="#B0D7D7"/>
<path d="M111.991 196.618H119.535V193.494H111.991V196.618Z" fill="#B0D7D7"/>
<path d="M99.3073 196.618H106.852V193.494H99.3073V196.618Z" fill="#B0D7D7"/>
<path d="M86.6275 196.618H94.1719V193.494H86.6275V196.618Z" fill="#B0D7D7"/>
<path d="M111.991 208.037H119.535V204.884H111.991V208.037Z" fill="#B0D7D7"/>
<path d="M86.6275 208.037H94.1719V204.884H86.6275V208.037Z" fill="#B0D7D7"/>
<path d="M99.3073 213.747H106.852V210.594H99.3073V213.747Z" fill="#B0D7D7"/>
<path d="M86.6275 213.747H94.1719V210.594H86.6275V213.747Z" fill="#B0D7D7"/>
<path d="M111.991 219.486H119.535V216.332H111.991V219.486Z" fill="#B0D7D7"/>
<path d="M99.3073 225.196H106.852V222.072H99.3073V225.196Z" fill="#B0D7D7"/>
<path d="M111.991 230.906H119.535V227.752H111.991V230.906Z" fill="#B0D7D7"/>
<path d="M86.6275 230.906H94.1719V227.752H86.6275V230.906Z" fill="#B0D7D7"/>
<path d="M199.942 237.369H252.43L252.43 120.811H199.942V237.369Z" fill="#8AC4C4"/>
<path d="M199.939 237.369H207.219L207.219 120.811H199.939V237.369Z" fill="#B0D7D7"/>
<path d="M125.381 237.39H195.805L195.805 65.3669H125.381L125.381 237.39Z" fill="#8AC4C4"/>
<path d="M125.376 237.39H132.656L132.656 65.3669H125.376L125.376 237.39Z" fill="#B0D7D7"/>
<path d="M177.398 78.1875H188.406V73.59H177.398V78.1875Z" fill="#B0D7D7"/>
<path d="M158.882 78.1875H169.891V73.59H158.882V78.1875Z" fill="#B0D7D7"/>
<path d="M177.398 94.8813H188.406V90.2839H177.398V94.8813Z" fill="#B0D7D7"/>
<path d="M158.882 94.8813H169.891V90.2839H158.882V94.8813Z" fill="#B0D7D7"/>
<path d="M140.343 94.8813H151.352V90.2839H140.343V94.8813Z" fill="#B0D7D7"/>
<path d="M177.398 111.575H188.406V106.977H177.398V111.575Z" fill="#B0D7D7"/>
<path d="M140.343 111.575H151.352V106.977H140.343V111.575Z" fill="#B0D7D7"/>
<path d="M158.882 119.921H169.891V115.323H158.882V119.921Z" fill="#B0D7D7"/>
<path d="M177.398 128.268H188.406V123.67H177.398V128.268Z" fill="#B0D7D7"/>
<path d="M158.882 136.613H169.891V132.016H158.882V136.613Z" fill="#B0D7D7"/>
<path d="M177.398 144.931H188.406V140.334H177.398V144.931Z" fill="#B0D7D7"/>
<path d="M140.343 144.931H151.352V140.334H140.343V144.931Z" fill="#B0D7D7"/>
<path d="M177.398 160.359H188.406V155.761H177.398V160.359Z" fill="#B0D7D7"/>
<path d="M158.882 160.359H169.891V155.761H158.882V160.359Z" fill="#B0D7D7"/>
<path d="M177.398 177.053H188.406V172.455H177.398V177.053Z" fill="#B0D7D7"/>
<path d="M158.882 177.053H169.891V172.455H158.882V177.053Z" fill="#B0D7D7"/>
<path d="M140.343 177.053H151.352V172.455H140.343V177.053Z" fill="#B0D7D7"/>
<path d="M177.398 193.744H188.406V189.147H177.398V193.744Z" fill="#B0D7D7"/>
<path d="M140.343 193.744H151.352V189.147H140.343V193.744Z" fill="#B0D7D7"/>
<path d="M158.882 202.091H169.891V197.494H158.882V202.091Z" fill="#B0D7D7"/>
<path d="M140.343 202.091H151.352V197.494H140.343V202.091Z" fill="#B0D7D7"/>
<path d="M177.398 210.438H188.406V205.84H177.398V210.438Z" fill="#B0D7D7"/>
<path d="M158.882 218.755H169.891V214.158H158.882V218.755Z" fill="#B0D7D7"/>
<path d="M177.398 227.102H188.406V222.505H177.398V227.102Z" fill="#B0D7D7"/>
<path d="M140.343 227.102H151.352V222.505H140.343V227.102Z" fill="#B0D7D7"/>
<path d="M13.0677 237.37H57.5117L57.5117 128.799H13.0677L13.0677 237.37Z" fill="#8AC4C4"/>
<path d="M13.0396 237.37H17.6484L17.6484 128.799H13.0396L13.0396 237.37Z" fill="#B0D7D7"/>
<path d="M45.8514 136.899H52.8086V134.011H45.8514V136.899Z" fill="#B0D7D7"/>
<path d="M34.1854 136.899H41.1133V134.011H34.1854V136.899Z" fill="#B0D7D7"/>
<path d="M45.8514 147.444H52.8086V144.556H45.8514V147.444Z" fill="#B0D7D7"/>
<path d="M34.1854 147.444H41.1133V144.556H34.1854V147.444Z" fill="#B0D7D7"/>
<path d="M22.4881 147.444H29.4453V144.556H22.4881V147.444Z" fill="#B0D7D7"/>
<path d="M45.8514 157.961H52.8086V155.073H45.8514V157.961Z" fill="#B0D7D7"/>
<path d="M22.4881 157.961H29.4453V155.073H22.4881V157.961Z" fill="#B0D7D7"/>
<path d="M34.1854 163.219H41.1133V160.331H34.1854V163.219Z" fill="#B0D7D7"/>
<path d="M45.8514 168.505H52.8086V165.617H45.8514V168.505Z" fill="#B0D7D7"/>
<path d="M34.1854 173.764H41.1133V170.876H34.1854V173.764Z" fill="#B0D7D7"/>
<path d="M45.8514 179.021H52.8086V176.133H45.8514V179.021Z" fill="#B0D7D7"/>
<path d="M22.4881 179.021H29.4453V176.133H22.4881V179.021Z" fill="#B0D7D7"/>
<path d="M45.8514 188.763H52.8086V185.875H45.8514V188.763Z" fill="#B0D7D7"/>
<path d="M34.1854 188.763H41.1133V185.875H34.1854V188.763Z" fill="#B0D7D7"/>
<path d="M45.8514 199.309H52.8086V196.42H45.8514V199.309Z" fill="#B0D7D7"/>
<path d="M34.1854 199.309H41.1133V196.42H34.1854V199.309Z" fill="#B0D7D7"/>
<path d="M22.4881 199.309H29.4453V196.42H22.4881V199.309Z" fill="#B0D7D7"/>
<path d="M45.8514 209.825H52.8086V206.937H45.8514V209.825Z" fill="#B0D7D7"/>
<path d="M22.4881 209.825H29.4453V206.937H22.4881V209.825Z" fill="#B0D7D7"/>
<path d="M34.1854 215.112H41.1133V212.224H34.1854V215.112Z" fill="#B0D7D7"/>
<path d="M22.4881 215.112H29.4453V212.224H22.4881V215.112Z" fill="#B0D7D7"/>
<path d="M45.8514 220.371H52.8086V217.482H45.8514V220.371Z" fill="#B0D7D7"/>
<path d="M34.1854 225.628H41.1133V222.74H34.1854V225.628Z" fill="#B0D7D7"/>
<path d="M45.8514 230.887H52.8086V227.999H45.8514V230.887Z" fill="#B0D7D7"/>
<path d="M22.4881 230.887H29.4453V227.999H22.4881V230.887Z" fill="#B0D7D7"/>
<path opacity="0.35" d="M110.286 12.5835H-78.1172V228.253H110.286V12.5835Z" fill="white"/>
<path opacity="0.5" d="M50.0487 224.363H35.4297L113.808 15.0591H128.427L50.0487 224.363Z" fill="white"/>
<path opacity="0.5" d="M24.2451 224.363H16.9062L95.3144 15.0591H102.624L24.2451 224.363Z" fill="white"/>
<path opacity="0.5" d="M111.517 224.363H104.207L171.431 37.5454V52.5757L111.517 224.363Z" fill="white"/>
<path opacity="0.35" d="M300.711 12.8198H112.309V228.489H300.711V12.8198Z" fill="white"/>
<path opacity="0.5" d="M205.748 224.363H191.129L269.508 15.0596H284.127L205.748 224.363Z" fill="white"/>
<path opacity="0.5" d="M179.915 224.363H172.605L250.984 15.0596H258.294L179.915 224.363Z" fill="white"/>
<path d="M370.843 53.9023V51.4267H364.062V12.5249H175.659H171.549H-16.8828V17.4466H-12.7731V19.1854H108.729V51.3973H-16.8828V53.8728H108.729V117.206H-16.8828V119.682H108.729V183.015H-16.8828V185.491H108.729V226.75H-12.7437V228.165H-16.8828V233.882H171.549H175.659H364.091V233.411V185.52H370.872V183.045H364.091V119.711H370.872V117.236H364.091V53.9023H370.843ZM175.659 119.711H234.34V183.045H175.659V119.711ZM175.659 117.236V53.9023H234.34V117.236H175.659ZM175.659 51.4562V19.2148H234.34V51.4267H175.659V51.4562ZM175.659 185.52H234.34V226.78H175.688V228.194H175.659V185.52ZM238.479 226.78V185.52H297.161V226.78H238.479ZM238.479 183.045V119.711H297.161V183.045H238.479ZM238.479 117.236V53.9023H297.161V117.236H238.479ZM238.479 51.4562V19.2148H297.161V51.4267H238.479V51.4562ZM301.271 19.2148H359.952V51.4267H301.271V19.2148ZM112.839 19.2148H171.52V51.4267H112.839V19.2148ZM112.839 53.9023H171.52V117.236H112.839V53.9023ZM112.839 119.711H171.52V183.045H112.839V119.711ZM112.839 185.52H171.52V228.224H171.491V226.809H112.839V185.52ZM359.952 228.194L359.923 226.78H301.271V185.52H359.952V228.194ZM359.952 183.045H301.271V119.711H359.952V183.045ZM359.952 117.236H301.271V53.9023H359.952V117.236Z" fill="url(#paint3_linear_3204_16973)"/>
</g>
<path d="M118.919 232.498H102.744C99.9849 232.498 97.7539 230.258 97.7539 227.488C97.7539 224.717 99.9849 222.478 102.744 222.478H118.919V232.498Z" fill="url(#paint4_linear_3204_16973)"/>
<path d="M97.7852 226.928C98.0494 224.423 100.192 222.478 102.746 222.478H118.921V226.427C116.984 227.193 114.782 228.077 114.077 226.957C113.255 225.69 110.584 223.656 110.584 223.656C110.584 223.656 105.388 223.627 101.866 223.627C98.3723 223.568 97.7852 226.869 97.7852 226.928Z" fill="#6B5A00"/>
<path d="M142.519 231.496H113.545C111.285 231.496 109.465 229.668 109.465 227.399C109.465 225.13 111.285 223.303 113.545 223.303H142.519V231.496Z" fill="url(#paint5_linear_3204_16973)"/>
<path d="M144.221 230.759H113.779C111.959 230.759 110.492 229.286 110.492 227.458C110.492 225.631 111.959 224.158 113.779 224.158H144.221V222.448H113.779C111.02 222.448 108.789 224.688 108.789 227.458C108.789 230.229 111.02 232.468 113.779 232.468H144.221V230.759Z" fill="#6B5A00"/>
<path d="M121.882 208.184H109.348C107.205 208.184 105.473 206.445 105.473 204.294C105.473 202.143 107.205 200.404 109.348 200.404H121.882V208.184Z" fill="url(#paint6_linear_3204_16973)"/>
<path d="M140.145 207.418H117.688C115.956 207.418 114.547 206.003 114.547 204.264C114.547 202.525 115.956 201.111 117.688 201.111H140.145V207.418Z" fill="url(#paint7_linear_3204_16973)"/>
<path d="M141.463 206.858H117.891C116.481 206.858 115.337 205.709 115.337 204.294C115.337 202.879 116.481 201.73 117.891 201.73H141.463V200.404H117.891C115.748 200.404 114.016 202.143 114.016 204.294C114.016 206.445 115.748 208.184 117.891 208.184H141.463V206.858Z" fill="#1C0A76"/>
<path d="M123.41 214.138H109.789C108.145 214.138 106.824 212.812 106.824 211.161C106.824 209.511 108.145 208.185 109.789 208.185H123.41V214.138Z" fill="url(#paint8_linear_3204_16973)"/>
<path d="M106.912 211.898C106.854 211.662 106.824 211.426 106.824 211.161C106.824 209.511 108.145 208.185 109.789 208.185H123.41V209.57L120.093 209.216H109.877C109.877 209.216 107.265 209.216 106.912 211.898Z" fill="#6B5A00"/>
<path d="M144.166 213.548H122.208C120.887 213.548 119.801 212.457 119.801 211.131C119.801 209.805 120.887 208.714 122.208 208.714H144.166V213.548Z" fill="url(#paint9_linear_3204_16973)"/>
<path d="M145.163 213.106H122.324C121.238 213.106 120.387 212.222 120.387 211.161C120.387 210.07 121.267 209.216 122.324 209.216H145.163V208.184H122.324C120.68 208.184 119.359 209.51 119.359 211.161C119.359 212.811 120.68 214.137 122.324 214.137H145.163V213.106Z" fill="#6B5A00"/>
<path d="M111.93 222.448H136.823C139.113 222.448 140.962 220.591 140.962 218.293C140.962 215.994 139.113 214.137 136.823 214.137H111.93V222.448Z" fill="url(#paint10_linear_3204_16973)"/>
<path d="M136.825 214.137C139.115 214.137 140.965 215.994 140.965 218.293C140.965 218.44 140.965 218.587 140.935 218.735C140.935 218.735 139.732 215.905 136.385 215.876C133.039 215.847 118.566 215.876 118.566 215.876L114.633 214.137H136.825Z" fill="#1C0A76"/>
<path d="M101.863 221.623H116.394C118.244 221.623 119.77 220.12 119.77 218.233C119.77 216.377 118.273 214.844 116.394 214.844H101.863V221.623Z" fill="url(#paint11_linear_3204_16973)"/>
<path d="M100.453 221.033H116.217C117.714 221.033 118.947 219.796 118.947 218.293C118.947 216.79 117.714 215.552 116.217 215.552H100.453V214.137H116.217C118.507 214.137 120.356 215.994 120.356 218.293C120.356 220.591 118.507 222.448 116.217 222.448H100.453V221.033Z" fill="#1C0A76"/>
<path d="M44.9414 157.936C44.912 157.788 44.7359 157.67 44.5891 157.67C41.1839 157.729 36.898 157.729 34.0212 159.851C31.3205 161.826 30.9389 165.303 30.9976 168.398C30.9976 168.722 31.3792 168.81 31.5847 168.693C31.5847 168.693 31.6141 168.693 31.6141 168.722C38.7768 171.404 45.9688 165.48 44.9414 157.936Z" fill="#349899"/>
<path d="M28.4158 171.934C28.4451 169.547 27.8874 167.131 26.0673 165.48C23.9831 163.594 20.9595 162.504 18.4643 161.207C18.2001 161.089 17.8185 161.295 17.9359 161.619C19.0514 164.478 18.9046 167.956 20.8715 170.461C22.5447 172.583 25.3922 173.29 27.9167 172.494C28.0342 172.465 28.1222 172.376 28.1516 172.259C28.2984 172.229 28.4158 172.111 28.4158 171.934Z" fill="#349899"/>
<path d="M50.4909 179.715C48.8176 178.418 46.6453 178.536 44.6198 178.624C42.3594 178.713 40.0991 179.066 38.0442 180.039C34.4628 181.748 31.9676 185.521 33.2593 189.499C33.2299 189.676 33.2886 189.853 33.4941 189.912C36.8993 191.002 38.5432 188.703 40.5981 186.434C43.2107 183.517 46.5866 181.454 50.3147 180.304C50.5496 180.245 50.6964 179.892 50.4909 179.715Z" fill="#349899"/>
<path d="M58.6191 188.232C58.5898 188.232 58.5311 188.202 58.5017 188.173C57.0633 187.554 55.7717 186.375 54.4507 185.226C54.4507 185.226 54.4507 185.226 54.4213 185.196C52.9829 183.959 51.5151 182.75 49.8125 182.456C49.7832 182.456 49.7832 182.456 49.7832 182.456C48.9906 182.308 48.1686 182.367 47.2293 182.662C43.5892 183.87 41.3288 187.701 40.9766 191.356C40.9766 191.444 41.0059 191.503 41.0353 191.562C41.0353 191.592 41.0059 191.592 41.0059 191.621C40.9472 191.827 41.0646 192.093 41.3288 192.122C44.4405 192.505 47.5228 192.122 50.5758 191.474C53.2765 190.914 56.3588 190.442 58.7072 188.851C59.0008 188.703 58.9127 188.35 58.6191 188.232Z" fill="#349899"/>
<path d="M53.1894 195.246C49.1971 194.45 40.9482 192.417 40.3905 198.782C40.3611 198.989 40.5079 199.106 40.6547 199.106C44.2654 203.38 51.3107 199.991 53.3949 195.747C53.5123 195.57 53.4536 195.305 53.1894 195.246Z" fill="#349899"/>
<path d="M27.9465 182.397C26.8897 180.039 24.4239 177.622 22.0168 176.738C21.7819 176.65 21.5471 176.856 21.5471 177.092C21.5764 181.719 20.4609 189.028 25.4807 191.562C25.51 191.592 25.5394 191.592 25.5981 191.592C25.7449 191.798 26.0678 191.857 26.2146 191.592C27.741 188.821 29.3556 185.58 27.9465 182.397Z" fill="#349899"/>
<path d="M14.8523 185.344C12.3865 183.34 8.54092 182.897 5.66409 184.342C1.70112 186.346 2.40564 191.149 1.81854 194.833C1.75983 195.187 2.14145 195.452 2.435 195.187C6.33926 191.739 11.7994 190.383 14.7643 185.874C14.9697 185.786 15.0872 185.52 14.8523 185.344Z" fill="#349899"/>
<path d="M14.8827 188.998C14.7653 188.821 14.5892 188.792 14.4424 188.88C14.3543 188.763 14.1782 188.674 14.002 188.792C12.0352 189.882 9.74552 191.385 9.3639 193.743C8.89422 196.572 10.4794 199.343 10.6849 202.142C10.7143 202.526 11.3014 202.673 11.3894 202.231C11.8885 199.549 14.6479 198.311 15.6753 195.895C16.4973 193.92 16.0569 190.796 14.8827 188.998Z" fill="#349899"/>
<path d="M26.9755 205.472C24.6858 202.231 22.308 199.46 18.3157 198.429C18.0222 198.37 17.7286 198.694 17.9047 198.959C18.8148 200.315 18.7854 201.848 19.5486 203.233C19.989 204.058 20.7228 204.647 21.4861 205.148C23.1887 206.239 25.3904 207.211 27.2985 206.121C27.6801 205.885 27.3572 205.325 26.9755 205.472Z" fill="#349899"/>
<path d="M32.172 201.642C32.172 201.612 32.1426 201.583 32.1426 201.524C30.5574 198.989 30.4987 195.777 28.2971 193.596C28.1209 193.419 27.8567 193.478 27.7393 193.684C26.6825 195.394 26.1541 197.486 27.0054 199.402C27.9154 201.494 29.8529 202.054 31.9665 202.29C32.3188 202.319 32.3775 201.848 32.172 201.642Z" fill="#349899"/>
<path d="M36.6063 173.32C36.1659 172.937 35.5495 173.32 35.1091 173.496C34.2578 173.85 33.4652 174.263 32.7314 174.823C31.3517 175.854 30.4123 177.298 30.3242 179.008C30.3242 179.037 30.3242 179.096 30.3242 179.125C30.3242 179.184 30.3242 179.214 30.3242 179.273C30.3242 179.685 30.882 179.744 31.0287 179.42C32.7901 179.037 34.1698 177.917 35.3146 176.532C35.8137 175.913 37.6631 174.204 36.6063 173.32Z" fill="#349899"/>
<path d="M37.3965 201.936C37.3378 201.877 37.3084 201.818 37.2497 201.759C37.69 198.664 37.8955 195.069 34.8426 193.242C34.6371 193.124 34.3729 193.242 34.3142 193.448C33.4922 196.719 34.4316 200.079 36.8974 202.407C37.2204 202.761 37.7194 202.26 37.3965 201.936Z" fill="#349899"/>
<path d="M58.3256 187.849C56.9752 187.26 55.7423 186.228 54.4507 185.197C54.4507 185.197 54.4507 185.197 54.4213 185.167C52.9535 183.988 51.4564 182.839 49.8125 182.426C49.7832 182.426 49.7832 182.426 49.7832 182.426C48.9906 182.279 48.1686 182.338 47.2292 182.633C43.5892 183.841 41.3288 187.672 40.9766 191.327C40.9766 191.415 41.0059 191.474 41.0353 191.533C41.0353 191.562 41.0059 191.562 41.0059 191.592C41.1233 191.592 41.2408 191.533 41.3288 191.415C41.4169 191.385 41.4756 191.385 41.5343 191.327C42.7085 190.059 44.0002 188.88 45.2331 187.672C45.8202 187.083 46.4073 186.346 47.1118 185.874C48.5502 184.843 49.8125 185.02 51.3096 185.462C53.1297 185.992 54.7736 186.935 56.4175 187.849C57.0339 188.203 57.621 188.792 58.3256 188.468C58.443 188.409 58.5017 188.291 58.5017 188.144C58.5017 188.026 58.443 187.908 58.3256 187.849Z" fill="#01595A"/>
<path d="M26.3038 200.079C25.9515 198.665 25.5699 197.25 25.1002 195.865C25.1002 195.865 25.1002 195.836 25.1295 195.836C25.7754 193.596 26.0395 191.327 25.8928 189.087C26.0102 189.057 26.1276 188.998 26.1863 188.851C26.5973 187.525 26.7734 186.169 26.7147 184.754C26.6854 184.283 25.9808 184.283 25.9808 184.754C26.0396 185.727 25.9515 186.67 25.746 187.584C25.5992 186.523 25.3644 185.432 25.0415 184.371C24.8947 183.929 24.2195 184.106 24.3369 184.578C25.3644 187.908 25.4524 191.327 24.6599 194.686C23.9847 192.947 23.1334 191.297 21.9885 189.824C19.3172 186.375 14.4442 184.283 10.5693 185.904C10.5693 185.786 10.4812 185.639 10.3051 185.609C8.80796 185.255 7.31083 185.462 5.98984 186.258C5.57886 186.493 5.96049 187.142 6.34211 186.876C7.42825 186.228 8.60247 186.022 9.83539 186.228C8.95473 186.729 8.13278 187.466 7.39889 188.438C7.13469 188.821 7.75116 189.175 8.01536 188.792C9.86474 186.228 13.2113 185.403 16.1762 186.375C17.0275 186.641 17.82 187.053 18.5539 187.554C15.4716 187.495 13.1232 189.558 11.039 191.621C10.7161 191.945 11.2151 192.446 11.538 192.122C11.949 191.71 12.3893 191.297 12.8296 190.914C12.7122 191.651 12.6829 192.387 12.7709 193.124C12.8296 193.596 13.5342 193.596 13.5048 193.124C13.4167 192.181 13.4755 191.238 13.7103 190.325C13.7103 190.266 13.7103 190.236 13.7103 190.177C15.2074 188.998 16.8513 188.144 18.9062 188.291C19.1117 188.291 19.1998 188.203 19.2291 188.055C20.873 189.352 22.1646 191.12 23.104 192.977C24.9534 196.69 26.0102 200.934 26.6267 205.178C25.1295 204.795 23.8379 203.999 22.7811 202.85C22.4582 202.496 21.9592 203.027 22.2821 203.351C22.8105 203.94 23.3976 204.412 24.0434 204.824C23.6324 204.824 23.2214 204.795 22.7811 204.736C22.3408 204.677 22.1353 205.355 22.5756 205.443C23.2801 205.561 23.9553 205.591 24.6599 205.561C24.8066 205.561 24.8947 205.473 24.9534 205.355C25.4818 205.591 26.0395 205.797 26.6267 205.944C26.656 205.944 26.6854 205.944 26.6854 205.944C26.9496 208.007 27.0963 210.041 27.2138 212.045C27.2431 212.516 27.9476 212.516 27.9476 212.045C27.8009 208.037 27.2725 204.029 26.3038 200.079Z" fill="#200036"/>
<path d="M38.3055 185.167C37.6597 185.638 37.0433 186.139 36.4268 186.67C36.7791 185.373 37.3075 184.194 38.1 183.074C38.3642 182.691 37.7478 182.337 37.4836 182.721C36.5442 184.076 35.8984 185.55 35.5755 187.171C35.5461 187.289 35.5755 187.377 35.6342 187.436C34.0197 189.027 32.64 190.825 31.5245 192.8C31.319 190.295 31.1722 187.79 31.0548 185.285C30.9667 183.516 30.8199 181.512 30.7906 179.449C31.6125 178.329 32.5225 177.209 33.8142 176.591C34.2251 176.384 33.8729 175.765 33.4619 175.972C32.3464 176.502 31.5245 177.357 30.7906 178.3C30.7906 177.327 30.7906 176.355 30.8493 175.412C30.908 175.323 30.908 175.205 30.8786 175.088C31.2309 169.96 32.7867 165.126 37.6597 162.857C38.0707 162.651 37.7184 162.032 37.3075 162.238C36.0745 162.798 35.0471 163.535 34.1958 164.39C34.1664 163.682 34.2545 163.004 34.5187 162.327C34.6948 161.884 33.9903 161.708 33.8142 162.12C33.4325 163.063 33.3738 164.036 33.5206 165.038C33.5206 165.067 33.5206 165.067 33.55 165.067C31.4657 167.572 30.6144 170.873 30.2915 174.351C29.2347 173.142 28.2073 171.905 27.1505 170.696C27.2386 170.637 27.3266 170.549 27.3266 170.402C27.2679 169.37 26.945 168.427 26.3579 167.602C26.0937 167.219 25.4772 167.572 25.7414 167.956C26.1818 168.574 26.446 169.252 26.5634 169.989C26.1818 169.547 25.7708 169.075 25.3892 168.633C25.0956 168.28 24.5672 168.781 24.8901 169.134C26.6808 171.227 28.4715 173.29 30.2622 175.382C30.1741 176.649 30.1741 177.917 30.2035 179.184C30.1741 179.213 30.1741 179.213 30.1447 179.243C30.0273 179.42 30.086 179.567 30.2035 179.656C30.2328 180.864 30.2622 182.072 30.3209 183.192C30.5557 188.968 30.9961 194.745 31.6125 200.521C30.3209 199.784 29.587 198.429 28.9412 197.132C28.7357 196.719 28.1192 197.073 28.3247 197.486C29.0586 198.989 29.9099 200.551 31.4951 201.287C31.5538 201.317 31.6419 201.317 31.7006 201.317C32.1116 205.001 32.6106 208.714 33.1977 212.368C33.2564 212.84 33.9609 212.634 33.9022 212.162C32.9629 206.121 32.229 200.05 31.7299 193.978C31.7887 193.949 31.8474 193.92 31.9061 193.831C33.55 190.619 35.869 187.907 38.8046 185.786C39.0394 185.52 38.6872 184.872 38.3055 185.167Z" fill="#200036"/>
<path d="M50.2544 185.727C48.7279 185.698 47.3482 186.051 46.0859 186.7C46.6143 186.14 47.2014 185.58 47.8179 185.108C48.1702 184.843 47.8179 184.195 47.4656 184.489C46.2621 185.432 45.2053 186.493 44.2953 187.731C44.2659 187.79 44.2365 187.82 44.2365 187.878C41.8 189.794 39.98 192.741 38.8645 195.57C38.1893 197.28 37.6609 199.048 37.2793 200.846C36.8683 200.168 36.6629 199.402 36.3987 198.665C36.1932 198.075 36.017 197.516 35.4593 197.162C35.0777 196.926 34.6961 197.545 35.107 197.781C35.6941 198.164 35.8409 199.225 36.0464 199.814C36.2519 200.404 36.4867 200.964 36.839 201.494C36.9271 201.612 37.0151 201.641 37.1325 201.641C36.2519 206.033 36.017 210.601 35.6061 214.992C35.5474 215.463 36.2812 215.463 36.3399 214.992C36.7216 210.895 36.9858 206.71 37.7197 202.643C37.7784 202.614 37.8371 202.614 37.8664 202.555C39.2461 201.052 40.6552 199.52 42.3578 198.459C42.8862 198.93 43.4733 199.313 44.1485 199.549C44.5888 199.696 44.7943 198.989 44.354 198.842C43.8549 198.665 43.4146 198.429 43.033 198.105C43.5027 197.869 44.0017 197.633 44.5301 197.486C44.9704 197.339 44.7943 196.661 44.3246 196.779C43.6201 196.985 42.9743 197.28 42.3578 197.633C42.2404 197.633 42.1523 197.722 42.0936 197.81C40.5378 198.753 39.2168 200.021 37.9545 201.406C38.1893 200.256 38.4535 199.136 38.8058 198.017C39.5103 195.747 40.5965 193.242 42.1523 191.15H42.1817C43.0036 190.884 43.8549 190.678 44.7062 190.56C45.1759 190.501 44.9704 189.794 44.5007 189.853C43.9723 189.941 43.4439 190.03 42.9155 190.177C44.7943 187.996 47.2308 186.464 50.2837 186.523C50.7241 186.464 50.7241 185.727 50.2544 185.727Z" fill="#200036"/>
<path d="M44.2376 208.361L43.6505 211.956L42.623 218.381L40.3627 232.439H23.9237L21.6927 218.381L20.6359 211.956L20.0781 208.361H44.2376Z" fill="#FFE454"/>
<path opacity="0.08" d="M26.9473 211.956L26.3602 208.361H20.0781L20.6359 211.956L21.6927 218.381L23.9237 232.439H30.2057L27.9747 218.381L26.9473 211.956Z" fill="black"/>
<path opacity="0.64" d="M38.4526 231.289C38.4232 231.289 38.4232 231.289 38.3939 231.289C37.9829 231.26 37.66 231.024 37.6894 230.759L40.5075 209.392C40.5368 209.127 40.9184 208.921 41.3294 208.95C41.7404 208.98 42.0633 209.215 42.0339 209.481L39.2158 230.847C39.1865 231.083 38.8342 231.289 38.4526 231.289Z" fill="white"/>
<path d="M178.65 57.1447H176.125L177.563 36.3086H180.088L178.65 57.1447Z" fill="#343737"/>
<path d="M148.739 232.498H147.477L166.381 163.565H167.644L148.739 232.498Z" fill="#646565"/>
<path d="M171.547 163.565H170.344V232.498H171.547V163.565Z" fill="#646565"/>
<path d="M194.505 232.498H193.243L174.367 163.565H175.629L194.505 232.498Z" fill="#646565"/>
<path d="M157.575 201.877L168.173 163.565H165.677L155.051 201.877H157.575Z" fill="#343737"/>
<path d="M172.196 163.565H169.672V201.877H172.196V163.565Z" fill="#343737"/>
<path d="M186.96 201.877L176.216 163.565H173.691L184.435 201.877H186.96Z" fill="#343737"/>
<path d="M176.214 163.565H165.676V166.247H176.214V163.565Z" fill="#343737"/>
<path d="M183.23 41.1125H173.777L173.953 38.4307H183.406L183.23 41.1125Z" fill="#343737"/>
<path d="M181.97 165.805H159.895V168.487H181.97V165.805Z" fill="#343737"/>
<path d="M170.757 209.716L152.586 215.964V214.903L170.757 208.626V209.716Z" fill="#646565"/>
<path d="M189.368 215.876L171.109 209.716V208.626L189.368 214.785V215.876Z" fill="#646565"/>
<path opacity="0.15" d="M226.033 94.8379C215.759 97.225 209.037 107.304 210.945 117.855C212.119 124.456 216.434 129.673 222.012 132.355C226.386 120.36 227.736 107.216 226.033 94.8379Z" fill="#1C0A76"/>
<path d="M206.98 145.912C187.254 171.581 155.286 173.998 136.234 150.421C117.182 126.844 117.74 86.9402 137.467 61.2709C157.194 35.6016 188.604 33.9217 207.656 57.4986C226.678 81.0754 226.678 120.243 206.98 145.912Z" fill="#017374"/>
<path d="M201.666 145.175C182.351 170.314 151.557 171.964 132.916 148.888C114.246 125.783 114.804 86.6749 134.12 61.5361C153.436 36.3972 184.229 34.7469 202.87 57.8227C221.54 80.9281 220.982 120.036 201.666 145.175Z" fill="url(#paint12_linear_3204_16973)"/>
<path d="M196.85 139.192C180.293 160.736 153.903 162.18 137.904 142.375C121.905 122.571 122.375 89.062 138.931 67.4892C155.488 45.9458 181.878 44.5017 197.877 64.3063C213.876 84.1109 213.406 117.649 196.85 139.192Z" fill="url(#paint13_linear_3204_16973)"/>
<path d="M192.039 133.21C178.242 151.157 156.254 152.366 142.927 135.862C129.6 119.358 129.981 91.4196 143.778 73.4717C157.575 55.5238 179.562 54.3155 192.89 70.8193C206.217 87.3231 205.836 115.262 192.039 133.21Z" fill="url(#paint14_linear_3204_16973)"/>
<path d="M187.192 127.257C176.155 141.639 158.571 142.582 147.915 129.379C137.259 116.176 137.552 93.8365 148.59 79.4547C159.628 65.1022 177.212 64.1297 187.867 77.3327C198.553 90.5358 198.23 112.875 187.192 127.257Z" fill="url(#paint15_linear_3204_16973)"/>
<path d="M182.379 121.274C174.101 132.061 160.891 132.768 152.907 122.866C144.922 112.963 145.127 96.1942 153.406 85.4373C161.684 74.6509 174.864 73.9436 182.878 83.8459C190.892 93.7187 190.658 110.488 182.379 121.274Z" fill="url(#paint16_linear_3204_16973)"/>
<path d="M177.538 115.292C172.019 122.482 163.213 122.954 157.899 116.352C152.557 109.751 152.733 98.5814 158.252 91.3905C163.77 84.1995 172.577 83.728 177.89 90.3295C183.233 96.9311 183.057 108.101 177.538 115.292Z" fill="url(#paint17_linear_3204_16973)"/>
<path d="M172.721 109.309C169.962 112.904 165.559 113.14 162.887 109.839C160.216 106.538 160.304 100.939 163.063 97.373C165.823 93.7775 170.226 93.5417 172.897 96.8425C175.569 100.143 175.481 105.743 172.721 109.309Z" fill="url(#paint18_linear_3204_16973)"/>
<path opacity="0.15" d="M167.058 103.679L181.148 130.822L182.587 143.554L185.786 155.666L190.924 145.027L201.227 145.794L194.094 137.159L184.436 128.966L168.643 102.795C168.408 102.353 167.85 102.206 167.41 102.442C166.97 102.677 166.794 103.237 167.058 103.679Z" fill="#1C0A76"/>
<path d="M136.852 64.6011L167 103.414C167.352 103.857 167.968 103.945 168.409 103.591C168.849 103.238 168.937 102.619 168.585 102.177L138.437 63.3633L136.852 64.6011Z" fill="#343737"/>
<path d="M146.333 73.9139L144.836 61.3592L136.763 50.9854L135.501 61.2118L125.344 59.9446L133.387 70.3184L145.159 74.8569L146.333 73.9139Z" fill="#8855AA"/>
<path d="M91.6445 61.4181L143.545 101.057C143.985 101.381 144.602 101.322 144.954 100.85C145.277 100.408 145.218 99.7895 144.778 99.4358L92.8481 59.8267L91.6445 61.4181Z" fill="#343737"/>
<path d="M103.182 67.9901L98.5442 56.2606L88.123 48.2739L89.5027 58.4709L79.3164 59.8561L89.7669 67.8427L102.272 69.1984L103.182 67.9901Z" fill="#8855AA"/>
<path d="M144.836 95.8403L150.883 105.242L143.75 99.9073L144.836 95.8403Z" fill="#200036"/>
<path d="M140.348 101.823L150.886 105.241L143.753 99.9072L140.348 101.823Z" fill="#200036"/>
<path d="M106.586 143.377L159.19 119.24C159.69 119.005 159.924 118.415 159.69 117.914C159.455 117.413 158.868 117.177 158.369 117.413L105.734 141.55L106.586 143.377Z" fill="#343737"/>
<path d="M117.802 136.245L105.296 134.801L96.7539 138.721L106.382 142.316L102.801 151.983L111.344 148.063L118.418 137.601L117.802 136.245Z" fill="#8855AA"/>
<path d="M155.227 115.645L163.681 115.94L158.426 118.651L155.227 115.645Z" fill="#200036"/>
<path d="M158.371 122.394L163.685 115.939L158.195 118.179L158.371 122.394Z" fill="#200036"/>
<path opacity="0.15" d="M219.427 81.3993C217.137 72.5875 213.204 64.365 207.656 57.4983C203.487 52.3408 198.732 48.3917 193.653 45.6509C190.395 49.0106 188.134 53.4313 187.488 58.4413C185.903 70.7013 194.534 81.9298 206.746 83.5212C211.237 84.1107 215.611 83.2855 219.427 81.3993Z" fill="#1C0A76"/>
<path opacity="0.15" d="M178.945 162.592C167.79 166.748 155.902 165.863 145.539 159.851C149.12 153.073 156.723 149.065 164.649 150.391C171.519 151.54 176.861 156.403 178.945 162.592Z" fill="#1C0A76"/>
<g clip-path="url(#clip1_3204_16973)">
<path d="M5.66128 29.4305C4.17046 44.2426 14.9429 57.4196 29.7069 58.8623C44.4709 60.3532 57.6479 49.5807 59.1387 34.8167C60.6295 20.0527 49.8571 6.87574 35.0931 5.38492C20.281 3.89409 7.10402 14.6665 5.66128 29.4305Z" fill="#200036"/>
<path d="M4.64566 29.1903C3.15483 43.9543 13.9273 57.1313 28.6913 58.6221C43.4553 60.1129 56.6322 49.3405 58.1231 34.5765C59.6139 19.8125 48.8415 6.63551 34.0775 5.14468C19.3135 3.65385 6.13649 14.4263 4.64566 29.1903Z" fill="#F1F8F1"/>
<path d="M30.8477 48.4979C29.1317 48.4979 25.1278 47.3228 13.7596 29.6951C12.6156 27.9715 13.0446 25.6212 14.6176 24.3676C16.1905 23.1141 18.3355 23.5842 19.4795 25.3078C22.9829 30.7136 27.4873 36.9029 30.1327 39.6449C34.9946 30.9486 49.0797 6.89667 49.7947 5.72149C50.8672 3.9979 53.0121 3.44948 54.5851 4.62466C56.2295 5.79984 56.6585 8.15019 55.6576 9.87378C50.3667 18.9618 36.21 43.0921 34.7086 46.0692C33.9936 47.4794 32.7066 48.4196 31.2052 48.4979C31.0622 48.4979 30.9907 48.4979 30.8477 48.4979Z" fill="#5DBB63"/>
</g>
<defs>
<linearGradient id="paint0_linear_3204_16973" x1="232.685" y1="62.6162" x2="247.437" y2="62.6162" gradientUnits="userSpaceOnUse">
<stop stop-color="white"/>
<stop offset="1" stop-color="#D3DBEB"/>
</linearGradient>
<linearGradient id="paint1_linear_3204_16973" x1="-5.41675" y1="185.814" x2="283.092" y2="79.2481" gradientUnits="userSpaceOnUse">
<stop stop-color="white"/>
<stop offset="1" stop-color="#D3DBEB"/>
</linearGradient>
<linearGradient id="paint2_linear_3204_16973" x1="6.65381" y1="244.883" x2="267.141" y2="106.726" gradientUnits="userSpaceOnUse">
<stop stop-color="white"/>
<stop offset="1" stop-color="#D3DBEB"/>
</linearGradient>
<linearGradient id="paint3_linear_3204_16973" x1="-16.8739" y1="123.231" x2="370.836" y2="123.231" gradientUnits="userSpaceOnUse">
<stop stop-color="white"/>
<stop offset="1" stop-color="#D3DBEB"/>
</linearGradient>
<linearGradient id="paint4_linear_3204_16973" x1="97.7402" y1="227.475" x2="118.92" y2="227.475" gradientUnits="userSpaceOnUse">
<stop stop-color="#B59900"/>
<stop offset="1" stop-color="#FFDF33"/>
</linearGradient>
<linearGradient id="paint5_linear_3204_16973" x1="109.462" y1="227.403" x2="142.513" y2="227.403" gradientUnits="userSpaceOnUse">
<stop stop-color="white"/>
<stop offset="1" stop-color="#D3DBEB"/>
</linearGradient>
<linearGradient id="paint6_linear_3204_16973" x1="105.468" y1="204.299" x2="121.871" y2="204.299" gradientUnits="userSpaceOnUse">
<stop stop-color="#AD8AC5"/>
<stop offset="1" stop-color="#4D0180"/>
</linearGradient>
<linearGradient id="paint7_linear_3204_16973" x1="114.552" y1="204.243" x2="140.149" y2="204.243" gradientUnits="userSpaceOnUse">
<stop stop-color="white"/>
<stop offset="1" stop-color="#D3DBEB"/>
</linearGradient>
<linearGradient id="paint8_linear_3204_16973" x1="106.81" y1="211.161" x2="123.401" y2="211.161" gradientUnits="userSpaceOnUse">
<stop stop-color="#8C7600"/>
<stop offset="1" stop-color="#FFDF33"/>
</linearGradient>
<linearGradient id="paint9_linear_3204_16973" x1="119.778" y1="211.118" x2="144.152" y2="211.118" gradientUnits="userSpaceOnUse">
<stop stop-color="white"/>
<stop offset="1" stop-color="#D3DBEB"/>
</linearGradient>
<linearGradient id="paint10_linear_3204_16973" x1="111.933" y1="218.296" x2="140.969" y2="218.296" gradientUnits="userSpaceOnUse">
<stop stop-color="#6A6AE8"/>
<stop offset="1" stop-color="#312890"/>
</linearGradient>
<linearGradient id="paint11_linear_3204_16973" x1="101.86" y1="218.237" x2="119.77" y2="218.237" gradientUnits="userSpaceOnUse">
<stop stop-color="white"/>
<stop offset="1" stop-color="#D3DBEB"/>
</linearGradient>
<linearGradient id="paint12_linear_3204_16973" x1="216.524" y1="103.345" x2="119.268" y2="103.345" gradientUnits="userSpaceOnUse">
<stop stop-color="#55A9A9"/>
<stop offset="1" stop-color="#349899"/>
</linearGradient>
<linearGradient id="paint13_linear_3204_16973" x1="213.732" y1="88.4933" x2="102.205" y2="124.345" gradientUnits="userSpaceOnUse">
<stop stop-color="white"/>
<stop offset="1" stop-color="#D3DBEB"/>
</linearGradient>
<linearGradient id="paint14_linear_3204_16973" x1="202.63" y1="103.345" x2="133.162" y2="103.345" gradientUnits="userSpaceOnUse">
<stop stop-color="#8AC4C4"/>
<stop offset="1" stop-color="#349899"/>
</linearGradient>
<linearGradient id="paint15_linear_3204_16973" x1="213.732" y1="88.4936" x2="102.206" y2="124.345" gradientUnits="userSpaceOnUse">
<stop stop-color="white"/>
<stop offset="1" stop-color="#D3DBEB"/>
</linearGradient>
<linearGradient id="paint16_linear_3204_16973" x1="188.736" y1="103.345" x2="147.055" y2="103.345" gradientUnits="userSpaceOnUse">
<stop stop-color="#8AC4C4"/>
<stop offset="1" stop-color="#349899"/>
</linearGradient>
<linearGradient id="paint17_linear_3204_16973" x1="213.736" y1="88.4939" x2="102.21" y2="124.345" gradientUnits="userSpaceOnUse">
<stop stop-color="white"/>
<stop offset="1" stop-color="#D3DBEB"/>
</linearGradient>
<linearGradient id="paint18_linear_3204_16973" x1="174.842" y1="103.345" x2="160.948" y2="103.345" gradientUnits="userSpaceOnUse">
<stop stop-color="#8AC4C4"/>
<stop offset="1" stop-color="#349899"/>
</linearGradient>
<clipPath id="clip0_3204_16973">
<rect width="106.374" height="216.316" fill="white" transform="translate(181.988 20.6836)"/>
</clipPath>
<clipPath id="clip1_3204_16973">
<rect width="59" height="62" fill="white" transform="translate(0 4)"/>
</clipPath>
</defs>
</svg>
