<svg width="129" height="163" viewBox="0 0 129 163" fill="none" xmlns="http://www.w3.org/2000/svg">
<g clip-path="url(#clip0_3170_18)">
<path d="M2.04637 6.79688C1.73976 3.85014 4.45212 0.974117 7.49469 0.8091C7.91923 0.785526 8.36736 0.8091 8.7919 0.8091C43.3922 0.8091 77.969 0.856248 112.569 0.761952C118.324 0.738378 125.919 4.46306 127.523 13.0911C127.971 15.5192 128.254 18.0416 128.254 20.5169C128.301 61.1819 128.395 101.847 128.183 142.536C128.136 152.672 121.438 161.23 110.423 162.597C107.946 162.903 105.399 162.691 102.876 162.715C99.6207 162.738 96.3659 162.715 92.9224 162.715C92.9224 162.102 92.9224 161.56 92.9224 161.041C92.9224 140.107 92.9224 119.15 92.9224 98.2165C92.9224 92.6059 89.3373 88.0562 84.0541 86.9718C83.205 86.8068 82.3324 86.7596 81.4833 86.7596C70.7046 86.736 59.9494 86.736 49.1707 86.7596C42.1894 86.7596 37.5194 91.498 37.5194 98.4759C37.5194 119.339 37.5194 140.202 37.5194 161.065C37.5194 161.56 37.5194 162.078 37.5194 162.738C37.0005 162.738 36.5759 162.738 36.175 162.738C30.7031 162.738 25.2548 162.738 19.7829 162.738C10.8203 162.738 2.87187 156.491 0.819912 147.769C0.489712 146.402 0.324611 144.987 0.324611 143.596C0.301025 110.074 0.301025 76.5993 0.301025 43.1007C0.301025 37.0186 2.91905 32.2096 7.61262 28.4849C11.0561 25.7503 15.0893 24.5952 19.4763 24.5952C50.4916 24.5952 81.5068 24.5952 112.522 24.5952C116.555 24.5952 119.48 22.78 121.084 19.1025C123.537 13.4919 119.433 7.05619 113.3 6.79688C112.593 6.7733 111.885 6.7733 111.178 6.7733C75.3745 6.7733 39.5478 6.7733 3.74455 6.7733C3.17849 6.79688 2.63602 6.79688 2.04637 6.79688ZM58.8645 36.4057C63.4637 36.4057 68.063 36.4057 72.6386 36.4057C74.549 36.4057 75.7519 35.3213 75.7519 33.6476C75.7519 31.9738 74.549 30.8894 72.6386 30.8894C63.5345 30.8894 54.4068 30.8894 45.3027 30.8894C44.8781 30.8894 44.43 30.913 44.029 31.0544C42.7082 31.4788 41.9771 32.7753 42.1894 34.1191C42.4016 35.4392 43.5102 36.3821 44.9253 36.4057C49.5953 36.4293 54.2181 36.4057 58.8645 36.4057ZM81.4833 37.5844C83.5116 37.5844 85.1626 35.9814 85.1862 33.9776C85.2098 31.8795 83.5824 30.2058 81.5068 30.2058C79.4785 30.2058 77.8275 31.8088 77.8039 33.8362C77.7803 35.9107 79.4077 37.5844 81.4833 37.5844Z" fill="#017374"/>
<path d="M59.0532 13.4687C41.812 13.4687 24.5472 13.4687 7.30599 13.4687C5.58423 13.4687 4.78232 12.9736 4.75873 11.8656C4.73515 10.7577 5.56065 10.2155 7.23524 10.2155C41.812 10.2155 76.4123 10.2155 110.989 10.2155C111.272 10.2155 111.532 10.1919 111.815 10.2155C112.782 10.3098 113.371 10.852 113.395 11.7949C113.418 12.7379 112.829 13.3036 111.885 13.4215C111.579 13.4687 111.249 13.4451 110.942 13.4451C93.6535 13.4687 76.3651 13.4687 59.0532 13.4687Z" fill="#B59900"/>
<path d="M65.5864 17.8298C80.6341 17.8298 95.6819 17.8298 110.73 17.8298C112.404 17.8298 113.324 18.372 113.324 19.3857C113.324 20.3994 112.428 20.9416 110.73 20.9416C80.587 20.9416 50.4444 20.9416 20.3017 20.9416C20.231 20.9416 20.1366 20.9416 20.0659 20.9416C18.6507 20.9416 17.8488 20.3522 17.8488 19.3857C17.8488 18.4192 18.6743 17.8298 20.0659 17.8298C35.2551 17.8298 50.4208 17.8298 65.5864 17.8298Z" fill="#4D0180"/>
<ellipse cx="65.416" cy="154.998" rx="4.01394" ry="4.01192" fill="#4D0180"/>
</g>
<defs>
<clipPath id="clip0_3170_18">
<rect width="128" height="162" fill="white" transform="translate(0.301025 0.762299)"/>
</clipPath>
</defs>
</svg>
