<svg width="50" height="64" viewBox="0 0 50 64" fill="none" xmlns="http://www.w3.org/2000/svg">
<g clip-path="url(#clip0_3450_25839)">
<path d="M0.681776 2.35725C0.562005 1.20618 1.62152 0.0827374 2.81002 0.0182774C2.97586 0.00906888 3.15091 0.0182774 3.31675 0.0182774C16.8325 0.0182774 30.339 0.0366946 43.8548 -0.000139683C46.1028 -0.00934825 49.0695 1.4456 49.696 4.81594C49.871 5.76442 49.9816 6.74974 49.9816 7.71664C50 23.6014 50.0369 39.4862 49.9539 55.3802C49.9355 59.3398 47.319 62.6825 43.0164 63.2166C42.049 63.3364 41.054 63.2535 40.0682 63.2627C38.7968 63.2719 37.5253 63.2627 36.1802 63.2627C36.1802 63.0233 36.1802 62.8115 36.1802 62.6089C36.1802 54.4317 36.1802 46.2453 36.1802 38.0681C36.1802 35.8764 34.7798 34.0992 32.716 33.6756C32.3844 33.6111 32.0435 33.5927 31.7118 33.5927C27.5014 33.5835 23.3002 33.5835 19.0897 33.5927C16.3626 33.5927 14.5384 35.4436 14.5384 38.1694C14.5384 46.3189 14.5384 54.4685 14.5384 62.6181C14.5384 62.8115 14.5384 63.0141 14.5384 63.2719C14.3357 63.2719 14.1699 63.2719 14.0133 63.2719C11.8758 63.2719 9.74756 63.2719 7.6101 63.2719C4.10908 63.2719 1.00424 60.8316 0.20269 57.4245C0.0737055 56.8904 0.00921319 56.3379 0.00921319 55.7945C0 42.7 0 29.6238 0 16.5384C0 14.1626 1.02266 12.2841 2.85609 10.8291C4.20122 9.76094 5.77667 9.30972 7.49033 9.30972C19.6057 9.30972 31.721 9.30972 43.8364 9.30972C45.4118 9.30972 46.5543 8.60066 47.1808 7.16412C48.1389 4.97248 46.5358 2.45855 44.1404 2.35725C43.864 2.34804 43.5876 2.34804 43.3112 2.34804C29.3256 2.34804 15.3308 2.34804 1.34513 2.34804C1.12401 2.35725 0.912106 2.35725 0.681776 2.35725ZM22.8764 13.9232C24.6729 13.9232 26.4695 13.9232 28.2569 13.9232C29.0031 13.9232 29.473 13.4996 29.473 12.8458C29.473 12.192 29.0031 11.7684 28.2569 11.7684C24.7006 11.7684 21.1351 11.7684 17.5788 11.7684C17.4129 11.7684 17.2379 11.7776 17.0813 11.8329C16.5653 11.9986 16.2797 12.5051 16.3626 13.03C16.4455 13.5457 16.8786 13.914 17.4314 13.9232C19.2556 13.9324 21.0614 13.9232 22.8764 13.9232ZM31.7118 14.3836C32.5041 14.3836 33.1491 13.7575 33.1583 12.9747C33.1675 12.1552 32.5318 11.5014 31.721 11.5014C30.9287 11.5014 30.2838 12.1275 30.2746 12.9195C30.2653 13.7298 30.901 14.3836 31.7118 14.3836Z" fill="#017374"/>
<path d="M22.9501 4.96341C16.2152 4.96341 9.47115 4.96341 2.73631 4.96341C2.06374 4.96341 1.75049 4.77003 1.74128 4.33723C1.73207 3.90443 2.05453 3.69263 2.70867 3.69263C16.2152 3.69263 29.731 3.69263 43.2375 3.69263C43.3481 3.69263 43.4494 3.68342 43.56 3.69263C43.9377 3.72946 44.168 3.94126 44.1772 4.3096C44.1865 4.67795 43.9561 4.89895 43.5876 4.94499C43.4678 4.96341 43.3388 4.9542 43.2191 4.9542C36.4658 4.96341 29.7125 4.96341 22.9501 4.96341Z" fill="#B59900"/>
<path d="M25.5021 6.66699C31.3801 6.66699 37.2582 6.66699 43.1362 6.66699C43.7903 6.66699 44.1496 6.87879 44.1496 7.27476C44.1496 7.67073 43.7995 7.88252 43.1362 7.88252C31.3617 7.88252 19.5872 7.88252 7.81279 7.88252C7.78515 7.88252 7.74829 7.88252 7.72065 7.88252C7.16786 7.88252 6.85461 7.65231 6.85461 7.27476C6.85461 6.89721 7.17708 6.66699 7.72065 6.66699C13.654 6.66699 19.578 6.66699 25.5021 6.66699Z" fill="#4D0180"/>
<ellipse cx="25.4355" cy="60.2484" rx="1.56794" ry="1.56716" fill="#4D0180"/>
</g>
<defs>
<clipPath id="clip0_3450_25839">
<rect width="50" height="63.2812" fill="white"/>
</clipPath>
</defs>
</svg>
