<svg width="24" height="24" viewBox="0 0 24 24" fill="none" xmlns="http://www.w3.org/2000/svg">
<path d="M10.43 18.37C10.28 18.37 10.14 18.33 10.01 18.24C9.80003 18.1 9.68003 17.87 9.68003 17.62C9.68003 17.47 9.67003 17.31 9.65003 17.15C9.56003 16.44 9.24003 15.82 8.70003 15.28C8.16003 14.74 7.49003 14.4 6.77003 14.31C6.65003 14.3 6.48003 14.29 6.32003 14.3C6.06003 14.32 5.82003 14.21 5.67003 14C5.52003 13.8 5.48003 13.53 5.56003 13.29C5.71003 12.88 5.93003 12.51 6.19003 12.21L7.73003 10.27C10.38 6.96 15.75 2.98 19.68 1.4C20.51 1.08 21.4 1.27 22.01 1.87C22.64 2.5 22.83 3.4 22.5 4.22C20.92 8.16 16.95 13.52 13.64 16.17L11.67 17.75C11.3 18.02 11 18.19 10.7 18.31C10.62 18.35 10.52 18.37 10.43 18.37ZM7.54003 12.94C8.38003 13.16 9.13003 13.6 9.76003 14.23C10.39 14.85 10.81 15.57 11.02 16.37L12.71 15.01C15.85 12.5 19.62 7.41 21.11 3.67C21.26 3.3 21.05 3.04 20.95 2.95C20.88 2.88 20.62 2.66 20.22 2.81C16.5 4.31 11.41 8.08 8.89003 11.22L7.54003 12.94Z" fill="#292D32"/>
<path d="M4.07999 22.75C3.32999 22.75 2.60999 22.45 2.06999 21.91C1.44999 21.29 1.14999 20.43 1.24999 19.55L1.51999 17.09C1.77999 14.65 3.77999 12.84 6.25999 12.79C6.44999 12.78 6.69999 12.79 6.92999 12.81C8.01999 12.95 8.98999 13.44 9.76999 14.22C10.54 14.99 11 15.91 11.14 16.94C11.17 17.16 11.19 17.4 11.19 17.61C11.19 18.93 10.68 20.16 9.75999 21.09C8.98999 21.85 7.99999 22.32 6.87999 22.46L4.40999 22.73C4.29999 22.74 4.18999 22.75 4.07999 22.75ZM6.44999 14.3C6.40999 14.3 6.35999 14.3 6.31999 14.3C4.80999 14.33 3.20999 15.36 3.00999 17.26L2.73999 19.72C2.68999 20.14 2.83999 20.55 3.12999 20.85C3.41999 21.14 3.82999 21.29 4.23999 21.24L6.69999 20.97C7.46999 20.87 8.15999 20.55 8.67999 20.03C9.31999 19.39 9.67999 18.53 9.67999 17.61C9.67999 17.46 9.66999 17.3 9.64999 17.14C9.55999 16.43 9.23999 15.81 8.69999 15.27C8.15999 14.73 7.48999 14.39 6.76999 14.3C6.68999 14.3 6.56999 14.3 6.44999 14.3Z" fill="#292D32"/>
<path d="M14.24 15.22C13.83 15.22 13.49 14.88 13.49 14.47C13.49 12.27 11.7 10.49 9.51001 10.49C9.10001 10.49 8.76001 10.15 8.76001 9.74C8.76001 9.33 9.09001 8.99 9.50001 8.99C12.52 8.99 14.98 11.45 14.98 14.47C14.99 14.89 14.65 15.22 14.24 15.22Z" fill="#292D32"/>
</svg>
