<svg width="24" height="24" viewBox="0 0 24 24" fill="none" xmlns="http://www.w3.org/2000/svg">
<path d="M10.8 22.1C10.51 22.1 10.22 22.05 9.94998 21.95C8.69998 21.54 7.89998 20.16 8.17998 18.88L8.66998 15.73C8.67998 15.66 8.67998 15.56 8.60998 15.48C8.55998 15.43 8.48998 15.4 8.40998 15.4H4.40998C3.42998 15.4 2.57998 14.99 2.07998 14.28C1.58998 13.59 1.48998 12.68 1.80998 11.8L4.19998 4.52C4.56998 3.07 6.11998 1.9 7.71998 1.9H11.52C12.08 1.9 13.3 2.07 13.95 2.72L16.98 5.06L16.06 6.25L12.96 3.85C12.71 3.6 12.08 3.4 11.52 3.4H7.71998C6.81998 3.4 5.84998 4.12 5.64998 4.93L3.22998 12.28C3.06998 12.72 3.09998 13.12 3.30998 13.41C3.52998 13.72 3.92998 13.9 4.41998 13.9H8.41998C8.93998 13.9 9.41998 14.12 9.74998 14.5C10.09 14.89 10.24 15.41 10.16 15.95L9.65998 19.16C9.53998 19.72 9.91998 20.35 10.46 20.53C10.94 20.71 11.58 20.45 11.8 20.13L15.9 14.03L17.14 14.87L13.04 20.97C12.57 21.67 11.68 22.1 10.8 22.1Z" fill="#292D32"/>
<path d="M19.62 18.1H18.62C16.77 18.1 15.87 17.23 15.87 15.45V5.65C15.87 3.87 16.77 3 18.62 3H19.62C21.47 3 22.37 3.87 22.37 5.65V15.45C22.37 17.23 21.47 18.1 19.62 18.1ZM18.62 4.5C17.53 4.5 17.37 4.76 17.37 5.65V15.45C17.37 16.34 17.53 16.6 18.62 16.6H19.62C20.71 16.6 20.87 16.34 20.87 15.45V5.65C20.87 4.76 20.71 4.5 19.62 4.5H18.62Z" fill="#292D32"/>
</svg>
