<svg width="24" height="24" viewBox="0 0 24 24" fill="none" xmlns="http://www.w3.org/2000/svg">
<path d="M12 22.75C6.07 22.75 1.25 17.93 1.25 12C1.25 6.07 6.07 1.25 12 1.25C17.93 1.25 22.75 6.07 22.75 12C22.75 17.93 17.93 22.75 12 22.75ZM12 2.75C6.9 2.75 2.75 6.9 2.75 12C2.75 17.1 6.9 21.25 12 21.25C17.1 21.25 21.25 17.1 21.25 12C21.25 6.9 17.1 2.75 12 2.75Z" fill="#292D32"/>
<path d="M11.9998 14.11C11.5898 14.11 11.2498 13.77 11.2498 13.36V13.15C11.2498 11.99 12.0998 11.42 12.4198 11.2C12.7898 10.95 12.9098 10.78 12.9098 10.52C12.9098 10.02 12.4998 9.60999 11.9998 9.60999C11.4998 9.60999 11.0898 10.02 11.0898 10.52C11.0898 10.93 10.7498 11.27 10.3398 11.27C9.92984 11.27 9.58984 10.93 9.58984 10.52C9.58984 9.19002 10.6698 8.10999 11.9998 8.10999C13.3298 8.10999 14.4098 9.19002 14.4098 10.52C14.4098 11.66 13.5698 12.23 13.2598 12.44C12.8698 12.7 12.7498 12.87 12.7498 13.15V13.36C12.7498 13.78 12.4098 14.11 11.9998 14.11Z" fill="#292D32"/>
<path d="M12 16.6C11.58 16.6 11.25 16.26 11.25 15.85C11.25 15.44 11.59 15.1 12 15.1C12.41 15.1 12.75 15.44 12.75 15.85C12.75 16.26 12.42 16.6 12 16.6Z" fill="#292D32"/>
</svg>
